G04 EAGLE Gerber RS-274X export*
G75*
%MOMM*%
%FSLAX34Y34*%
%LPD*%
%INTop Copper*%
%IPPOS*%
%AMOC8*
5,1,8,0,0,1.08239X$1,22.5*%
G01*
%ADD10R,0.762000X0.889000*%
%ADD11C,1.650000*%
%ADD12C,2.400000*%
%ADD13R,0.889000X0.762000*%
%ADD14R,1.016000X1.778000*%
%ADD15R,1.016000X0.304800*%
%ADD16R,0.304800X1.016000*%
%ADD17R,5.080000X5.080000*%
%ADD18R,0.762000X1.270000*%
%ADD19R,1.524000X0.700000*%
%ADD20R,1.016000X1.270000*%
%ADD21R,1.651000X1.397000*%
%ADD22R,1.800000X1.900000*%
%ADD23R,1.900000X1.900000*%
%ADD24R,1.600000X1.400000*%
%ADD25R,0.400000X1.400000*%
%ADD26R,2.794000X3.556000*%
%ADD27R,0.635000X1.143000*%
%ADD28R,3.400000X2.600000*%
%ADD29R,0.300000X1.397000*%
%ADD30C,2.250000*%
%ADD31C,0.806400*%
%ADD32C,0.304800*%
%ADD33C,1.006400*%
%ADD34C,0.609600*%
%ADD35C,0.508000*%
%ADD36C,0.685800*%
%ADD37C,0.812800*%
%ADD38C,1.106400*%
%ADD39C,0.762000*%
%ADD40C,2.032000*%
%ADD41C,1.016000*%
%ADD42C,0.635000*%
%ADD43C,0.254000*%

G36*
X168915Y259079D02*
X168915Y259079D01*
X168915Y259080D01*
X168915Y287020D01*
X168913Y287022D01*
X168914Y287024D01*
X147325Y308612D01*
X147325Y383540D01*
X147321Y383545D01*
X147320Y383545D01*
X119380Y383545D01*
X119375Y383541D01*
X119375Y383540D01*
X119375Y298455D01*
X92710Y298455D01*
X92705Y298451D01*
X92705Y298450D01*
X92705Y259080D01*
X92709Y259075D01*
X92710Y259075D01*
X168910Y259075D01*
X168915Y259079D01*
G37*
G36*
X106685Y196849D02*
X106685Y196849D01*
X106685Y196850D01*
X106685Y214625D01*
X154940Y214625D01*
X154945Y214629D01*
X154945Y214630D01*
X154945Y223515D01*
X168910Y223515D01*
X168915Y223519D01*
X168915Y223520D01*
X168915Y254000D01*
X168911Y254005D01*
X168910Y254005D01*
X92710Y254005D01*
X92705Y254001D01*
X92705Y254000D01*
X92705Y196850D01*
X92709Y196845D01*
X92710Y196845D01*
X106680Y196845D01*
X106685Y196849D01*
G37*
G36*
X114305Y303529D02*
X114305Y303529D01*
X114305Y303530D01*
X114305Y383540D01*
X114301Y383545D01*
X114300Y383545D01*
X92710Y383545D01*
X92705Y383541D01*
X92705Y383540D01*
X92705Y303530D01*
X92709Y303525D01*
X92710Y303525D01*
X114300Y303525D01*
X114305Y303529D01*
G37*
G36*
X147325Y121919D02*
X147325Y121919D01*
X147325Y121920D01*
X147325Y180340D01*
X147321Y180345D01*
X147320Y180345D01*
X125730Y180345D01*
X125725Y180341D01*
X125725Y180340D01*
X125725Y160025D01*
X119380Y160025D01*
X119375Y160021D01*
X119375Y160020D01*
X119375Y121920D01*
X119379Y121915D01*
X119380Y121915D01*
X147320Y121915D01*
X147325Y121919D01*
G37*
G36*
X389895Y102869D02*
X389895Y102869D01*
X389895Y102870D01*
X389895Y121915D01*
X406400Y121915D01*
X406405Y121919D01*
X406405Y121920D01*
X406405Y152400D01*
X406401Y152405D01*
X406400Y152405D01*
X392430Y152405D01*
X392425Y152401D01*
X392425Y152400D01*
X392425Y135895D01*
X377190Y135895D01*
X377185Y135891D01*
X377185Y135890D01*
X377185Y102870D01*
X377189Y102865D01*
X377190Y102865D01*
X389890Y102865D01*
X389895Y102869D01*
G37*
G36*
X372115Y102869D02*
X372115Y102869D01*
X372115Y102870D01*
X372115Y135890D01*
X372111Y135895D01*
X372110Y135895D01*
X356875Y135895D01*
X356875Y152400D01*
X356871Y152405D01*
X356870Y152405D01*
X342900Y152405D01*
X342895Y152401D01*
X342895Y152400D01*
X342895Y121920D01*
X342899Y121915D01*
X342900Y121915D01*
X359405Y121915D01*
X359405Y102870D01*
X359409Y102865D01*
X359410Y102865D01*
X372110Y102865D01*
X372115Y102869D01*
G37*
G36*
X449585Y102869D02*
X449585Y102869D01*
X449585Y102870D01*
X449585Y135890D01*
X449581Y135895D01*
X449580Y135895D01*
X434345Y135895D01*
X434345Y152400D01*
X434341Y152405D01*
X434340Y152405D01*
X420370Y152405D01*
X420365Y152401D01*
X420365Y152400D01*
X420365Y121920D01*
X420369Y121915D01*
X420370Y121915D01*
X436875Y121915D01*
X436875Y102870D01*
X436879Y102865D01*
X436880Y102865D01*
X449580Y102865D01*
X449585Y102869D01*
G37*
G36*
X466095Y102869D02*
X466095Y102869D01*
X466095Y102870D01*
X466095Y121915D01*
X483870Y121915D01*
X483875Y121919D01*
X483875Y121920D01*
X483875Y152400D01*
X483871Y152405D01*
X483870Y152405D01*
X469900Y152405D01*
X469895Y152401D01*
X469895Y152400D01*
X469895Y135895D01*
X454660Y135895D01*
X454655Y135891D01*
X454655Y135890D01*
X454655Y102870D01*
X454659Y102865D01*
X454660Y102865D01*
X466090Y102865D01*
X466095Y102869D01*
G37*
G36*
X435615Y172719D02*
X435615Y172719D01*
X435615Y172720D01*
X435615Y186690D01*
X435611Y186695D01*
X435610Y186695D01*
X424185Y186695D01*
X424185Y217170D01*
X424181Y217175D01*
X424180Y217175D01*
X411480Y217175D01*
X411475Y217171D01*
X411475Y217170D01*
X411475Y172720D01*
X411479Y172715D01*
X411480Y172715D01*
X435610Y172715D01*
X435615Y172719D01*
G37*
G36*
X358145Y172719D02*
X358145Y172719D01*
X358145Y172720D01*
X358145Y186690D01*
X358141Y186695D01*
X358140Y186695D01*
X346715Y186695D01*
X346715Y217170D01*
X346711Y217175D01*
X346710Y217175D01*
X334010Y217175D01*
X334005Y217171D01*
X334005Y217170D01*
X334005Y172720D01*
X334009Y172715D01*
X334010Y172715D01*
X358140Y172715D01*
X358145Y172719D01*
G37*
G36*
X177805Y167639D02*
X177805Y167639D01*
X177805Y167640D01*
X177805Y191770D01*
X177801Y191775D01*
X177800Y191775D01*
X152400Y191775D01*
X152395Y191771D01*
X152395Y191770D01*
X152395Y184155D01*
X151130Y184155D01*
X151125Y184151D01*
X151125Y184150D01*
X151125Y167640D01*
X151129Y167635D01*
X151130Y167635D01*
X177800Y167635D01*
X177805Y167639D01*
G37*
G36*
X406405Y201929D02*
X406405Y201929D01*
X406405Y201930D01*
X406405Y232410D01*
X406401Y232415D01*
X406400Y232415D01*
X387350Y232415D01*
X387345Y232411D01*
X387345Y232410D01*
X387345Y201930D01*
X387349Y201925D01*
X387350Y201925D01*
X406400Y201925D01*
X406405Y201929D01*
G37*
G36*
X328935Y203199D02*
X328935Y203199D01*
X328935Y203200D01*
X328935Y231140D01*
X328931Y231145D01*
X328930Y231145D01*
X309880Y231145D01*
X309875Y231141D01*
X309875Y231140D01*
X309875Y203200D01*
X309879Y203195D01*
X309880Y203195D01*
X328930Y203195D01*
X328935Y203199D01*
G37*
G36*
X114305Y135889D02*
X114305Y135889D01*
X114305Y135890D01*
X114305Y160020D01*
X114301Y160025D01*
X114300Y160025D01*
X92710Y160025D01*
X92705Y160021D01*
X92705Y160020D01*
X92705Y135890D01*
X92709Y135885D01*
X92710Y135885D01*
X114300Y135885D01*
X114305Y135889D01*
G37*
G36*
X328935Y172719D02*
X328935Y172719D01*
X328935Y172720D01*
X328935Y199390D01*
X328931Y199395D01*
X328930Y199395D01*
X309880Y199395D01*
X309875Y199391D01*
X309875Y199390D01*
X309875Y172720D01*
X309879Y172715D01*
X309880Y172715D01*
X328930Y172715D01*
X328935Y172719D01*
G37*
G36*
X406405Y172719D02*
X406405Y172719D01*
X406405Y172720D01*
X406405Y198120D01*
X406401Y198125D01*
X406400Y198125D01*
X387350Y198125D01*
X387345Y198121D01*
X387345Y198120D01*
X387345Y172720D01*
X387349Y172715D01*
X387350Y172715D01*
X406400Y172715D01*
X406405Y172719D01*
G37*
G36*
X177805Y196849D02*
X177805Y196849D01*
X177805Y196850D01*
X177805Y217170D01*
X177801Y217175D01*
X177800Y217175D01*
X161290Y217175D01*
X161285Y217171D01*
X161285Y217170D01*
X161285Y209555D01*
X152400Y209555D01*
X152395Y209551D01*
X152395Y209550D01*
X152395Y196850D01*
X152399Y196845D01*
X152400Y196845D01*
X177800Y196845D01*
X177805Y196849D01*
G37*
G36*
X464825Y140969D02*
X464825Y140969D01*
X464825Y140970D01*
X464825Y167640D01*
X464821Y167645D01*
X464820Y167645D01*
X461015Y167645D01*
X461015Y186690D01*
X461011Y186695D01*
X461010Y186695D01*
X453390Y186695D01*
X453385Y186691D01*
X453385Y186690D01*
X453385Y170180D01*
X453387Y170178D01*
X453386Y170176D01*
X454655Y168908D01*
X454655Y140970D01*
X454659Y140965D01*
X454660Y140965D01*
X464820Y140965D01*
X464825Y140969D01*
G37*
G36*
X387355Y140969D02*
X387355Y140969D01*
X387355Y140970D01*
X387355Y167640D01*
X387351Y167645D01*
X387350Y167645D01*
X383545Y167645D01*
X383545Y186690D01*
X383541Y186695D01*
X383540Y186695D01*
X375920Y186695D01*
X375915Y186691D01*
X375915Y186690D01*
X375915Y170180D01*
X375917Y170178D01*
X375916Y170176D01*
X377185Y168908D01*
X377185Y140970D01*
X377189Y140965D01*
X377190Y140965D01*
X387350Y140965D01*
X387355Y140969D01*
G37*
G36*
X372115Y140969D02*
X372115Y140969D01*
X372115Y140970D01*
X372115Y168908D01*
X373384Y170176D01*
X373384Y170179D01*
X373385Y170180D01*
X373385Y186690D01*
X373381Y186695D01*
X373380Y186695D01*
X365760Y186695D01*
X365755Y186691D01*
X365755Y186690D01*
X365755Y167645D01*
X361950Y167645D01*
X361945Y167641D01*
X361945Y167640D01*
X361945Y140970D01*
X361949Y140965D01*
X361950Y140965D01*
X372110Y140965D01*
X372115Y140969D01*
G37*
G36*
X449585Y140969D02*
X449585Y140969D01*
X449585Y140970D01*
X449585Y168908D01*
X450854Y170176D01*
X450854Y170179D01*
X450855Y170180D01*
X450855Y186690D01*
X450851Y186695D01*
X450850Y186695D01*
X443230Y186695D01*
X443225Y186691D01*
X443225Y186690D01*
X443225Y167645D01*
X439420Y167645D01*
X439415Y167641D01*
X439415Y167640D01*
X439415Y140970D01*
X439419Y140965D01*
X439420Y140965D01*
X449580Y140965D01*
X449585Y140969D01*
G37*
G36*
X121925Y165099D02*
X121925Y165099D01*
X121925Y165100D01*
X121925Y179070D01*
X121921Y179075D01*
X121920Y179075D01*
X92710Y179075D01*
X92705Y179071D01*
X92705Y179070D01*
X92705Y165100D01*
X92709Y165095D01*
X92710Y165095D01*
X121920Y165095D01*
X121925Y165099D01*
G37*
G36*
X171455Y143509D02*
X171455Y143509D01*
X171455Y143510D01*
X171455Y162560D01*
X171451Y162565D01*
X171450Y162565D01*
X151130Y162565D01*
X151125Y162561D01*
X151125Y162560D01*
X151125Y143510D01*
X151129Y143505D01*
X151130Y143505D01*
X171450Y143505D01*
X171455Y143509D01*
G37*
G36*
X110492Y182877D02*
X110492Y182877D01*
X110494Y182876D01*
X121924Y194306D01*
X121924Y194309D01*
X121925Y194310D01*
X121925Y209550D01*
X121921Y209555D01*
X121920Y209555D01*
X111760Y209555D01*
X111755Y209551D01*
X111755Y209550D01*
X111755Y191775D01*
X92710Y191775D01*
X92705Y191771D01*
X92705Y191770D01*
X92705Y182880D01*
X92709Y182875D01*
X92710Y182875D01*
X110490Y182875D01*
X110492Y182877D01*
G37*
G36*
X459745Y193039D02*
X459745Y193039D01*
X459745Y193040D01*
X459745Y210820D01*
X459741Y210825D01*
X459740Y210825D01*
X448310Y210825D01*
X448305Y210821D01*
X448305Y210820D01*
X448305Y200665D01*
X429260Y200665D01*
X429255Y200661D01*
X429255Y200660D01*
X429255Y193040D01*
X429259Y193035D01*
X429260Y193035D01*
X459740Y193035D01*
X459745Y193039D01*
G37*
G36*
X382275Y193039D02*
X382275Y193039D01*
X382275Y193040D01*
X382275Y210820D01*
X382271Y210825D01*
X382270Y210825D01*
X370840Y210825D01*
X370835Y210821D01*
X370835Y210820D01*
X370835Y200665D01*
X351790Y200665D01*
X351785Y200661D01*
X351785Y200660D01*
X351785Y193040D01*
X351789Y193035D01*
X351790Y193035D01*
X382270Y193035D01*
X382275Y193039D01*
G37*
G36*
X147325Y193039D02*
X147325Y193039D01*
X147325Y193040D01*
X147325Y209550D01*
X147321Y209555D01*
X147320Y209555D01*
X134620Y209555D01*
X134615Y209551D01*
X134615Y209550D01*
X134615Y193040D01*
X134619Y193035D01*
X134620Y193035D01*
X147320Y193035D01*
X147325Y193039D01*
G37*
D10*
X419100Y340360D03*
X403860Y340360D03*
X125730Y441960D03*
X110490Y441960D03*
X283210Y487680D03*
X298450Y487680D03*
X283210Y472440D03*
X298450Y472440D03*
X363220Y472440D03*
X347980Y472440D03*
X419100Y355600D03*
X403860Y355600D03*
X317500Y266700D03*
X332740Y266700D03*
X363220Y266700D03*
X347980Y266700D03*
X312420Y452120D03*
X327660Y452120D03*
X254000Y383540D03*
X269240Y383540D03*
X273050Y353060D03*
X288290Y353060D03*
D11*
X218440Y330200D03*
X193040Y355600D03*
X193040Y330200D03*
X243840Y355600D03*
X243840Y330200D03*
X218440Y355600D03*
X234950Y502920D03*
X260350Y579120D03*
X260350Y553720D03*
X234950Y579120D03*
X234950Y553720D03*
X234950Y528320D03*
X260350Y528320D03*
X260350Y502920D03*
D12*
X508450Y637540D03*
X483050Y662940D03*
X483050Y612140D03*
X533850Y612140D03*
X533850Y662940D03*
D13*
X135255Y398780D03*
X98425Y398780D03*
X135255Y127000D03*
X98425Y127000D03*
X135255Y375920D03*
X98425Y375920D03*
D14*
X132080Y422910D03*
X101600Y422910D03*
D15*
X308610Y413620D03*
X308610Y408620D03*
X308610Y403620D03*
X308610Y398620D03*
X308610Y393620D03*
X308610Y388620D03*
X308610Y383620D03*
X308610Y378620D03*
X308610Y373620D03*
X308610Y368620D03*
X308610Y363620D03*
D16*
X317900Y354330D03*
X322900Y354330D03*
X327900Y354330D03*
X332900Y354330D03*
X337900Y354330D03*
X342900Y354330D03*
X347900Y354330D03*
X352900Y354330D03*
X357900Y354330D03*
X362900Y354330D03*
X367900Y354330D03*
D15*
X377190Y363620D03*
X377190Y368620D03*
X377190Y373620D03*
X377190Y378620D03*
X377190Y383620D03*
X377190Y388620D03*
X377190Y393620D03*
X377190Y398620D03*
X377190Y403620D03*
X377190Y408620D03*
X377190Y413620D03*
D16*
X367900Y422910D03*
X362900Y422910D03*
X357900Y422910D03*
X352900Y422910D03*
X347900Y422910D03*
X342900Y422910D03*
X337900Y422910D03*
X332900Y422910D03*
X327900Y422910D03*
X322900Y422910D03*
X317900Y422910D03*
D17*
X342900Y388620D03*
D18*
X210820Y153690D03*
X236220Y153690D03*
X236220Y219690D03*
X210820Y219690D03*
X274320Y153690D03*
X299720Y153690D03*
X299720Y219690D03*
X274320Y219690D03*
D19*
X445770Y527970D03*
X445770Y537970D03*
X445770Y547970D03*
X445770Y557970D03*
X445770Y567970D03*
X445770Y577970D03*
X445770Y587970D03*
X445770Y597970D03*
X445770Y607970D03*
X445770Y617970D03*
X445770Y627970D03*
X445770Y637970D03*
X300990Y637970D03*
X300990Y627970D03*
X300990Y617970D03*
X300990Y567970D03*
X300990Y557970D03*
X300990Y547970D03*
X300990Y537970D03*
X300990Y527970D03*
D10*
X273050Y337820D03*
X288290Y337820D03*
X254000Y414020D03*
X269240Y414020D03*
D20*
X232410Y127000D03*
X214630Y127000D03*
D10*
X195580Y256540D03*
X210820Y256540D03*
D20*
X294640Y127000D03*
X276860Y127000D03*
D10*
X259080Y256540D03*
X274320Y256540D03*
X254000Y398780D03*
X269240Y398780D03*
X421640Y487680D03*
X406400Y487680D03*
X298450Y452120D03*
X283210Y452120D03*
X392430Y487680D03*
X377190Y487680D03*
X421640Y472440D03*
X406400Y472440D03*
X392430Y472440D03*
X377190Y472440D03*
X327660Y487680D03*
X312420Y487680D03*
X327660Y472440D03*
X312420Y472440D03*
D21*
X319405Y286385D03*
X361315Y286385D03*
X361315Y313055D03*
X319405Y313055D03*
D22*
X278450Y671300D03*
D23*
X250450Y671300D03*
D22*
X198450Y671300D03*
D23*
X226450Y671300D03*
D24*
X270450Y647300D03*
X206450Y647300D03*
D25*
X238450Y644300D03*
X244950Y644300D03*
X251450Y644300D03*
X231950Y644300D03*
X225450Y644300D03*
D26*
X198120Y392430D03*
X198120Y458470D03*
D10*
X347980Y452120D03*
X363220Y452120D03*
D27*
X118770Y174625D03*
X128270Y174625D03*
X137770Y174625D03*
X137770Y198755D03*
X128270Y198755D03*
X118770Y198755D03*
D14*
X101600Y151130D03*
X132080Y151130D03*
X101600Y313690D03*
X132080Y313690D03*
X101600Y337820D03*
X132080Y337820D03*
D28*
X128270Y285540D03*
X128270Y227540D03*
D13*
X100330Y201930D03*
X100330Y186690D03*
D10*
X109220Y356870D03*
X124460Y356870D03*
D13*
X156210Y157480D03*
X156210Y172720D03*
X171450Y201930D03*
X171450Y186690D03*
X156210Y186690D03*
X156210Y201930D03*
D10*
X444500Y161290D03*
X459740Y161290D03*
X429260Y146050D03*
X444500Y146050D03*
X474980Y146050D03*
X459740Y146050D03*
X195580Y241300D03*
X210820Y241300D03*
X259080Y241300D03*
X274320Y241300D03*
X401320Y193040D03*
X416560Y193040D03*
X401320Y177800D03*
X416560Y177800D03*
X434340Y266700D03*
X419100Y266700D03*
X434340Y281940D03*
X419100Y281940D03*
X416560Y226060D03*
X401320Y226060D03*
D20*
X400050Y209550D03*
X417830Y209550D03*
D10*
X382270Y146050D03*
X397510Y146050D03*
X367030Y146050D03*
X351790Y146050D03*
X367030Y161290D03*
X382270Y161290D03*
X323850Y177800D03*
X339090Y177800D03*
X323850Y193040D03*
X339090Y193040D03*
D20*
X322580Y209550D03*
X340360Y209550D03*
D10*
X339090Y226060D03*
X323850Y226060D03*
D29*
X377030Y224155D03*
X372030Y224155D03*
X367030Y224155D03*
X362030Y224155D03*
X357030Y224155D03*
X357030Y179705D03*
X362030Y179705D03*
X367030Y179705D03*
X372030Y179705D03*
X377030Y179705D03*
X454500Y224155D03*
X449500Y224155D03*
X444500Y224155D03*
X439500Y224155D03*
X434500Y224155D03*
X434500Y179705D03*
X439500Y179705D03*
X444500Y179705D03*
X449500Y179705D03*
X454500Y179705D03*
D10*
X403860Y325120D03*
X419100Y325120D03*
X403860Y309880D03*
X419100Y309880D03*
D11*
X393700Y64770D03*
X355600Y64770D03*
X317500Y64770D03*
X279400Y64770D03*
X241300Y64770D03*
X203200Y64770D03*
X165100Y64770D03*
X127000Y64770D03*
X431800Y64770D03*
X469900Y64770D03*
X100950Y637540D03*
X55950Y637540D03*
D30*
X113450Y612540D03*
X43450Y612540D03*
D11*
X140750Y612140D03*
X166150Y612140D03*
D20*
X365760Y129540D03*
X383540Y129540D03*
X443230Y129540D03*
X461010Y129540D03*
X347980Y110490D03*
X365760Y110490D03*
X401320Y110490D03*
X383540Y110490D03*
X425450Y110490D03*
X443230Y110490D03*
X478790Y110490D03*
X461010Y110490D03*
D31*
X308610Y265430D03*
X373380Y266700D03*
D32*
X317500Y266700D02*
X316230Y265430D01*
X308610Y265430D01*
X363220Y266700D02*
X373380Y266700D01*
X363220Y266700D02*
X363220Y284480D01*
X361315Y286385D01*
D31*
X389890Y351790D03*
D32*
X389890Y361950D01*
D31*
X330200Y328930D03*
D32*
X332900Y331630D01*
X330200Y328930D02*
X332820Y326310D01*
X330835Y313055D02*
X319405Y313055D01*
X332820Y315040D02*
X332820Y326310D01*
X332820Y315040D02*
X330835Y313055D01*
D31*
X261620Y353060D03*
D32*
X273050Y353060D01*
D31*
X389890Y420370D03*
D32*
X388220Y413620D02*
X377190Y413620D01*
X389890Y415290D02*
X389890Y420370D01*
X389890Y415290D02*
X388220Y413620D01*
D31*
X135890Y441960D03*
X283210Y397510D03*
D32*
X287020Y397510D01*
D31*
X243840Y383540D03*
D32*
X254000Y383540D01*
D31*
X320040Y439420D03*
D32*
X322900Y436560D02*
X322900Y422910D01*
X322900Y436560D02*
X320040Y439420D01*
D33*
X224790Y626110D03*
D31*
X284480Y637540D03*
X284480Y627380D03*
X462280Y627380D03*
X283210Y538480D03*
D34*
X284910Y637970D02*
X300990Y637970D01*
X284910Y637970D02*
X284480Y637540D01*
X285070Y627970D02*
X300990Y627970D01*
X285070Y627970D02*
X284480Y627380D01*
X283720Y537970D02*
X300990Y537970D01*
X283720Y537970D02*
X283210Y538480D01*
X445770Y627970D02*
X461690Y627970D01*
X462280Y627380D01*
D31*
X347980Y439420D03*
X198120Y671830D03*
D32*
X196840Y671830D01*
X198450Y671300D01*
D31*
X227330Y671830D03*
D32*
X226800Y671300D01*
X226450Y671300D01*
D31*
X250190Y671830D03*
D32*
X250190Y671317D01*
X250450Y671300D01*
D31*
X279400Y671830D03*
D32*
X278870Y671300D01*
X278450Y671300D01*
D31*
X207010Y646430D03*
D32*
X206159Y647281D01*
X206450Y647300D01*
D31*
X270510Y646430D03*
D32*
X270450Y646490D01*
X270450Y647300D01*
D31*
X110490Y375920D03*
X99060Y356870D03*
X110490Y337820D03*
X110490Y313690D03*
X143510Y205740D03*
X143510Y196850D03*
X166370Y157480D03*
X110490Y154940D03*
X110490Y140970D03*
D35*
X125730Y441960D02*
X135890Y441960D01*
D31*
X313690Y193040D03*
X313690Y177800D03*
X391160Y193040D03*
X391160Y177800D03*
X360680Y196850D03*
X374650Y196850D03*
X374650Y207010D03*
D32*
X362030Y196850D02*
X362030Y179705D01*
X362030Y196850D02*
X360680Y196850D01*
X372030Y207010D02*
X372030Y224155D01*
X372030Y207010D02*
X374650Y207010D01*
X377030Y207010D02*
X377030Y224155D01*
X377030Y207010D02*
X374650Y207010D01*
D31*
X452120Y207010D03*
X438150Y196850D03*
X452120Y196850D03*
D32*
X439500Y195500D02*
X439500Y179705D01*
X439500Y195500D02*
X438150Y196850D01*
X454500Y209390D02*
X454500Y224155D01*
X454500Y209390D02*
X452120Y207010D01*
X347980Y439420D02*
X347980Y452120D01*
D31*
X156210Y147320D03*
X325120Y406400D03*
X360680Y406400D03*
X360680Y370840D03*
X325120Y370840D03*
D32*
X325120Y388620D02*
X342900Y388620D01*
X325120Y388620D02*
X325120Y406400D01*
X342900Y406400D02*
X342900Y388620D01*
X342900Y406400D02*
X360680Y406400D01*
X360680Y388620D02*
X342900Y388620D01*
X360680Y388620D02*
X360680Y370840D01*
X342900Y370840D02*
X342900Y388620D01*
X342900Y370840D02*
X325120Y370840D01*
X362900Y422910D02*
X362900Y435930D01*
X312420Y447008D02*
X312420Y452120D01*
X312452Y447008D02*
X320040Y439420D01*
X312452Y447008D02*
X312420Y447008D01*
D31*
X299720Y233680D03*
D32*
X299720Y219690D01*
D31*
X195580Y229870D03*
X236220Y233680D03*
X259080Y229870D03*
D32*
X195580Y229870D02*
X195580Y241300D01*
X236220Y233680D02*
X236220Y219690D01*
X259080Y229870D02*
X259080Y241300D01*
X225450Y626770D02*
X225450Y644300D01*
X225450Y626770D02*
X224790Y626110D01*
X359410Y439420D02*
X362900Y435930D01*
X359410Y439420D02*
X347980Y439420D01*
X419100Y355600D02*
X419100Y340360D01*
D31*
X429260Y340360D03*
D32*
X419100Y340360D01*
D36*
X283210Y472440D02*
X283210Y487680D01*
X283210Y496570D01*
X276860Y502920D02*
X260350Y502920D01*
X276860Y502920D02*
X283210Y496570D01*
D31*
X363220Y483870D03*
D32*
X363220Y472440D01*
D33*
X172720Y458470D03*
D37*
X198120Y458470D01*
D32*
X290910Y393620D02*
X308610Y393620D01*
X290910Y393620D02*
X287020Y397510D01*
X332900Y354330D02*
X332900Y331630D01*
X377190Y363620D02*
X388220Y363620D01*
X389890Y361950D01*
D31*
X283210Y548640D03*
D32*
X283880Y547970D02*
X300990Y547970D01*
X283880Y547970D02*
X283210Y548640D01*
X327660Y487680D02*
X327660Y472440D01*
D31*
X327660Y497840D03*
D32*
X327660Y487680D01*
X327660Y472440D02*
X347980Y472440D01*
D31*
X308610Y439420D03*
D32*
X317900Y430130D02*
X317900Y422910D01*
X317900Y430130D02*
X308610Y439420D01*
D38*
X179070Y528320D03*
D39*
X171450Y201930D02*
X156210Y201930D01*
D31*
X167640Y212090D03*
D38*
X153670Y278130D03*
X119380Y459740D03*
D40*
X119380Y490220D01*
D38*
X138430Y356870D03*
X195580Y278130D03*
X449580Y241300D03*
X416560Y241300D03*
X372110Y241300D03*
D41*
X416560Y241300D01*
D32*
X449500Y241220D02*
X449500Y224155D01*
X449500Y241220D02*
X449580Y241300D01*
D38*
X339090Y241300D03*
D37*
X339090Y226060D01*
D34*
X416560Y226060D02*
X416560Y241300D01*
D33*
X149860Y411480D03*
D32*
X367900Y422910D02*
X367900Y438550D01*
X363220Y443230D01*
X363220Y452120D01*
D41*
X290830Y278130D02*
X297466Y271494D01*
X297466Y260814D02*
X316980Y241300D01*
X297466Y260814D02*
X297466Y271494D01*
X316980Y241300D02*
X339090Y241300D01*
X290830Y278130D02*
X248920Y278130D01*
D31*
X248920Y256540D03*
D41*
X248920Y278130D02*
X242570Y278130D01*
X195580Y278130D01*
D32*
X248920Y256540D02*
X259080Y256540D01*
X195580Y256540D02*
X195580Y278130D01*
D31*
X248920Y278130D03*
D41*
X198120Y392430D02*
X169642Y392430D01*
X150368Y410972D02*
X149860Y411480D01*
X150368Y410972D02*
X151100Y410972D01*
X169642Y392430D01*
D40*
X119380Y490220D02*
X137160Y508000D01*
X179070Y519430D02*
X179070Y528320D01*
X167640Y508000D02*
X137160Y508000D01*
X167640Y508000D02*
X179070Y519430D01*
D37*
X448310Y290830D02*
X448310Y242570D01*
X449580Y241300D01*
X448310Y290830D02*
X443230Y295910D01*
X434340Y295910D01*
X410210Y295910D01*
D32*
X434340Y295910D02*
X434340Y281940D01*
X434340Y266700D01*
X143542Y514382D02*
X137160Y508000D01*
D41*
X243840Y330200D02*
X243840Y279400D01*
X242570Y278130D01*
D37*
X403860Y340360D02*
X403860Y355600D01*
X403860Y340360D02*
X403860Y325120D01*
X403860Y309880D01*
X403860Y302260D02*
X410210Y295910D01*
X403860Y302260D02*
X403860Y309880D01*
D38*
X403860Y368300D03*
D37*
X403860Y355600D01*
D35*
X251460Y337820D02*
X243840Y330200D01*
X251460Y337820D02*
X273050Y337820D01*
D32*
X273050Y328930D02*
X275590Y326390D01*
X273050Y328930D02*
X273050Y337820D01*
X275590Y326390D02*
X295910Y326390D01*
X299720Y330200D02*
X320040Y330200D01*
X299720Y330200D02*
X295910Y326390D01*
D31*
X373380Y452120D03*
D32*
X363220Y452120D01*
D37*
X373380Y452120D02*
X406400Y452120D01*
X411448Y447072D01*
D32*
X403540Y368620D02*
X377190Y368620D01*
X403540Y368620D02*
X403860Y368300D01*
D37*
X411448Y436848D02*
X411448Y447072D01*
X411448Y436848D02*
X406400Y431800D01*
D38*
X406400Y403860D03*
D37*
X406400Y431800D01*
D32*
X327900Y354330D02*
X327900Y338060D01*
X320040Y330200D01*
X140750Y586960D02*
X140750Y612140D01*
X143542Y584168D02*
X143542Y514382D01*
X143542Y584168D02*
X140750Y586960D01*
X251860Y363620D02*
X243840Y355600D01*
X251860Y363620D02*
X308610Y363620D01*
X231140Y346710D02*
X218440Y334010D01*
X218440Y330200D01*
X231140Y363220D02*
X236540Y368620D01*
X231140Y363220D02*
X231140Y346710D01*
X236540Y368620D02*
X308610Y368620D01*
X319405Y286385D02*
X337900Y286385D01*
X337900Y278210D01*
X332740Y273050D01*
X332740Y266700D01*
X337900Y286385D02*
X337900Y354330D01*
X342900Y313055D02*
X361315Y313055D01*
X342900Y313055D02*
X342900Y278130D01*
X347980Y273050D01*
X347980Y266700D01*
X342900Y313055D02*
X342900Y354330D01*
X289560Y410210D02*
X279400Y410210D01*
X275590Y414020D01*
X269240Y414020D01*
X296150Y403620D02*
X308610Y403620D01*
X296150Y403620D02*
X289560Y410210D01*
X287020Y405130D02*
X279400Y405130D01*
X273050Y398780D01*
X269240Y398780D01*
X293530Y398620D02*
X308610Y398620D01*
X293530Y398620D02*
X287020Y405130D01*
X218440Y358140D02*
X218440Y355600D01*
X218440Y358140D02*
X233920Y373620D01*
X308610Y373620D01*
X327900Y451880D02*
X327660Y452120D01*
X327900Y451880D02*
X327900Y422910D01*
D31*
X283210Y382270D03*
D32*
X284560Y383620D02*
X308610Y383620D01*
X284560Y383620D02*
X283210Y382270D01*
D31*
X283210Y417830D03*
D32*
X289560Y417830D01*
D31*
X149860Y477520D03*
X101600Y477520D03*
D41*
X101600Y401955D02*
X98425Y398780D01*
X101600Y401955D02*
X101600Y422910D01*
D37*
X101600Y441960D02*
X101600Y477520D01*
D35*
X101600Y441960D02*
X110490Y441960D01*
D37*
X101600Y441960D02*
X101600Y422910D01*
X149860Y462095D02*
X149860Y477520D01*
X149860Y462095D02*
X158210Y453745D01*
X158210Y432340D01*
X165100Y425450D01*
D31*
X231140Y425450D03*
D37*
X165100Y425450D01*
D32*
X298770Y408620D02*
X308610Y408620D01*
X298770Y408620D02*
X289560Y417830D01*
X287020Y389890D02*
X280099Y389890D01*
X273749Y383540D02*
X269240Y383540D01*
X273749Y383540D02*
X280099Y389890D01*
X288290Y388620D02*
X308610Y388620D01*
X288290Y388620D02*
X287020Y389890D01*
X392430Y487680D02*
X406400Y487680D01*
X406400Y495300D01*
X408940Y497840D01*
X459740Y497840D01*
X463550Y501650D02*
X463550Y523240D01*
X463550Y501650D02*
X459740Y497840D01*
X458820Y527970D02*
X445770Y527970D01*
X458820Y527970D02*
X463550Y523240D01*
X406400Y472440D02*
X392430Y472440D01*
X406400Y472440D02*
X406400Y464820D01*
X408940Y462280D01*
X432371Y462280D01*
X439388Y490188D02*
X441960Y492760D01*
X439388Y490188D02*
X439388Y469297D01*
X432371Y462280D01*
X441960Y492760D02*
X461844Y492760D01*
X468630Y499546D01*
X458980Y537970D02*
X445770Y537970D01*
X468630Y528320D02*
X468630Y499546D01*
X468630Y528320D02*
X458980Y537970D01*
D36*
X260700Y527970D02*
X260350Y528320D01*
X283210Y527970D02*
X300990Y527970D01*
X283210Y527970D02*
X260700Y527970D01*
X283210Y527970D02*
X283210Y510540D01*
X294640Y499110D01*
X298450Y495300D01*
X298450Y487680D01*
X298450Y472440D01*
D32*
X312420Y472440D01*
D31*
X294640Y499110D03*
X340360Y487680D03*
D32*
X356171Y487680D02*
X359981Y491490D01*
X356171Y487680D02*
X340360Y487680D01*
X359981Y491490D02*
X366331Y491490D01*
X370141Y487680D02*
X377190Y487680D01*
X370141Y487680D02*
X366331Y491490D01*
X377190Y487680D02*
X377190Y472440D01*
D31*
X431800Y248920D03*
D32*
X434500Y246220D02*
X434500Y224155D01*
X434500Y246220D02*
X431800Y248920D01*
D31*
X408940Y266700D03*
X393700Y266700D03*
D32*
X375920Y326390D02*
X356870Y326390D01*
X357030Y247810D02*
X357030Y224155D01*
X357030Y247810D02*
X365958Y256738D01*
X408940Y266700D02*
X419100Y266700D01*
X378460Y323850D02*
X375920Y326390D01*
X378460Y275590D02*
X381000Y273050D01*
X378460Y275590D02*
X378460Y323850D01*
X376118Y256738D02*
X365958Y256738D01*
X381000Y261620D02*
X381000Y266700D01*
X381000Y273050D01*
X381000Y261620D02*
X376118Y256738D01*
X381000Y266700D02*
X393700Y266700D01*
X347900Y335360D02*
X347900Y354330D01*
X347900Y335360D02*
X356870Y326390D01*
X359410Y331470D02*
X378460Y331470D01*
X362030Y245190D02*
X362030Y224155D01*
X383540Y326390D02*
X378460Y331470D01*
X383540Y326390D02*
X383540Y277694D01*
X386914Y274320D01*
X401288Y269843D02*
X401288Y256540D01*
X401288Y269843D02*
X401320Y269875D01*
X401320Y274320D01*
X401320Y275590D01*
X407670Y281940D01*
X419100Y281940D01*
X401320Y274320D02*
X386914Y274320D01*
X368300Y251460D02*
X362030Y245190D01*
X436880Y256540D02*
X439500Y253920D01*
X436880Y256540D02*
X401288Y256540D01*
X439500Y253920D02*
X439500Y224155D01*
X398748Y251460D02*
X368300Y251460D01*
X398748Y251460D02*
X401288Y254000D01*
X401288Y256540D01*
X352900Y337980D02*
X352900Y354330D01*
X352900Y337980D02*
X359410Y331470D01*
D37*
X98425Y127000D02*
X98425Y94615D01*
X104140Y88900D01*
X119380Y88900D01*
X127000Y81280D02*
X127000Y64770D01*
X127000Y81280D02*
X119380Y88900D01*
D32*
X254000Y414020D02*
X254000Y419100D01*
X248920Y424180D01*
X248920Y467360D02*
X242570Y473710D01*
X248920Y467360D02*
X248920Y424180D01*
X242570Y473710D02*
X232012Y473710D01*
X212090Y493632D01*
X212090Y575310D01*
X244950Y608170D02*
X244950Y644300D01*
X244950Y608170D02*
X212090Y575310D01*
X243840Y402590D02*
X247650Y398780D01*
X254000Y398780D01*
X240466Y468630D02*
X229907Y468630D01*
X240466Y468630D02*
X243840Y465256D01*
X229907Y468630D02*
X207010Y491527D01*
X243840Y465256D02*
X243840Y402590D01*
X207010Y491527D02*
X207010Y577414D01*
X238450Y608854D02*
X238450Y644300D01*
X238450Y608854D02*
X207010Y577414D01*
D36*
X445770Y637970D02*
X505470Y637970D01*
X508450Y637540D01*
D31*
X312420Y497840D03*
D32*
X312420Y487680D01*
D31*
X401320Y441960D03*
D32*
X389730Y398620D02*
X377190Y398620D01*
X389730Y398620D02*
X397478Y406368D01*
X397478Y438118D02*
X401320Y441960D01*
X397478Y438118D02*
X397478Y406368D01*
D31*
X431800Y487680D03*
D32*
X421640Y487680D01*
D31*
X431800Y472440D03*
D32*
X421640Y472440D01*
D37*
X210820Y153690D02*
X210820Y143510D01*
X214630Y139700D01*
X214630Y127000D01*
X274320Y143510D02*
X274320Y153690D01*
X274320Y143510D02*
X276860Y140970D01*
X276860Y127000D01*
X236220Y147320D02*
X236220Y153690D01*
X236220Y147320D02*
X246380Y137160D01*
X246380Y87630D01*
X241300Y82550D02*
X241300Y64770D01*
X241300Y82550D02*
X246380Y87630D01*
X232410Y93980D02*
X232410Y127000D01*
X232410Y93980D02*
X227330Y88900D01*
X210820Y88900D01*
X203200Y81280D02*
X203200Y64770D01*
X203200Y81280D02*
X210820Y88900D01*
D41*
X180340Y292100D02*
X157480Y314960D01*
X180340Y228600D02*
X186690Y222250D01*
X186690Y143510D01*
X170180Y127000D02*
X135255Y127000D01*
X180340Y228600D02*
X180340Y292100D01*
X186690Y143510D02*
X170180Y127000D01*
D33*
X146050Y398780D03*
D41*
X135255Y398780D01*
D33*
X157480Y370840D03*
D41*
X157480Y314960D01*
D31*
X298450Y353060D03*
D32*
X288290Y353060D02*
X288290Y337820D01*
D31*
X233680Y383540D03*
D32*
X200660Y368300D02*
X193040Y360680D01*
X193040Y355600D01*
X288290Y337820D02*
X293370Y337820D01*
X295910Y335280D02*
X317500Y335280D01*
X295910Y335280D02*
X293370Y337820D01*
X221416Y368300D02*
X200660Y368300D01*
X233680Y380564D02*
X233680Y383540D01*
X233680Y380564D02*
X221416Y368300D01*
X233680Y383540D02*
X236252Y386112D01*
X236252Y386683D01*
X238760Y389191D01*
D31*
X236220Y447040D03*
D32*
X238760Y444500D01*
X238760Y389191D01*
D31*
X135890Y524510D03*
D32*
X100330Y588010D02*
X85400Y602940D01*
X85400Y625150D01*
X97790Y637540D02*
X100950Y637540D01*
X97790Y637540D02*
X85400Y625150D01*
X100330Y588010D02*
X132080Y588010D01*
X288290Y353060D02*
X298450Y353060D01*
X322900Y354330D02*
X322900Y340680D01*
X317500Y335280D01*
X135890Y524510D02*
X138462Y527082D01*
X138462Y581628D02*
X132080Y588010D01*
X138462Y581628D02*
X138462Y527082D01*
D42*
X128270Y218440D02*
X128270Y198755D01*
D34*
X128270Y218440D02*
X128270Y227540D01*
D35*
X118770Y183540D02*
X118770Y174625D01*
X121920Y186690D02*
X156210Y186690D01*
X121920Y186690D02*
X118770Y183540D01*
D31*
X285750Y256540D03*
D32*
X274320Y256540D02*
X274320Y241300D01*
X274320Y219690D01*
X274320Y256540D02*
X285750Y256540D01*
D31*
X469900Y274320D03*
D32*
X472472Y276892D01*
X473043Y276892D01*
X477488Y281337D01*
X477488Y287623D02*
X471170Y293941D01*
X477488Y287623D02*
X477488Y281337D01*
X471170Y293941D02*
X471170Y300299D01*
X457168Y314301D01*
X457168Y321477D02*
X452120Y326525D01*
X457168Y321477D02*
X457168Y314301D01*
X452120Y326525D02*
X452120Y379693D01*
X438193Y393620D02*
X377190Y393620D01*
X438193Y393620D02*
X452120Y379693D01*
D31*
X285750Y266700D03*
D32*
X210820Y256540D02*
X210820Y241300D01*
X210820Y219690D01*
X247650Y266700D02*
X285750Y266700D01*
X247650Y266700D02*
X237490Y256540D01*
X210820Y256540D01*
D31*
X469900Y284480D03*
D32*
X466090Y288290D01*
X466090Y298195D01*
X452088Y312197D02*
X452088Y319373D01*
X452088Y312197D02*
X466090Y298195D01*
X452088Y319373D02*
X447040Y324421D01*
X447040Y377589D01*
X436009Y388620D02*
X377190Y388620D01*
X436009Y388620D02*
X447040Y377589D01*
D37*
X299720Y153690D02*
X299720Y146050D01*
X308610Y137160D01*
X308610Y93980D01*
X317500Y85090D02*
X317500Y64770D01*
X317500Y85090D02*
X308610Y93980D01*
X294640Y93980D02*
X294640Y127000D01*
X294640Y93980D02*
X289560Y88900D01*
X283210Y88900D01*
X279400Y85090D01*
X279400Y64770D01*
D41*
X147034Y427704D02*
X147034Y449116D01*
X137922Y458228D01*
X147034Y427704D02*
X142240Y422910D01*
X137922Y458228D02*
X137922Y482092D01*
X142240Y422910D02*
X132080Y422910D01*
D33*
X224790Y613410D03*
X254000Y613410D03*
D41*
X224790Y613410D02*
X224790Y607407D01*
X198374Y580991D01*
X144780Y488950D02*
X137922Y482092D01*
X144780Y488950D02*
X175260Y488950D01*
X198374Y512064D01*
X198374Y580991D01*
D32*
X251450Y615960D02*
X251450Y644300D01*
X251450Y615960D02*
X254000Y613410D01*
D31*
X360680Y207010D03*
D32*
X367030Y213360D02*
X367030Y224155D01*
X367030Y213360D02*
X360680Y207010D01*
D31*
X469900Y224790D03*
D32*
X469900Y234950D01*
X455930Y248920D01*
X455930Y293986D01*
X436880Y313036D01*
X436880Y325120D01*
X436880Y373380D01*
X436880Y325120D02*
X419100Y325120D01*
X436880Y373380D02*
X431640Y378620D01*
X377190Y378620D01*
D31*
X256540Y452120D03*
D32*
X283210Y452120D01*
D31*
X151130Y524510D03*
D32*
X148622Y527018D01*
X166150Y600490D02*
X166150Y612140D01*
X148622Y582962D02*
X148622Y527018D01*
X148622Y582962D02*
X166150Y600490D01*
D31*
X438150Y207010D03*
D32*
X444500Y213360D02*
X444500Y224155D01*
X444500Y213360D02*
X438150Y207010D01*
D31*
X429260Y309880D03*
D32*
X419100Y309880D01*
D31*
X444500Y316230D03*
D32*
X441960Y318770D01*
X441960Y375484D01*
D31*
X469900Y214630D03*
D32*
X470471Y214630D02*
X477488Y221647D01*
X470471Y214630D02*
X469900Y214630D01*
X477488Y234546D02*
X461010Y251024D01*
X477488Y234546D02*
X477488Y221647D01*
X461010Y251024D02*
X461010Y296091D01*
X444500Y312601D02*
X444500Y316230D01*
X444500Y312601D02*
X461010Y296091D01*
X441960Y375484D02*
X433824Y383620D01*
X377190Y383620D01*
X298450Y452120D02*
X298450Y459740D01*
X300990Y462280D01*
X335280Y462280D01*
X337820Y459740D01*
X337820Y443230D01*
X332900Y438310D02*
X332900Y422910D01*
X332900Y438310D02*
X337820Y443230D01*
D31*
X389890Y341630D03*
D32*
X364490Y341630D01*
X247650Y566420D02*
X234950Y579120D01*
X247650Y546100D02*
X243464Y541914D01*
X247650Y546100D02*
X247650Y566420D01*
X243464Y541914D02*
X225684Y541914D01*
X222250Y538480D01*
X222250Y497840D01*
X236220Y483870D01*
D31*
X269240Y483870D03*
D32*
X236220Y483870D01*
X362900Y354330D02*
X362900Y343220D01*
X364490Y341630D01*
D31*
X389890Y331470D03*
D32*
X389319Y331470D01*
X384239Y336550D01*
X361950Y336550D01*
X234950Y553720D02*
X227330Y553720D01*
X217170Y543560D01*
X217170Y495736D01*
X234116Y478790D01*
D31*
X269240Y473710D03*
D32*
X268669Y473710D01*
X263589Y478790D01*
X234116Y478790D01*
X357900Y354330D02*
X357900Y340600D01*
X361950Y336550D01*
D38*
X347980Y95250D03*
D37*
X347980Y110490D01*
X401320Y110490D02*
X401320Y93980D01*
X396240Y88900D01*
X365760Y88900D01*
X355600Y78740D01*
X355600Y64770D01*
X425450Y93980D02*
X425450Y110490D01*
X430530Y88900D02*
X459740Y88900D01*
X469900Y78740D01*
X469900Y64770D01*
X430530Y88900D02*
X425450Y93980D01*
D38*
X478790Y95250D03*
D37*
X478790Y110490D01*
D43*
X0Y0D02*
X596900Y0D01*
X596900Y685800D01*
X0Y685800D01*
X0Y0D01*
M02*
