G04 EAGLE Gerber RS-274X export*
G75*
%MOMM*%
%FSLAX34Y34*%
%LPD*%
%INBottom Copper*%
%IPPOS*%
%AMOC8*
5,1,8,0,0,1.08239X$1,22.5*%
G01*
%ADD10C,1.650000*%
%ADD11C,2.400000*%
%ADD12C,2.250000*%
%ADD13C,0.806400*%
%ADD14C,1.006400*%
%ADD15C,0.304800*%
%ADD16C,1.106400*%
%ADD17C,1.016000*%
%ADD18C,2.032000*%
%ADD19C,0.508000*%
%ADD20C,0.812800*%
%ADD21C,0.254000*%

G36*
X595748Y16D02*
X595748Y16D01*
X595867Y23D01*
X595905Y36D01*
X595946Y41D01*
X596056Y84D01*
X596169Y121D01*
X596204Y143D01*
X596241Y158D01*
X596337Y228D01*
X596438Y291D01*
X596466Y321D01*
X596499Y344D01*
X596575Y436D01*
X596656Y523D01*
X596676Y558D01*
X596701Y589D01*
X596752Y697D01*
X596810Y801D01*
X596820Y841D01*
X596837Y877D01*
X596859Y994D01*
X596889Y1109D01*
X596893Y1170D01*
X596897Y1190D01*
X596895Y1210D01*
X596899Y1270D01*
X596899Y684530D01*
X596884Y684648D01*
X596877Y684767D01*
X596864Y684805D01*
X596859Y684846D01*
X596816Y684956D01*
X596779Y685069D01*
X596757Y685104D01*
X596742Y685141D01*
X596673Y685237D01*
X596609Y685338D01*
X596579Y685366D01*
X596556Y685399D01*
X596464Y685475D01*
X596377Y685556D01*
X596342Y685576D01*
X596311Y685601D01*
X596203Y685652D01*
X596099Y685710D01*
X596059Y685720D01*
X596023Y685737D01*
X595906Y685759D01*
X595791Y685789D01*
X595731Y685793D01*
X595711Y685797D01*
X595690Y685795D01*
X595630Y685799D01*
X1270Y685799D01*
X1152Y685784D01*
X1033Y685777D01*
X995Y685764D01*
X954Y685759D01*
X844Y685716D01*
X731Y685679D01*
X696Y685657D01*
X659Y685642D01*
X563Y685573D01*
X462Y685509D01*
X434Y685479D01*
X401Y685456D01*
X326Y685364D01*
X244Y685277D01*
X224Y685242D01*
X199Y685211D01*
X148Y685103D01*
X90Y684999D01*
X80Y684959D01*
X63Y684923D01*
X41Y684806D01*
X11Y684691D01*
X7Y684631D01*
X3Y684611D01*
X5Y684590D01*
X1Y684530D01*
X1Y1270D01*
X16Y1152D01*
X23Y1033D01*
X36Y995D01*
X41Y954D01*
X84Y844D01*
X121Y731D01*
X143Y696D01*
X158Y659D01*
X228Y563D01*
X291Y462D01*
X321Y434D01*
X344Y401D01*
X436Y326D01*
X523Y244D01*
X558Y224D01*
X589Y199D01*
X697Y148D01*
X801Y90D01*
X841Y80D01*
X877Y63D01*
X994Y41D01*
X1109Y11D01*
X1170Y7D01*
X1190Y3D01*
X1210Y5D01*
X1270Y1D01*
X595630Y1D01*
X595748Y16D01*
G37*
%LPC*%
G36*
X388684Y325405D02*
X388684Y325405D01*
X386455Y326329D01*
X384749Y328035D01*
X383825Y330264D01*
X383825Y331408D01*
X383813Y331506D01*
X383810Y331605D01*
X383793Y331663D01*
X383785Y331723D01*
X383749Y331816D01*
X383721Y331911D01*
X383691Y331963D01*
X383668Y332019D01*
X383610Y332099D01*
X383560Y332185D01*
X383494Y332260D01*
X383482Y332277D01*
X383472Y332284D01*
X383454Y332305D01*
X378713Y337046D01*
X378713Y339496D01*
X378701Y339594D01*
X378698Y339693D01*
X378681Y339751D01*
X378673Y339811D01*
X378637Y339903D01*
X378609Y339998D01*
X378579Y340051D01*
X378556Y340107D01*
X378498Y340187D01*
X378448Y340272D01*
X378382Y340348D01*
X378370Y340364D01*
X378360Y340372D01*
X378342Y340393D01*
X373633Y345101D01*
X373633Y427059D01*
X384692Y438117D01*
X384752Y438195D01*
X384820Y438267D01*
X384849Y438320D01*
X384886Y438368D01*
X384926Y438459D01*
X384974Y438546D01*
X384989Y438604D01*
X385013Y438660D01*
X385028Y438758D01*
X385053Y438854D01*
X385059Y438954D01*
X385063Y438974D01*
X385061Y438986D01*
X385063Y439014D01*
X385063Y454803D01*
X385051Y454901D01*
X385048Y455000D01*
X385031Y455058D01*
X385023Y455118D01*
X384987Y455210D01*
X384959Y455305D01*
X384929Y455357D01*
X384906Y455414D01*
X384848Y455494D01*
X384798Y455579D01*
X384732Y455655D01*
X384720Y455671D01*
X384710Y455679D01*
X384692Y455700D01*
X378230Y462162D01*
X378152Y462222D01*
X378080Y462290D01*
X378027Y462319D01*
X377979Y462356D01*
X377888Y462396D01*
X377801Y462444D01*
X377743Y462459D01*
X377687Y462483D01*
X377589Y462498D01*
X377493Y462523D01*
X377393Y462529D01*
X377373Y462533D01*
X377361Y462531D01*
X377333Y462533D01*
X351188Y462533D01*
X348733Y464988D01*
X348733Y464989D01*
X342638Y471084D01*
X342560Y471144D01*
X342488Y471212D01*
X342435Y471241D01*
X342387Y471278D01*
X342296Y471318D01*
X342209Y471366D01*
X342151Y471381D01*
X342095Y471405D01*
X341997Y471420D01*
X341901Y471445D01*
X341801Y471451D01*
X341781Y471455D01*
X341769Y471453D01*
X341741Y471455D01*
X316731Y471455D01*
X314276Y473911D01*
X313325Y474861D01*
X313247Y474922D01*
X313174Y474990D01*
X313121Y475019D01*
X313073Y475056D01*
X312983Y475096D01*
X312896Y475144D01*
X312837Y475159D01*
X312782Y475183D01*
X312684Y475198D01*
X312588Y475223D01*
X312488Y475229D01*
X312468Y475233D01*
X312455Y475231D01*
X312427Y475233D01*
X276890Y475233D01*
X276792Y475221D01*
X276693Y475218D01*
X276635Y475201D01*
X276575Y475193D01*
X276482Y475157D01*
X276387Y475129D01*
X276335Y475099D01*
X276279Y475076D01*
X276199Y475018D01*
X276113Y474968D01*
X276038Y474902D01*
X276021Y474890D01*
X276014Y474880D01*
X275993Y474862D01*
X275676Y474545D01*
X275616Y474467D01*
X275548Y474395D01*
X275519Y474342D01*
X275482Y474294D01*
X275442Y474203D01*
X275394Y474117D01*
X275379Y474058D01*
X275355Y474002D01*
X275340Y473904D01*
X275315Y473809D01*
X275309Y473709D01*
X275305Y473688D01*
X275307Y473676D01*
X275305Y473648D01*
X275305Y472504D01*
X274381Y470275D01*
X272675Y468569D01*
X270446Y467645D01*
X268034Y467645D01*
X265805Y468569D01*
X264099Y470275D01*
X263175Y472504D01*
X263175Y474916D01*
X264099Y477145D01*
X264846Y477892D01*
X264919Y477986D01*
X264997Y478076D01*
X265016Y478112D01*
X265041Y478144D01*
X265088Y478253D01*
X265142Y478359D01*
X265151Y478398D01*
X265167Y478436D01*
X265186Y478553D01*
X265212Y478669D01*
X265210Y478710D01*
X265217Y478750D01*
X265206Y478868D01*
X265202Y478987D01*
X265191Y479026D01*
X265187Y479066D01*
X265147Y479179D01*
X265114Y479293D01*
X265093Y479327D01*
X265079Y479366D01*
X265013Y479464D01*
X264952Y479567D01*
X264912Y479612D01*
X264901Y479629D01*
X264886Y479642D01*
X264846Y479687D01*
X264099Y480435D01*
X263175Y482664D01*
X263175Y485076D01*
X264099Y487305D01*
X265805Y489011D01*
X268034Y489935D01*
X270446Y489935D01*
X272675Y489011D01*
X273888Y487798D01*
X273967Y487738D01*
X274039Y487670D01*
X274092Y487641D01*
X274140Y487604D01*
X274231Y487564D01*
X274317Y487516D01*
X274376Y487501D01*
X274431Y487477D01*
X274529Y487462D01*
X274625Y487437D01*
X274725Y487431D01*
X274746Y487427D01*
X274758Y487429D01*
X274786Y487427D01*
X304008Y487427D01*
X304146Y487444D01*
X304284Y487457D01*
X304303Y487464D01*
X304324Y487467D01*
X304453Y487518D01*
X304584Y487565D01*
X304600Y487576D01*
X304619Y487584D01*
X304732Y487665D01*
X304847Y487743D01*
X304860Y487759D01*
X304877Y487770D01*
X304965Y487878D01*
X305057Y487982D01*
X305066Y488000D01*
X305079Y488015D01*
X305139Y488141D01*
X305202Y488265D01*
X305206Y488285D01*
X305215Y488303D01*
X305241Y488439D01*
X305272Y488575D01*
X305271Y488596D01*
X305275Y488615D01*
X305266Y488754D01*
X305262Y488893D01*
X305256Y488913D01*
X305255Y488933D01*
X305212Y489065D01*
X305173Y489199D01*
X305163Y489216D01*
X305157Y489235D01*
X305083Y489353D01*
X305012Y489473D01*
X304993Y489494D01*
X304987Y489504D01*
X304972Y489518D01*
X304906Y489593D01*
X300200Y494299D01*
X300106Y494372D01*
X300017Y494450D01*
X299981Y494469D01*
X299949Y494494D01*
X299840Y494541D01*
X299734Y494595D01*
X299694Y494604D01*
X299657Y494620D01*
X299540Y494639D01*
X299424Y494665D01*
X299383Y494663D01*
X299343Y494670D01*
X299225Y494659D01*
X299106Y494655D01*
X299067Y494644D01*
X299027Y494640D01*
X298914Y494600D01*
X298800Y494567D01*
X298765Y494546D01*
X298727Y494532D01*
X298629Y494465D01*
X298526Y494405D01*
X298481Y494365D01*
X298464Y494354D01*
X298451Y494338D01*
X298405Y494299D01*
X298075Y493969D01*
X295846Y493045D01*
X293434Y493045D01*
X291205Y493969D01*
X289499Y495675D01*
X288575Y497904D01*
X288575Y500316D01*
X289499Y502545D01*
X291205Y504251D01*
X292769Y504899D01*
X292812Y504924D01*
X292859Y504941D01*
X292950Y505002D01*
X293045Y505057D01*
X293081Y505092D01*
X293122Y505119D01*
X293194Y505202D01*
X293273Y505278D01*
X293300Y505321D01*
X293332Y505358D01*
X293382Y505456D01*
X293440Y505549D01*
X293454Y505597D01*
X293477Y505641D01*
X293501Y505748D01*
X293533Y505853D01*
X293536Y505903D01*
X293547Y505951D01*
X293543Y506061D01*
X293548Y506171D01*
X293538Y506219D01*
X293537Y506269D01*
X293506Y506375D01*
X293484Y506482D01*
X293462Y506527D01*
X293449Y506575D01*
X293393Y506669D01*
X293344Y506768D01*
X293312Y506806D01*
X293287Y506849D01*
X293181Y506969D01*
X287273Y512877D01*
X287273Y539592D01*
X287261Y539690D01*
X287258Y539789D01*
X287241Y539848D01*
X287233Y539908D01*
X287197Y540000D01*
X287169Y540095D01*
X287139Y540147D01*
X287116Y540203D01*
X287058Y540283D01*
X287008Y540369D01*
X286942Y540444D01*
X286930Y540461D01*
X286920Y540468D01*
X286902Y540490D01*
X285188Y542204D01*
X285109Y542264D01*
X285037Y542332D01*
X284984Y542361D01*
X284936Y542398D01*
X284845Y542438D01*
X284759Y542486D01*
X284700Y542501D01*
X284644Y542525D01*
X284546Y542540D01*
X284451Y542565D01*
X284351Y542571D01*
X284330Y542575D01*
X284318Y542573D01*
X284290Y542575D01*
X282004Y542575D01*
X279775Y543499D01*
X278069Y545205D01*
X277145Y547434D01*
X277145Y549846D01*
X277588Y550916D01*
X277602Y550964D01*
X277623Y551009D01*
X277643Y551117D01*
X277672Y551223D01*
X277673Y551273D01*
X277683Y551322D01*
X277676Y551431D01*
X277677Y551541D01*
X277666Y551589D01*
X277663Y551639D01*
X277629Y551743D01*
X277603Y551850D01*
X277580Y551894D01*
X277565Y551941D01*
X277506Y552034D01*
X277455Y552131D01*
X277421Y552168D01*
X277395Y552210D01*
X277315Y552285D01*
X277241Y552367D01*
X277199Y552394D01*
X277163Y552428D01*
X277067Y552481D01*
X276975Y552541D01*
X276928Y552558D01*
X276884Y552582D01*
X276778Y552609D01*
X276674Y552645D01*
X276625Y552649D01*
X276577Y552661D01*
X276416Y552671D01*
X271894Y552671D01*
X271864Y552668D01*
X271835Y552670D01*
X271707Y552648D01*
X271578Y552631D01*
X271551Y552621D01*
X271522Y552616D01*
X271403Y552562D01*
X271282Y552514D01*
X271259Y552497D01*
X271232Y552485D01*
X271130Y552404D01*
X271025Y552328D01*
X271006Y552305D01*
X270983Y552286D01*
X270905Y552183D01*
X270822Y552083D01*
X270810Y552056D01*
X270792Y552032D01*
X270721Y551888D01*
X269067Y547895D01*
X266175Y545003D01*
X262395Y543437D01*
X258305Y543437D01*
X254525Y545003D01*
X251633Y547895D01*
X250067Y551675D01*
X250067Y555765D01*
X251633Y559545D01*
X254525Y562437D01*
X258305Y564003D01*
X262395Y564003D01*
X266175Y562437D01*
X268455Y560156D01*
X268534Y560096D01*
X268606Y560028D01*
X268659Y559999D01*
X268707Y559962D01*
X268798Y559922D01*
X268884Y559874D01*
X268943Y559859D01*
X268999Y559835D01*
X269097Y559820D01*
X269192Y559795D01*
X269292Y559789D01*
X269313Y559785D01*
X269325Y559787D01*
X269353Y559785D01*
X271591Y559785D01*
X271729Y559802D01*
X271867Y559815D01*
X271887Y559822D01*
X271907Y559825D01*
X272036Y559876D01*
X272167Y559923D01*
X272184Y559934D01*
X272202Y559942D01*
X272314Y560023D01*
X272430Y560101D01*
X272443Y560117D01*
X272460Y560128D01*
X272548Y560236D01*
X272640Y560340D01*
X272650Y560358D01*
X272662Y560373D01*
X272722Y560499D01*
X272785Y560623D01*
X272789Y560643D01*
X272798Y560661D01*
X272824Y560797D01*
X272855Y560933D01*
X272854Y560954D01*
X272858Y560973D01*
X272849Y561112D01*
X272845Y561251D01*
X272839Y561271D01*
X272838Y561291D01*
X272795Y561423D01*
X272757Y561557D01*
X272746Y561574D01*
X272740Y561593D01*
X272665Y561711D01*
X272595Y561831D01*
X272576Y561852D01*
X272570Y561862D01*
X272555Y561876D01*
X272489Y561951D01*
X265263Y569177D01*
X265240Y569195D01*
X265221Y569218D01*
X265115Y569292D01*
X265012Y569372D01*
X264985Y569384D01*
X264960Y569401D01*
X264839Y569447D01*
X264720Y569498D01*
X264691Y569503D01*
X264663Y569513D01*
X264534Y569528D01*
X264406Y569548D01*
X264376Y569545D01*
X264347Y569549D01*
X264219Y569531D01*
X264089Y569518D01*
X264061Y569508D01*
X264032Y569504D01*
X263880Y569452D01*
X262395Y568837D01*
X258305Y568837D01*
X254525Y570403D01*
X251633Y573295D01*
X250067Y577075D01*
X250067Y581165D01*
X251633Y584945D01*
X254525Y587837D01*
X258305Y589403D01*
X262395Y589403D01*
X266175Y587837D01*
X269067Y584945D01*
X270633Y581165D01*
X270633Y577075D01*
X270018Y575590D01*
X270010Y575562D01*
X269997Y575535D01*
X269968Y575409D01*
X269934Y575283D01*
X269933Y575254D01*
X269927Y575225D01*
X269931Y575095D01*
X269929Y574965D01*
X269936Y574937D01*
X269937Y574907D01*
X269973Y574783D01*
X270003Y574656D01*
X270017Y574630D01*
X270025Y574602D01*
X270091Y574490D01*
X270152Y574375D01*
X270172Y574353D01*
X270187Y574328D01*
X270293Y574207D01*
X279263Y565236D01*
X279342Y565176D01*
X279414Y565108D01*
X279467Y565079D01*
X279515Y565042D01*
X279606Y565002D01*
X279692Y564954D01*
X279751Y564939D01*
X279807Y564915D01*
X279905Y564900D01*
X280000Y564875D01*
X280100Y564869D01*
X280121Y564865D01*
X280133Y564867D01*
X280161Y564865D01*
X289931Y564865D01*
X304547Y550249D01*
X304547Y520993D01*
X304559Y520895D01*
X304562Y520796D01*
X304579Y520738D01*
X304587Y520678D01*
X304623Y520586D01*
X304651Y520491D01*
X304681Y520438D01*
X304704Y520382D01*
X304762Y520302D01*
X304812Y520217D01*
X304878Y520141D01*
X304890Y520125D01*
X304900Y520117D01*
X304918Y520096D01*
X305498Y519516D01*
X305576Y519456D01*
X305648Y519388D01*
X305701Y519359D01*
X305749Y519322D01*
X305840Y519282D01*
X305927Y519234D01*
X305985Y519219D01*
X306041Y519195D01*
X306139Y519180D01*
X306235Y519155D01*
X306335Y519149D01*
X306355Y519145D01*
X306367Y519147D01*
X306395Y519145D01*
X329999Y519145D01*
X339788Y509356D01*
X339866Y509296D01*
X339938Y509228D01*
X339991Y509199D01*
X340039Y509162D01*
X340130Y509122D01*
X340217Y509074D01*
X340275Y509059D01*
X340331Y509035D01*
X340429Y509020D01*
X340525Y508995D01*
X340625Y508989D01*
X340645Y508985D01*
X340657Y508987D01*
X340685Y508985D01*
X349185Y508985D01*
X357703Y500466D01*
X357781Y500406D01*
X357853Y500338D01*
X357906Y500309D01*
X357954Y500272D01*
X358045Y500232D01*
X358132Y500184D01*
X358190Y500169D01*
X358246Y500145D01*
X358344Y500130D01*
X358440Y500105D01*
X358540Y500099D01*
X358560Y500095D01*
X358573Y500097D01*
X358601Y500095D01*
X425249Y500095D01*
X431228Y494116D01*
X431306Y494056D01*
X431378Y493988D01*
X431431Y493959D01*
X431479Y493922D01*
X431570Y493882D01*
X431657Y493834D01*
X431715Y493819D01*
X431771Y493795D01*
X431869Y493780D01*
X431965Y493755D01*
X432065Y493749D01*
X432085Y493745D01*
X432097Y493747D01*
X432125Y493745D01*
X433006Y493745D01*
X435235Y492821D01*
X436941Y491115D01*
X437865Y488886D01*
X437865Y486474D01*
X436941Y484245D01*
X435235Y482539D01*
X434165Y482095D01*
X434122Y482071D01*
X434076Y482054D01*
X433985Y481992D01*
X433889Y481938D01*
X433853Y481903D01*
X433812Y481875D01*
X433740Y481793D01*
X433661Y481717D01*
X433635Y481674D01*
X433602Y481637D01*
X433552Y481539D01*
X433495Y481445D01*
X433480Y481398D01*
X433457Y481354D01*
X433433Y481247D01*
X433401Y481141D01*
X433399Y481092D01*
X433388Y481043D01*
X433391Y480933D01*
X433386Y480824D01*
X433396Y480775D01*
X433397Y480725D01*
X433428Y480620D01*
X433450Y480512D01*
X433472Y480468D01*
X433486Y480420D01*
X433541Y480326D01*
X433590Y480227D01*
X433622Y480189D01*
X433647Y480146D01*
X433754Y480025D01*
X435357Y478422D01*
X435357Y477986D01*
X435369Y477888D01*
X435372Y477789D01*
X435389Y477730D01*
X435397Y477670D01*
X435433Y477578D01*
X435461Y477483D01*
X435491Y477431D01*
X435514Y477375D01*
X435572Y477294D01*
X435622Y477209D01*
X435688Y477134D01*
X435700Y477117D01*
X435710Y477109D01*
X435728Y477088D01*
X436941Y475875D01*
X437865Y473646D01*
X437865Y471234D01*
X436941Y469005D01*
X435235Y467299D01*
X433006Y466375D01*
X430594Y466375D01*
X428365Y467299D01*
X426659Y469005D01*
X425735Y471234D01*
X425735Y473646D01*
X426681Y475930D01*
X426689Y475958D01*
X426702Y475985D01*
X426731Y476111D01*
X426765Y476237D01*
X426766Y476266D01*
X426772Y476295D01*
X426768Y476425D01*
X426770Y476555D01*
X426763Y476583D01*
X426762Y476613D01*
X426726Y476737D01*
X426696Y476864D01*
X426682Y476890D01*
X426674Y476918D01*
X426608Y477030D01*
X426547Y477145D01*
X426527Y477167D01*
X426512Y477192D01*
X426406Y477313D01*
X423111Y480608D01*
X420655Y483064D01*
X420655Y486632D01*
X420640Y486750D01*
X420633Y486869D01*
X420620Y486907D01*
X420615Y486948D01*
X420572Y487058D01*
X420535Y487171D01*
X420513Y487206D01*
X420498Y487243D01*
X420429Y487339D01*
X420365Y487440D01*
X420335Y487468D01*
X420312Y487501D01*
X420220Y487577D01*
X420133Y487658D01*
X420098Y487678D01*
X420067Y487703D01*
X419959Y487754D01*
X419855Y487812D01*
X419815Y487822D01*
X419779Y487839D01*
X419662Y487861D01*
X419547Y487891D01*
X419487Y487895D01*
X419467Y487899D01*
X419446Y487897D01*
X419386Y487901D01*
X353313Y487901D01*
X353175Y487884D01*
X353037Y487871D01*
X353017Y487864D01*
X352997Y487861D01*
X352868Y487810D01*
X352737Y487763D01*
X352720Y487752D01*
X352702Y487744D01*
X352589Y487663D01*
X352474Y487585D01*
X352461Y487569D01*
X352444Y487558D01*
X352356Y487450D01*
X352264Y487346D01*
X352254Y487328D01*
X352242Y487313D01*
X352182Y487187D01*
X352119Y487063D01*
X352115Y487043D01*
X352106Y487025D01*
X352080Y486889D01*
X352049Y486753D01*
X352050Y486732D01*
X352046Y486713D01*
X352055Y486574D01*
X352059Y486435D01*
X352065Y486415D01*
X352066Y486395D01*
X352109Y486263D01*
X352147Y486129D01*
X352158Y486112D01*
X352164Y486093D01*
X352239Y485975D01*
X352309Y485855D01*
X352328Y485834D01*
X352334Y485824D01*
X352349Y485810D01*
X352415Y485735D01*
X357971Y480178D01*
X358050Y480118D01*
X358122Y480050D01*
X358175Y480021D01*
X358223Y479984D01*
X358314Y479944D01*
X358400Y479896D01*
X358459Y479881D01*
X358515Y479857D01*
X358613Y479842D01*
X358708Y479817D01*
X358808Y479811D01*
X358829Y479807D01*
X358841Y479809D01*
X358869Y479807D01*
X385013Y479807D01*
X402337Y462483D01*
X402337Y448951D01*
X402340Y448922D01*
X402338Y448893D01*
X402360Y448764D01*
X402377Y448636D01*
X402387Y448608D01*
X402392Y448579D01*
X402446Y448461D01*
X402494Y448340D01*
X402511Y448316D01*
X402523Y448289D01*
X402604Y448188D01*
X402680Y448083D01*
X402703Y448064D01*
X402722Y448041D01*
X402825Y447963D01*
X402925Y447880D01*
X402952Y447867D01*
X402976Y447850D01*
X403120Y447779D01*
X404755Y447101D01*
X406461Y445395D01*
X407385Y443166D01*
X407385Y440754D01*
X406461Y438525D01*
X404755Y436819D01*
X402526Y435895D01*
X400114Y435895D01*
X399012Y436352D01*
X398964Y436365D01*
X398919Y436386D01*
X398811Y436407D01*
X398705Y436436D01*
X398655Y436436D01*
X398606Y436446D01*
X398497Y436439D01*
X398387Y436441D01*
X398339Y436429D01*
X398289Y436426D01*
X398185Y436392D01*
X398078Y436367D01*
X398034Y436343D01*
X397987Y436328D01*
X397894Y436269D01*
X397797Y436218D01*
X397760Y436184D01*
X397718Y436158D01*
X397643Y436078D01*
X397561Y436004D01*
X397534Y435962D01*
X397500Y435926D01*
X397447Y435830D01*
X397387Y435738D01*
X397370Y435691D01*
X397346Y435648D01*
X397319Y435541D01*
X397283Y435437D01*
X397279Y435388D01*
X397267Y435340D01*
X397257Y435179D01*
X397257Y433438D01*
X386198Y422380D01*
X386138Y422301D01*
X386070Y422229D01*
X386041Y422176D01*
X386004Y422128D01*
X385964Y422037D01*
X385916Y421951D01*
X385901Y421892D01*
X385877Y421836D01*
X385862Y421738D01*
X385837Y421643D01*
X385831Y421543D01*
X385827Y421522D01*
X385829Y421510D01*
X385827Y421482D01*
X385827Y350678D01*
X385839Y350580D01*
X385842Y350481D01*
X385859Y350422D01*
X385867Y350362D01*
X385903Y350270D01*
X385931Y350175D01*
X385961Y350123D01*
X385984Y350067D01*
X386042Y349987D01*
X386092Y349901D01*
X386158Y349826D01*
X386170Y349809D01*
X386180Y349802D01*
X386198Y349780D01*
X387912Y348066D01*
X387991Y348006D01*
X388063Y347938D01*
X388116Y347909D01*
X388164Y347872D01*
X388255Y347832D01*
X388341Y347784D01*
X388400Y347769D01*
X388456Y347745D01*
X388554Y347730D01*
X388649Y347705D01*
X388749Y347699D01*
X388770Y347695D01*
X388782Y347697D01*
X388810Y347695D01*
X391096Y347695D01*
X393325Y346771D01*
X395031Y345065D01*
X395955Y342836D01*
X395955Y340424D01*
X395031Y338195D01*
X394284Y337448D01*
X394211Y337354D01*
X394133Y337264D01*
X394114Y337228D01*
X394089Y337196D01*
X394042Y337087D01*
X393988Y336981D01*
X393979Y336942D01*
X393963Y336904D01*
X393944Y336787D01*
X393918Y336671D01*
X393920Y336630D01*
X393913Y336590D01*
X393924Y336472D01*
X393928Y336353D01*
X393939Y336314D01*
X393943Y336274D01*
X393983Y336161D01*
X394016Y336047D01*
X394037Y336013D01*
X394051Y335974D01*
X394117Y335876D01*
X394178Y335773D01*
X394218Y335728D01*
X394229Y335711D01*
X394244Y335698D01*
X394284Y335653D01*
X395031Y334905D01*
X395955Y332676D01*
X395955Y330264D01*
X395031Y328035D01*
X393325Y326329D01*
X391096Y325405D01*
X388684Y325405D01*
G37*
%LPD*%
%LPC*%
G36*
X136005Y344677D02*
X136005Y344677D01*
X131523Y346533D01*
X128093Y349963D01*
X126237Y354445D01*
X126237Y366534D01*
X126225Y366632D01*
X126222Y366731D01*
X126205Y366789D01*
X126197Y366849D01*
X126161Y366941D01*
X126133Y367037D01*
X126103Y367089D01*
X126080Y367145D01*
X126022Y367225D01*
X125972Y367311D01*
X125906Y367386D01*
X125894Y367402D01*
X125884Y367410D01*
X125866Y367431D01*
X109043Y384253D01*
X107187Y388735D01*
X107187Y462165D01*
X109043Y466647D01*
X111653Y469257D01*
X111739Y469366D01*
X111827Y469473D01*
X111836Y469492D01*
X111848Y469508D01*
X111904Y469636D01*
X111963Y469761D01*
X111967Y469781D01*
X111975Y469800D01*
X111997Y469938D01*
X112023Y470074D01*
X112021Y470094D01*
X112025Y470114D01*
X112011Y470253D01*
X112003Y470391D01*
X111997Y470410D01*
X111995Y470430D01*
X111948Y470561D01*
X111905Y470693D01*
X111894Y470711D01*
X111887Y470730D01*
X111809Y470844D01*
X111735Y470962D01*
X111720Y470976D01*
X111709Y470993D01*
X111604Y471085D01*
X111503Y471180D01*
X111485Y471190D01*
X111470Y471203D01*
X111346Y471267D01*
X111225Y471334D01*
X111205Y471339D01*
X111187Y471348D01*
X111051Y471378D01*
X110917Y471413D01*
X110889Y471415D01*
X110877Y471418D01*
X110856Y471417D01*
X110756Y471423D01*
X100387Y471423D01*
X98146Y472351D01*
X96431Y474066D01*
X95503Y476307D01*
X95503Y478733D01*
X96431Y480974D01*
X98146Y482689D01*
X100387Y483617D01*
X151073Y483617D01*
X153314Y482689D01*
X155029Y480974D01*
X155957Y478733D01*
X155957Y476307D01*
X155029Y474066D01*
X153314Y472351D01*
X151073Y471423D01*
X128004Y471423D01*
X127867Y471406D01*
X127728Y471393D01*
X127709Y471386D01*
X127689Y471383D01*
X127560Y471332D01*
X127428Y471285D01*
X127412Y471274D01*
X127393Y471266D01*
X127280Y471185D01*
X127165Y471107D01*
X127152Y471091D01*
X127136Y471080D01*
X127047Y470972D01*
X126955Y470868D01*
X126946Y470850D01*
X126933Y470835D01*
X126873Y470709D01*
X126810Y470585D01*
X126806Y470565D01*
X126797Y470547D01*
X126771Y470411D01*
X126741Y470275D01*
X126741Y470254D01*
X126737Y470235D01*
X126746Y470096D01*
X126750Y469957D01*
X126756Y469937D01*
X126757Y469917D01*
X126800Y469785D01*
X126839Y469651D01*
X126849Y469634D01*
X126855Y469615D01*
X126930Y469497D01*
X127000Y469377D01*
X127019Y469356D01*
X127025Y469346D01*
X127040Y469332D01*
X127107Y469257D01*
X129717Y466647D01*
X131573Y462165D01*
X131573Y419862D01*
X131588Y419744D01*
X131595Y419625D01*
X131608Y419587D01*
X131613Y419546D01*
X131656Y419436D01*
X131693Y419323D01*
X131715Y419288D01*
X131730Y419251D01*
X131799Y419155D01*
X131863Y419054D01*
X131893Y419026D01*
X131916Y418993D01*
X132008Y418917D01*
X132095Y418836D01*
X132130Y418816D01*
X132161Y418791D01*
X132269Y418740D01*
X132373Y418682D01*
X132413Y418672D01*
X132449Y418655D01*
X132566Y418633D01*
X132681Y418603D01*
X132741Y418599D01*
X132761Y418595D01*
X132782Y418597D01*
X132842Y418593D01*
X151275Y418593D01*
X153889Y417510D01*
X155890Y415509D01*
X156973Y412895D01*
X156973Y410065D01*
X155890Y407451D01*
X153889Y405450D01*
X152497Y404874D01*
X152454Y404849D01*
X152407Y404832D01*
X152316Y404771D01*
X152221Y404716D01*
X152185Y404681D01*
X152144Y404654D01*
X152071Y404571D01*
X151993Y404495D01*
X151967Y404452D01*
X151934Y404415D01*
X151884Y404317D01*
X151826Y404224D01*
X151812Y404176D01*
X151789Y404132D01*
X151765Y404025D01*
X151733Y403920D01*
X151730Y403870D01*
X151719Y403822D01*
X151723Y403712D01*
X151717Y403602D01*
X151728Y403553D01*
X151729Y403504D01*
X151760Y403398D01*
X151782Y403291D01*
X151804Y403246D01*
X151817Y403198D01*
X151873Y403104D01*
X151922Y403005D01*
X151954Y402967D01*
X151979Y402924D01*
X152079Y402810D01*
X153163Y400195D01*
X153163Y393658D01*
X153175Y393560D01*
X153178Y393461D01*
X153195Y393403D01*
X153203Y393343D01*
X153239Y393251D01*
X153267Y393156D01*
X153297Y393103D01*
X153320Y393047D01*
X153378Y392967D01*
X153428Y392882D01*
X153494Y392806D01*
X153506Y392790D01*
X153516Y392782D01*
X153534Y392761D01*
X163002Y383293D01*
X164085Y380679D01*
X164085Y373734D01*
X164086Y373724D01*
X164085Y373715D01*
X164106Y373566D01*
X164125Y373418D01*
X164128Y373409D01*
X164129Y373400D01*
X164181Y373248D01*
X164593Y372255D01*
X164593Y369425D01*
X163510Y366811D01*
X161509Y364810D01*
X158895Y363727D01*
X156065Y363727D01*
X153451Y364810D01*
X152789Y365472D01*
X152680Y365557D01*
X152573Y365646D01*
X152554Y365654D01*
X152538Y365667D01*
X152410Y365722D01*
X152285Y365781D01*
X152265Y365785D01*
X152246Y365793D01*
X152108Y365815D01*
X151972Y365841D01*
X151952Y365840D01*
X151932Y365843D01*
X151793Y365830D01*
X151655Y365821D01*
X151636Y365815D01*
X151616Y365813D01*
X151485Y365766D01*
X151353Y365723D01*
X151335Y365712D01*
X151316Y365705D01*
X151202Y365627D01*
X151084Y365553D01*
X151070Y365538D01*
X151053Y365527D01*
X150961Y365423D01*
X150866Y365321D01*
X150856Y365303D01*
X150843Y365288D01*
X150780Y365165D01*
X150712Y365043D01*
X150707Y365023D01*
X150698Y365005D01*
X150668Y364869D01*
X150633Y364735D01*
X150631Y364707D01*
X150628Y364695D01*
X150629Y364674D01*
X150623Y364574D01*
X150623Y354445D01*
X148767Y349963D01*
X145337Y346533D01*
X140855Y344677D01*
X136005Y344677D01*
G37*
%LPD*%
%LPC*%
G36*
X418149Y230663D02*
X418149Y230663D01*
X415535Y231746D01*
X412709Y234572D01*
X412657Y234624D01*
X412650Y234630D01*
X412644Y234637D01*
X412524Y234727D01*
X412406Y234819D01*
X412397Y234823D01*
X412390Y234828D01*
X412279Y234883D01*
X410147Y237015D01*
X408995Y239795D01*
X408995Y242805D01*
X410147Y245585D01*
X411608Y247047D01*
X411682Y247141D01*
X411760Y247230D01*
X411779Y247266D01*
X411803Y247298D01*
X411851Y247407D01*
X411905Y247513D01*
X411914Y247553D01*
X411930Y247590D01*
X411948Y247707D01*
X411974Y247823D01*
X411973Y247864D01*
X411980Y247904D01*
X411968Y248022D01*
X411965Y248141D01*
X411954Y248180D01*
X411950Y248220D01*
X411909Y248333D01*
X411876Y248447D01*
X411856Y248482D01*
X411842Y248520D01*
X411775Y248618D01*
X411715Y248721D01*
X411675Y248766D01*
X411664Y248783D01*
X411648Y248796D01*
X411608Y248842D01*
X405383Y255067D01*
X405383Y261154D01*
X405371Y261252D01*
X405368Y261351D01*
X405351Y261410D01*
X405343Y261470D01*
X405307Y261562D01*
X405279Y261657D01*
X405249Y261709D01*
X405226Y261765D01*
X405168Y261845D01*
X405118Y261931D01*
X405052Y262006D01*
X405040Y262023D01*
X405030Y262031D01*
X405012Y262052D01*
X404292Y262772D01*
X404213Y262832D01*
X404141Y262900D01*
X404088Y262929D01*
X404040Y262966D01*
X403949Y263006D01*
X403863Y263054D01*
X403804Y263069D01*
X403749Y263093D01*
X403651Y263108D01*
X403555Y263133D01*
X403455Y263139D01*
X403434Y263143D01*
X403422Y263141D01*
X403394Y263143D01*
X399246Y263143D01*
X399148Y263131D01*
X399049Y263128D01*
X398990Y263111D01*
X398930Y263103D01*
X398838Y263067D01*
X398743Y263039D01*
X398691Y263009D01*
X398635Y262986D01*
X398554Y262928D01*
X398469Y262878D01*
X398394Y262812D01*
X398377Y262800D01*
X398369Y262790D01*
X398348Y262772D01*
X397135Y261559D01*
X394906Y260635D01*
X392494Y260635D01*
X391392Y261092D01*
X391344Y261105D01*
X391299Y261126D01*
X391191Y261147D01*
X391085Y261176D01*
X391035Y261176D01*
X390986Y261186D01*
X390877Y261179D01*
X390767Y261181D01*
X390719Y261169D01*
X390669Y261166D01*
X390565Y261132D01*
X390458Y261107D01*
X390414Y261083D01*
X390367Y261068D01*
X390274Y261009D01*
X390177Y260958D01*
X390140Y260924D01*
X390098Y260898D01*
X390023Y260818D01*
X389941Y260744D01*
X389914Y260702D01*
X389880Y260666D01*
X389827Y260570D01*
X389767Y260478D01*
X389750Y260431D01*
X389726Y260388D01*
X389699Y260281D01*
X389663Y260177D01*
X389659Y260128D01*
X389647Y260080D01*
X389637Y259919D01*
X389637Y258741D01*
X378710Y247815D01*
X378661Y247797D01*
X378645Y247786D01*
X378626Y247778D01*
X378513Y247697D01*
X378398Y247619D01*
X378385Y247603D01*
X378369Y247592D01*
X378280Y247484D01*
X378188Y247380D01*
X378179Y247362D01*
X378166Y247347D01*
X378107Y247221D01*
X378043Y247097D01*
X378039Y247077D01*
X378030Y247059D01*
X378004Y246923D01*
X377974Y246787D01*
X377974Y246766D01*
X377970Y246747D01*
X377979Y246608D01*
X377983Y246469D01*
X377989Y246449D01*
X377990Y246429D01*
X378033Y246297D01*
X378072Y246163D01*
X378082Y246146D01*
X378088Y246127D01*
X378163Y246009D01*
X378233Y245889D01*
X378252Y245868D01*
X378258Y245858D01*
X378273Y245844D01*
X378340Y245768D01*
X378523Y245585D01*
X379675Y242805D01*
X379675Y239795D01*
X378523Y237015D01*
X376395Y234887D01*
X373615Y233735D01*
X370605Y233735D01*
X369747Y234091D01*
X369738Y234093D01*
X369730Y234098D01*
X369586Y234135D01*
X369441Y234175D01*
X369431Y234175D01*
X369422Y234177D01*
X369262Y234187D01*
X341938Y234187D01*
X341929Y234186D01*
X341920Y234187D01*
X341771Y234166D01*
X341623Y234147D01*
X341614Y234144D01*
X341605Y234143D01*
X341453Y234091D01*
X340595Y233735D01*
X337585Y233735D01*
X334805Y234887D01*
X332677Y237015D01*
X331525Y239795D01*
X331525Y242805D01*
X332677Y245585D01*
X332860Y245768D01*
X332946Y245878D01*
X333034Y245985D01*
X333043Y246004D01*
X333055Y246020D01*
X333111Y246147D01*
X333170Y246273D01*
X333174Y246293D01*
X333182Y246312D01*
X333203Y246449D01*
X333230Y246586D01*
X333228Y246606D01*
X333232Y246626D01*
X333218Y246764D01*
X333210Y246903D01*
X333204Y246922D01*
X333202Y246942D01*
X333155Y247074D01*
X333112Y247205D01*
X333101Y247222D01*
X333094Y247242D01*
X333016Y247357D01*
X332942Y247474D01*
X332927Y247488D01*
X332916Y247505D01*
X332811Y247597D01*
X332710Y247692D01*
X332692Y247702D01*
X332677Y247715D01*
X332553Y247779D01*
X332432Y247846D01*
X332412Y247851D01*
X332394Y247860D01*
X332258Y247890D01*
X332124Y247925D01*
X332096Y247927D01*
X332084Y247930D01*
X332063Y247929D01*
X331963Y247935D01*
X289325Y247935D01*
X287157Y250104D01*
X287078Y250164D01*
X287006Y250232D01*
X286953Y250261D01*
X286905Y250298D01*
X286814Y250338D01*
X286728Y250386D01*
X286669Y250401D01*
X286613Y250425D01*
X286515Y250440D01*
X286420Y250465D01*
X286320Y250471D01*
X286299Y250475D01*
X286287Y250473D01*
X286259Y250475D01*
X284544Y250475D01*
X282315Y251399D01*
X280609Y253105D01*
X279685Y255334D01*
X279685Y257746D01*
X280609Y259975D01*
X281356Y260723D01*
X281429Y260817D01*
X281507Y260906D01*
X281526Y260942D01*
X281551Y260974D01*
X281598Y261083D01*
X281652Y261189D01*
X281661Y261228D01*
X281677Y261266D01*
X281696Y261383D01*
X281722Y261499D01*
X281720Y261540D01*
X281727Y261580D01*
X281716Y261698D01*
X281712Y261817D01*
X281701Y261856D01*
X281697Y261896D01*
X281657Y262008D01*
X281624Y262123D01*
X281603Y262158D01*
X281589Y262196D01*
X281523Y262294D01*
X281462Y262397D01*
X281422Y262442D01*
X281411Y262459D01*
X281395Y262472D01*
X281356Y262518D01*
X280609Y263265D01*
X279685Y265494D01*
X279685Y267906D01*
X280609Y270135D01*
X282315Y271841D01*
X284544Y272765D01*
X286956Y272765D01*
X289185Y271841D01*
X290891Y270135D01*
X291815Y267906D01*
X291815Y266762D01*
X291827Y266664D01*
X291830Y266565D01*
X291847Y266507D01*
X291855Y266447D01*
X291891Y266354D01*
X291919Y266259D01*
X291949Y266207D01*
X291972Y266151D01*
X292030Y266071D01*
X292080Y265985D01*
X292146Y265910D01*
X292158Y265893D01*
X292168Y265886D01*
X292186Y265865D01*
X297551Y260500D01*
X297629Y260440D01*
X297701Y260372D01*
X297754Y260343D01*
X297802Y260306D01*
X297893Y260266D01*
X297979Y260218D01*
X298038Y260203D01*
X298094Y260179D01*
X298192Y260164D01*
X298287Y260139D01*
X298387Y260133D01*
X298408Y260129D01*
X298420Y260131D01*
X298448Y260129D01*
X373254Y260129D01*
X373352Y260141D01*
X373451Y260144D01*
X373510Y260161D01*
X373570Y260169D01*
X373662Y260205D01*
X373757Y260233D01*
X373809Y260263D01*
X373865Y260286D01*
X373946Y260344D01*
X374031Y260394D01*
X374106Y260460D01*
X374123Y260472D01*
X374130Y260482D01*
X374152Y260500D01*
X377040Y263388D01*
X377100Y263467D01*
X377168Y263539D01*
X377197Y263592D01*
X377234Y263640D01*
X377274Y263731D01*
X377322Y263817D01*
X377337Y263876D01*
X377361Y263932D01*
X377376Y264029D01*
X377401Y264125D01*
X377407Y264225D01*
X377411Y264246D01*
X377409Y264258D01*
X377411Y264286D01*
X377411Y270994D01*
X377433Y271078D01*
X377439Y271178D01*
X377443Y271198D01*
X377441Y271210D01*
X377443Y271239D01*
X377443Y273389D01*
X386979Y282925D01*
X462218Y282925D01*
X462316Y282937D01*
X462415Y282940D01*
X462473Y282957D01*
X462533Y282965D01*
X462626Y283001D01*
X462721Y283029D01*
X462773Y283059D01*
X462829Y283082D01*
X462909Y283140D01*
X462995Y283190D01*
X463070Y283256D01*
X463087Y283268D01*
X463094Y283278D01*
X463115Y283296D01*
X463464Y283645D01*
X463524Y283723D01*
X463592Y283795D01*
X463621Y283848D01*
X463658Y283896D01*
X463698Y283987D01*
X463746Y284073D01*
X463761Y284132D01*
X463785Y284188D01*
X463800Y284286D01*
X463825Y284381D01*
X463831Y284481D01*
X463835Y284502D01*
X463833Y284514D01*
X463835Y284542D01*
X463835Y285686D01*
X464759Y287915D01*
X466465Y289621D01*
X468694Y290545D01*
X471106Y290545D01*
X473335Y289621D01*
X475041Y287915D01*
X475965Y285686D01*
X475965Y283274D01*
X475041Y281045D01*
X474294Y280297D01*
X474221Y280203D01*
X474143Y280114D01*
X474124Y280078D01*
X474099Y280046D01*
X474052Y279937D01*
X473998Y279831D01*
X473989Y279792D01*
X473973Y279754D01*
X473954Y279637D01*
X473928Y279521D01*
X473930Y279480D01*
X473923Y279440D01*
X473934Y279322D01*
X473938Y279203D01*
X473949Y279164D01*
X473953Y279124D01*
X473993Y279012D01*
X474026Y278897D01*
X474047Y278862D01*
X474061Y278824D01*
X474127Y278726D01*
X474188Y278623D01*
X474228Y278578D01*
X474239Y278561D01*
X474255Y278548D01*
X474294Y278502D01*
X475041Y277755D01*
X475965Y275526D01*
X475965Y273114D01*
X475041Y270885D01*
X473335Y269179D01*
X471106Y268255D01*
X468694Y268255D01*
X466465Y269179D01*
X465284Y270360D01*
X465205Y270420D01*
X465133Y270488D01*
X465080Y270517D01*
X465032Y270554D01*
X464941Y270594D01*
X464855Y270642D01*
X464796Y270657D01*
X464741Y270681D01*
X464643Y270696D01*
X464547Y270721D01*
X464447Y270727D01*
X464426Y270731D01*
X464414Y270729D01*
X464386Y270731D01*
X415734Y270731D01*
X415685Y270725D01*
X415635Y270727D01*
X415528Y270705D01*
X415419Y270691D01*
X415372Y270673D01*
X415324Y270663D01*
X415225Y270615D01*
X415123Y270574D01*
X415083Y270545D01*
X415038Y270523D01*
X414955Y270452D01*
X414866Y270388D01*
X414834Y270349D01*
X414796Y270317D01*
X414733Y270227D01*
X414663Y270143D01*
X414642Y270098D01*
X414613Y270057D01*
X414574Y269954D01*
X414527Y269855D01*
X414518Y269806D01*
X414500Y269760D01*
X414488Y269650D01*
X414467Y269543D01*
X414471Y269493D01*
X414465Y269444D01*
X414480Y269335D01*
X414487Y269225D01*
X414503Y269178D01*
X414509Y269129D01*
X414562Y268976D01*
X415005Y267906D01*
X415005Y265494D01*
X414081Y263265D01*
X412868Y262052D01*
X412808Y261973D01*
X412740Y261901D01*
X412711Y261848D01*
X412674Y261800D01*
X412634Y261710D01*
X412586Y261623D01*
X412571Y261564D01*
X412547Y261509D01*
X412532Y261411D01*
X412507Y261315D01*
X412501Y261215D01*
X412497Y261194D01*
X412499Y261182D01*
X412497Y261154D01*
X412497Y258539D01*
X412509Y258441D01*
X412512Y258342D01*
X412529Y258284D01*
X412537Y258223D01*
X412573Y258131D01*
X412601Y258036D01*
X412631Y257984D01*
X412654Y257928D01*
X412712Y257848D01*
X412762Y257762D01*
X412828Y257687D01*
X412840Y257670D01*
X412850Y257663D01*
X412868Y257641D01*
X414923Y255586D01*
X415002Y255526D01*
X415074Y255458D01*
X415127Y255429D01*
X415175Y255392D01*
X415266Y255352D01*
X415352Y255304D01*
X415411Y255289D01*
X415467Y255265D01*
X415565Y255250D01*
X415660Y255225D01*
X415760Y255219D01*
X415781Y255215D01*
X415793Y255217D01*
X415821Y255215D01*
X430568Y255215D01*
X430597Y255199D01*
X430645Y255162D01*
X430736Y255122D01*
X430822Y255074D01*
X430881Y255059D01*
X430937Y255035D01*
X431035Y255020D01*
X431130Y254995D01*
X431230Y254989D01*
X431251Y254985D01*
X431263Y254987D01*
X431291Y254985D01*
X433006Y254985D01*
X435235Y254061D01*
X436941Y252355D01*
X437865Y250126D01*
X437865Y247714D01*
X437422Y246644D01*
X437408Y246596D01*
X437387Y246551D01*
X437367Y246443D01*
X437338Y246337D01*
X437337Y246287D01*
X437327Y246238D01*
X437334Y246129D01*
X437333Y246019D01*
X437344Y245971D01*
X437347Y245921D01*
X437381Y245817D01*
X437407Y245710D01*
X437430Y245666D01*
X437445Y245619D01*
X437504Y245526D01*
X437555Y245429D01*
X437589Y245392D01*
X437615Y245350D01*
X437695Y245275D01*
X437769Y245193D01*
X437811Y245166D01*
X437847Y245132D01*
X437943Y245079D01*
X438035Y245019D01*
X438082Y245002D01*
X438126Y244978D01*
X438232Y244951D01*
X438336Y244915D01*
X438385Y244911D01*
X438433Y244899D01*
X438594Y244889D01*
X442030Y244889D01*
X442060Y244892D01*
X442089Y244890D01*
X442217Y244912D01*
X442346Y244929D01*
X442373Y244939D01*
X442402Y244944D01*
X442521Y244998D01*
X442642Y245046D01*
X442666Y245063D01*
X442692Y245075D01*
X442794Y245156D01*
X442899Y245232D01*
X442918Y245255D01*
X442941Y245274D01*
X443019Y245377D01*
X443102Y245477D01*
X443114Y245504D01*
X443132Y245528D01*
X443154Y245572D01*
X445295Y247713D01*
X448075Y248865D01*
X451085Y248865D01*
X453865Y247713D01*
X455993Y245585D01*
X457145Y242805D01*
X457145Y239795D01*
X455993Y237015D01*
X453865Y234887D01*
X453007Y234532D01*
X452999Y234527D01*
X452990Y234524D01*
X452861Y234448D01*
X452731Y234374D01*
X452724Y234368D01*
X452716Y234363D01*
X452595Y234256D01*
X450085Y231746D01*
X447471Y230663D01*
X418149Y230663D01*
G37*
%LPD*%
%LPC*%
G36*
X235014Y440975D02*
X235014Y440975D01*
X232785Y441899D01*
X231572Y443112D01*
X231493Y443172D01*
X231421Y443240D01*
X231368Y443269D01*
X231320Y443306D01*
X231229Y443346D01*
X231143Y443394D01*
X231084Y443409D01*
X231029Y443433D01*
X230931Y443448D01*
X230835Y443473D01*
X230735Y443479D01*
X230714Y443483D01*
X230702Y443481D01*
X230674Y443483D01*
X211887Y443483D01*
X137297Y518074D01*
X137218Y518134D01*
X137146Y518202D01*
X137093Y518231D01*
X137045Y518268D01*
X136954Y518308D01*
X136868Y518356D01*
X136809Y518371D01*
X136753Y518395D01*
X136655Y518410D01*
X136560Y518435D01*
X136460Y518441D01*
X136439Y518445D01*
X136427Y518443D01*
X136399Y518445D01*
X134684Y518445D01*
X132455Y519369D01*
X130749Y521075D01*
X129825Y523304D01*
X129825Y525716D01*
X130749Y527945D01*
X132455Y529651D01*
X134684Y530575D01*
X137096Y530575D01*
X139325Y529651D01*
X141031Y527945D01*
X141955Y525716D01*
X141955Y524001D01*
X141967Y523903D01*
X141970Y523804D01*
X141987Y523746D01*
X141995Y523685D01*
X142031Y523593D01*
X142059Y523498D01*
X142089Y523446D01*
X142112Y523390D01*
X142170Y523310D01*
X142220Y523224D01*
X142286Y523149D01*
X142298Y523132D01*
X142308Y523125D01*
X142326Y523104D01*
X142898Y522531D01*
X143008Y522446D01*
X143115Y522358D01*
X143134Y522349D01*
X143150Y522337D01*
X143278Y522281D01*
X143403Y522222D01*
X143423Y522218D01*
X143442Y522210D01*
X143580Y522188D01*
X143716Y522162D01*
X143736Y522163D01*
X143756Y522160D01*
X143895Y522173D01*
X144033Y522182D01*
X144052Y522188D01*
X144072Y522190D01*
X144203Y522237D01*
X144335Y522280D01*
X144353Y522291D01*
X144372Y522298D01*
X144486Y522376D01*
X144604Y522450D01*
X144618Y522465D01*
X144635Y522476D01*
X144727Y522580D01*
X144822Y522682D01*
X144832Y522700D01*
X144845Y522715D01*
X144908Y522839D01*
X144976Y522960D01*
X144981Y522980D01*
X144990Y522998D01*
X145020Y523134D01*
X145055Y523268D01*
X145057Y523296D01*
X145060Y523308D01*
X145059Y523329D01*
X145065Y523429D01*
X145065Y525716D01*
X145989Y527945D01*
X147695Y529651D01*
X149924Y530575D01*
X152336Y530575D01*
X154565Y529651D01*
X156271Y527945D01*
X157195Y525716D01*
X157195Y523304D01*
X156271Y521075D01*
X155058Y519862D01*
X154998Y519783D01*
X154930Y519711D01*
X154901Y519658D01*
X154864Y519610D01*
X154824Y519520D01*
X154776Y519433D01*
X154761Y519374D01*
X154737Y519319D01*
X154722Y519221D01*
X154697Y519125D01*
X154691Y519025D01*
X154687Y519004D01*
X154689Y518992D01*
X154687Y518964D01*
X154687Y518453D01*
X154699Y518355D01*
X154702Y518256D01*
X154719Y518198D01*
X154727Y518138D01*
X154763Y518046D01*
X154791Y517951D01*
X154821Y517898D01*
X154844Y517842D01*
X154902Y517762D01*
X154952Y517677D01*
X155018Y517601D01*
X155030Y517585D01*
X155040Y517577D01*
X155058Y517556D01*
X216566Y456048D01*
X216644Y455988D01*
X216716Y455920D01*
X216769Y455891D01*
X216817Y455854D01*
X216908Y455814D01*
X216995Y455766D01*
X217053Y455751D01*
X217109Y455727D01*
X217207Y455712D01*
X217303Y455687D01*
X217403Y455681D01*
X217423Y455677D01*
X217435Y455679D01*
X217463Y455677D01*
X228570Y455677D01*
X228668Y455689D01*
X228767Y455692D01*
X228825Y455709D01*
X228885Y455717D01*
X228978Y455753D01*
X229073Y455781D01*
X229125Y455811D01*
X229181Y455834D01*
X229261Y455892D01*
X229347Y455942D01*
X229422Y456008D01*
X229439Y456020D01*
X229446Y456030D01*
X229467Y456048D01*
X231604Y458185D01*
X241535Y458185D01*
X243671Y456048D01*
X243750Y455988D01*
X243822Y455920D01*
X243875Y455891D01*
X243923Y455854D01*
X244014Y455814D01*
X244100Y455766D01*
X244159Y455751D01*
X244215Y455727D01*
X244313Y455712D01*
X244408Y455687D01*
X244508Y455681D01*
X244529Y455677D01*
X244541Y455679D01*
X244569Y455677D01*
X250994Y455677D01*
X251092Y455689D01*
X251191Y455692D01*
X251250Y455709D01*
X251310Y455717D01*
X251402Y455753D01*
X251497Y455781D01*
X251549Y455811D01*
X251605Y455834D01*
X251685Y455892D01*
X251771Y455942D01*
X251846Y456008D01*
X251863Y456020D01*
X251870Y456030D01*
X251892Y456048D01*
X253105Y457261D01*
X255334Y458185D01*
X257746Y458185D01*
X259975Y457261D01*
X261681Y455555D01*
X262605Y453326D01*
X262605Y450914D01*
X261681Y448685D01*
X259975Y446979D01*
X257746Y446055D01*
X255334Y446055D01*
X253105Y446979D01*
X251892Y448192D01*
X251813Y448252D01*
X251741Y448320D01*
X251688Y448349D01*
X251640Y448386D01*
X251549Y448426D01*
X251463Y448474D01*
X251404Y448489D01*
X251349Y448513D01*
X251251Y448528D01*
X251155Y448553D01*
X251055Y448559D01*
X251034Y448563D01*
X251022Y448561D01*
X250994Y448563D01*
X243554Y448563D01*
X243436Y448548D01*
X243317Y448541D01*
X243279Y448528D01*
X243238Y448523D01*
X243128Y448480D01*
X243015Y448443D01*
X242980Y448421D01*
X242943Y448406D01*
X242847Y448337D01*
X242746Y448273D01*
X242718Y448243D01*
X242685Y448220D01*
X242609Y448128D01*
X242528Y448041D01*
X242508Y448006D01*
X242483Y447975D01*
X242432Y447867D01*
X242374Y447763D01*
X242364Y447723D01*
X242347Y447687D01*
X242325Y447570D01*
X242295Y447455D01*
X242291Y447395D01*
X242287Y447375D01*
X242289Y447354D01*
X242285Y447294D01*
X242285Y445834D01*
X241361Y443605D01*
X239655Y441899D01*
X237426Y440975D01*
X235014Y440975D01*
G37*
%LPD*%
%LPC*%
G36*
X234949Y502919D02*
X234949Y502919D01*
X234949Y504190D01*
X234934Y504308D01*
X234927Y504427D01*
X234914Y504465D01*
X234909Y504505D01*
X234865Y504616D01*
X234829Y504729D01*
X234807Y504764D01*
X234792Y504801D01*
X234722Y504897D01*
X234659Y504998D01*
X234629Y505026D01*
X234605Y505059D01*
X234514Y505134D01*
X234427Y505216D01*
X234392Y505236D01*
X234360Y505261D01*
X234253Y505312D01*
X234148Y505370D01*
X234109Y505380D01*
X234073Y505397D01*
X233956Y505419D01*
X233841Y505449D01*
X233780Y505453D01*
X233760Y505457D01*
X233740Y505455D01*
X233680Y505459D01*
X224429Y505459D01*
X224950Y507062D01*
X225721Y508576D01*
X226719Y509950D01*
X227920Y511151D01*
X229294Y512149D01*
X230808Y512920D01*
X232423Y513445D01*
X233430Y513604D01*
X233487Y513621D01*
X233547Y513629D01*
X233639Y513665D01*
X233735Y513693D01*
X233787Y513724D01*
X233842Y513746D01*
X233923Y513804D01*
X234009Y513855D01*
X234051Y513897D01*
X234100Y513932D01*
X234163Y514009D01*
X234234Y514080D01*
X234264Y514131D01*
X234302Y514177D01*
X234345Y514268D01*
X234396Y514353D01*
X234412Y514411D01*
X234438Y514465D01*
X234457Y514563D01*
X234485Y514659D01*
X234486Y514719D01*
X234498Y514778D01*
X234492Y514877D01*
X234495Y514977D01*
X234482Y515035D01*
X234478Y515095D01*
X234447Y515190D01*
X234426Y515287D01*
X234398Y515340D01*
X234380Y515397D01*
X234327Y515482D01*
X234281Y515571D01*
X234242Y515616D01*
X234210Y515666D01*
X234137Y515734D01*
X234071Y515809D01*
X234022Y515843D01*
X233978Y515884D01*
X233891Y515932D01*
X233809Y515988D01*
X233752Y516009D01*
X233700Y516038D01*
X233603Y516062D01*
X233509Y516096D01*
X233450Y516102D01*
X233392Y516117D01*
X233231Y516127D01*
X176645Y516127D01*
X172163Y517983D01*
X168733Y521413D01*
X166877Y525895D01*
X166877Y530745D01*
X168733Y535227D01*
X172163Y538657D01*
X176645Y540513D01*
X237375Y540513D01*
X241857Y538657D01*
X245287Y535227D01*
X247143Y530745D01*
X247143Y525895D01*
X245287Y521413D01*
X241857Y517983D01*
X237375Y516127D01*
X236669Y516127D01*
X236609Y516120D01*
X236550Y516122D01*
X236452Y516100D01*
X236353Y516087D01*
X236298Y516065D01*
X236239Y516052D01*
X236150Y516007D01*
X236058Y515970D01*
X236009Y515935D01*
X235956Y515908D01*
X235881Y515842D01*
X235800Y515784D01*
X235762Y515737D01*
X235717Y515698D01*
X235661Y515615D01*
X235598Y515539D01*
X235572Y515484D01*
X235538Y515435D01*
X235504Y515341D01*
X235462Y515251D01*
X235451Y515192D01*
X235430Y515136D01*
X235421Y515036D01*
X235402Y514939D01*
X235406Y514879D01*
X235400Y514819D01*
X235416Y514721D01*
X235422Y514621D01*
X235440Y514564D01*
X235450Y514505D01*
X235489Y514413D01*
X235520Y514319D01*
X235552Y514268D01*
X235576Y514213D01*
X235637Y514134D01*
X235690Y514050D01*
X235734Y514009D01*
X235770Y513961D01*
X235849Y513900D01*
X235922Y513832D01*
X235974Y513803D01*
X236022Y513766D01*
X236113Y513727D01*
X236200Y513678D01*
X236258Y513663D01*
X236313Y513640D01*
X236470Y513604D01*
X237477Y513445D01*
X239092Y512920D01*
X240606Y512149D01*
X241980Y511151D01*
X243181Y509950D01*
X244179Y508576D01*
X244950Y507062D01*
X245471Y505459D01*
X236220Y505459D01*
X236102Y505444D01*
X235983Y505437D01*
X235945Y505424D01*
X235905Y505419D01*
X235794Y505376D01*
X235681Y505339D01*
X235647Y505317D01*
X235609Y505302D01*
X235513Y505232D01*
X235412Y505169D01*
X235384Y505139D01*
X235352Y505115D01*
X235276Y505024D01*
X235194Y504937D01*
X235175Y504902D01*
X235149Y504871D01*
X235098Y504763D01*
X235041Y504659D01*
X235030Y504619D01*
X235013Y504583D01*
X234991Y504466D01*
X234961Y504351D01*
X234957Y504290D01*
X234953Y504270D01*
X234955Y504250D01*
X234951Y504190D01*
X234951Y502919D01*
X234949Y502919D01*
G37*
%LPD*%
%LPC*%
G36*
X166225Y204977D02*
X166225Y204977D01*
X163611Y206060D01*
X147640Y222031D01*
X146557Y224645D01*
X146557Y275282D01*
X146556Y275291D01*
X146557Y275300D01*
X146536Y275449D01*
X146517Y275597D01*
X146514Y275606D01*
X146513Y275615D01*
X146461Y275767D01*
X146105Y276625D01*
X146105Y279635D01*
X147257Y282415D01*
X149385Y284543D01*
X152165Y285695D01*
X155175Y285695D01*
X156033Y285339D01*
X156042Y285337D01*
X156050Y285332D01*
X156195Y285295D01*
X156339Y285255D01*
X156349Y285255D01*
X156358Y285253D01*
X156518Y285243D01*
X192732Y285243D01*
X192741Y285244D01*
X192750Y285243D01*
X192899Y285264D01*
X193047Y285283D01*
X193056Y285286D01*
X193065Y285287D01*
X193217Y285339D01*
X194075Y285695D01*
X197085Y285695D01*
X199865Y284543D01*
X201993Y282415D01*
X203145Y279635D01*
X203145Y276625D01*
X201993Y273845D01*
X199865Y271717D01*
X197085Y270565D01*
X194075Y270565D01*
X193217Y270921D01*
X193208Y270923D01*
X193200Y270928D01*
X193055Y270965D01*
X192911Y271005D01*
X192901Y271005D01*
X192892Y271007D01*
X192732Y271017D01*
X162052Y271017D01*
X161934Y271002D01*
X161815Y270995D01*
X161777Y270982D01*
X161736Y270977D01*
X161626Y270934D01*
X161513Y270897D01*
X161478Y270875D01*
X161441Y270860D01*
X161345Y270791D01*
X161244Y270727D01*
X161216Y270697D01*
X161183Y270674D01*
X161107Y270582D01*
X161026Y270495D01*
X161006Y270460D01*
X160981Y270429D01*
X160930Y270321D01*
X160872Y270217D01*
X160862Y270177D01*
X160845Y270141D01*
X160823Y270024D01*
X160793Y269909D01*
X160789Y269849D01*
X160785Y269829D01*
X160787Y269808D01*
X160783Y269748D01*
X160783Y229532D01*
X160795Y229434D01*
X160798Y229335D01*
X160815Y229276D01*
X160823Y229216D01*
X160859Y229124D01*
X160887Y229029D01*
X160917Y228977D01*
X160940Y228921D01*
X160998Y228841D01*
X161048Y228755D01*
X161114Y228680D01*
X161126Y228663D01*
X161136Y228656D01*
X161154Y228634D01*
X173670Y216119D01*
X174753Y213505D01*
X174753Y210675D01*
X173670Y208061D01*
X171669Y206060D01*
X169055Y204977D01*
X166225Y204977D01*
G37*
%LPD*%
%LPC*%
G36*
X359474Y200945D02*
X359474Y200945D01*
X357245Y201869D01*
X355539Y203575D01*
X354615Y205804D01*
X354615Y208216D01*
X355539Y210445D01*
X357245Y212151D01*
X359474Y213075D01*
X361189Y213075D01*
X361287Y213087D01*
X361386Y213090D01*
X361444Y213107D01*
X361505Y213115D01*
X361597Y213151D01*
X361692Y213179D01*
X361744Y213209D01*
X361800Y213232D01*
X361880Y213290D01*
X361966Y213340D01*
X362041Y213406D01*
X362058Y213418D01*
X362065Y213428D01*
X362087Y213446D01*
X371875Y223235D01*
X450557Y223235D01*
X450655Y223247D01*
X450754Y223250D01*
X450811Y223267D01*
X462250Y223267D01*
X462348Y223279D01*
X462447Y223282D01*
X462505Y223299D01*
X462565Y223307D01*
X462658Y223343D01*
X462753Y223371D01*
X462805Y223401D01*
X462861Y223424D01*
X462941Y223482D01*
X463027Y223532D01*
X463102Y223598D01*
X463119Y223610D01*
X463126Y223620D01*
X463147Y223638D01*
X463464Y223955D01*
X463524Y224033D01*
X463592Y224105D01*
X463621Y224158D01*
X463658Y224206D01*
X463698Y224297D01*
X463746Y224383D01*
X463761Y224442D01*
X463785Y224498D01*
X463800Y224596D01*
X463825Y224691D01*
X463831Y224791D01*
X463835Y224812D01*
X463833Y224824D01*
X463835Y224852D01*
X463835Y225996D01*
X464759Y228225D01*
X466465Y229931D01*
X468694Y230855D01*
X471106Y230855D01*
X473335Y229931D01*
X475041Y228225D01*
X475965Y225996D01*
X475965Y223584D01*
X475041Y221355D01*
X474294Y220607D01*
X474221Y220513D01*
X474143Y220424D01*
X474124Y220388D01*
X474099Y220356D01*
X474052Y220247D01*
X473998Y220141D01*
X473989Y220102D01*
X473973Y220064D01*
X473954Y219947D01*
X473928Y219831D01*
X473930Y219790D01*
X473923Y219750D01*
X473934Y219632D01*
X473938Y219513D01*
X473949Y219474D01*
X473953Y219434D01*
X473993Y219322D01*
X474026Y219207D01*
X474047Y219172D01*
X474061Y219134D01*
X474127Y219036D01*
X474188Y218933D01*
X474228Y218888D01*
X474239Y218871D01*
X474255Y218858D01*
X474294Y218812D01*
X475041Y218065D01*
X475965Y215836D01*
X475965Y213424D01*
X475041Y211195D01*
X473335Y209489D01*
X471106Y208565D01*
X468694Y208565D01*
X466465Y209489D01*
X465252Y210702D01*
X465173Y210762D01*
X465101Y210830D01*
X465048Y210859D01*
X465000Y210896D01*
X464909Y210936D01*
X464823Y210984D01*
X464764Y210999D01*
X464709Y211023D01*
X464611Y211038D01*
X464515Y211063D01*
X464415Y211069D01*
X464394Y211073D01*
X464382Y211071D01*
X464354Y211073D01*
X456691Y211073D01*
X456593Y211061D01*
X456494Y211058D01*
X456436Y211041D01*
X447737Y211041D01*
X447639Y211029D01*
X447540Y211026D01*
X447482Y211009D01*
X447421Y211001D01*
X447329Y210965D01*
X447234Y210937D01*
X447182Y210907D01*
X447126Y210884D01*
X447046Y210826D01*
X446960Y210776D01*
X446885Y210710D01*
X446868Y210698D01*
X446861Y210688D01*
X446839Y210670D01*
X444586Y208417D01*
X444526Y208338D01*
X444458Y208266D01*
X444429Y208213D01*
X444392Y208165D01*
X444352Y208074D01*
X444304Y207988D01*
X444289Y207929D01*
X444265Y207873D01*
X444250Y207775D01*
X444225Y207680D01*
X444219Y207580D01*
X444215Y207559D01*
X444217Y207547D01*
X444215Y207519D01*
X444215Y205804D01*
X443291Y203575D01*
X441585Y201869D01*
X439356Y200945D01*
X436944Y200945D01*
X434715Y201869D01*
X433009Y203575D01*
X432085Y205804D01*
X432085Y208216D01*
X433009Y210445D01*
X434715Y212151D01*
X436944Y213075D01*
X438659Y213075D01*
X438757Y213087D01*
X438856Y213090D01*
X438914Y213107D01*
X438975Y213115D01*
X439067Y213151D01*
X439162Y213179D01*
X439214Y213209D01*
X439270Y213232D01*
X439350Y213290D01*
X439436Y213340D01*
X439511Y213406D01*
X439528Y213418D01*
X439535Y213428D01*
X439556Y213446D01*
X440065Y213954D01*
X440150Y214064D01*
X440238Y214171D01*
X440247Y214190D01*
X440259Y214206D01*
X440315Y214334D01*
X440374Y214459D01*
X440378Y214479D01*
X440386Y214498D01*
X440408Y214636D01*
X440434Y214772D01*
X440433Y214792D01*
X440436Y214812D01*
X440423Y214951D01*
X440414Y215089D01*
X440408Y215108D01*
X440406Y215128D01*
X440359Y215259D01*
X440316Y215391D01*
X440305Y215409D01*
X440298Y215428D01*
X440220Y215542D01*
X440146Y215660D01*
X440131Y215674D01*
X440120Y215691D01*
X440016Y215783D01*
X439914Y215878D01*
X439896Y215888D01*
X439881Y215901D01*
X439758Y215964D01*
X439636Y216032D01*
X439616Y216037D01*
X439598Y216046D01*
X439462Y216076D01*
X439328Y216111D01*
X439300Y216113D01*
X439288Y216116D01*
X439267Y216115D01*
X439167Y216121D01*
X375347Y216121D01*
X375249Y216109D01*
X375150Y216106D01*
X375092Y216089D01*
X375031Y216081D01*
X374939Y216045D01*
X374844Y216017D01*
X374792Y215987D01*
X374736Y215964D01*
X374656Y215906D01*
X374570Y215856D01*
X374495Y215790D01*
X374478Y215778D01*
X374471Y215768D01*
X374449Y215750D01*
X367116Y208417D01*
X367056Y208338D01*
X366988Y208266D01*
X366959Y208213D01*
X366922Y208165D01*
X366882Y208074D01*
X366834Y207988D01*
X366819Y207929D01*
X366795Y207873D01*
X366780Y207775D01*
X366755Y207680D01*
X366749Y207580D01*
X366745Y207559D01*
X366747Y207547D01*
X366745Y207519D01*
X366745Y205804D01*
X365821Y203575D01*
X364115Y201869D01*
X361886Y200945D01*
X359474Y200945D01*
G37*
%LPD*%
%LPC*%
G36*
X281997Y376173D02*
X281997Y376173D01*
X279756Y377101D01*
X267881Y388976D01*
X266953Y391217D01*
X266953Y418084D01*
X266938Y418202D01*
X266931Y418321D01*
X266918Y418359D01*
X266913Y418400D01*
X266870Y418510D01*
X266833Y418623D01*
X266811Y418658D01*
X266796Y418695D01*
X266727Y418791D01*
X266663Y418892D01*
X266633Y418920D01*
X266610Y418953D01*
X266518Y419029D01*
X266431Y419110D01*
X266396Y419130D01*
X266365Y419155D01*
X266257Y419206D01*
X266153Y419264D01*
X266113Y419274D01*
X266077Y419291D01*
X265960Y419313D01*
X265845Y419343D01*
X265785Y419347D01*
X265765Y419351D01*
X265744Y419349D01*
X265684Y419353D01*
X229927Y419353D01*
X227686Y420281D01*
X225971Y421996D01*
X225043Y424237D01*
X225043Y426663D01*
X225971Y428904D01*
X227686Y430619D01*
X229927Y431547D01*
X270453Y431547D01*
X272694Y430619D01*
X278219Y425094D01*
X278377Y424710D01*
X278391Y424686D01*
X278400Y424660D01*
X278400Y424659D01*
X278401Y424657D01*
X278471Y424547D01*
X278535Y424434D01*
X278555Y424413D01*
X278571Y424388D01*
X278666Y424299D01*
X278756Y424206D01*
X278781Y424190D01*
X278803Y424170D01*
X278916Y424107D01*
X279027Y424039D01*
X279055Y424031D01*
X279081Y424016D01*
X279207Y423984D01*
X279331Y423946D01*
X279361Y423944D01*
X279389Y423937D01*
X279550Y423927D01*
X284423Y423927D01*
X286664Y422999D01*
X288379Y421284D01*
X289307Y419043D01*
X289307Y416617D01*
X288379Y414376D01*
X286664Y412661D01*
X284423Y411733D01*
X280416Y411733D01*
X280298Y411718D01*
X280179Y411711D01*
X280141Y411698D01*
X280100Y411693D01*
X279990Y411650D01*
X279877Y411613D01*
X279842Y411591D01*
X279805Y411576D01*
X279709Y411507D01*
X279608Y411443D01*
X279580Y411413D01*
X279547Y411390D01*
X279471Y411298D01*
X279390Y411211D01*
X279370Y411176D01*
X279345Y411145D01*
X279294Y411037D01*
X279236Y410933D01*
X279226Y410893D01*
X279209Y410857D01*
X279187Y410740D01*
X279157Y410625D01*
X279153Y410565D01*
X279149Y410545D01*
X279151Y410524D01*
X279147Y410464D01*
X279147Y395481D01*
X279159Y395383D01*
X279162Y395284D01*
X279179Y395226D01*
X279187Y395166D01*
X279223Y395073D01*
X279251Y394978D01*
X279281Y394926D01*
X279304Y394870D01*
X279362Y394790D01*
X279412Y394704D01*
X279478Y394629D01*
X279490Y394613D01*
X279500Y394605D01*
X279518Y394584D01*
X288379Y385724D01*
X289307Y383483D01*
X289307Y381057D01*
X288379Y378816D01*
X286664Y377101D01*
X284423Y376173D01*
X281997Y376173D01*
G37*
%LPD*%
%LPC*%
G36*
X429755Y54487D02*
X429755Y54487D01*
X425975Y56053D01*
X423083Y58945D01*
X421517Y62725D01*
X421517Y66815D01*
X423083Y70595D01*
X425332Y72843D01*
X425392Y72922D01*
X425460Y72994D01*
X425489Y73047D01*
X425526Y73095D01*
X425566Y73186D01*
X425614Y73272D01*
X425629Y73331D01*
X425653Y73387D01*
X425668Y73485D01*
X425693Y73580D01*
X425699Y73680D01*
X425703Y73701D01*
X425701Y73713D01*
X425703Y73741D01*
X425703Y79953D01*
X426631Y82194D01*
X438506Y94069D01*
X440747Y94997D01*
X469389Y94997D01*
X469487Y95009D01*
X469586Y95012D01*
X469644Y95029D01*
X469704Y95037D01*
X469797Y95073D01*
X469892Y95101D01*
X469944Y95131D01*
X470000Y95154D01*
X470080Y95212D01*
X470166Y95262D01*
X470241Y95328D01*
X470257Y95340D01*
X470265Y95350D01*
X470286Y95368D01*
X470854Y95936D01*
X470914Y96014D01*
X470982Y96086D01*
X471011Y96139D01*
X471048Y96187D01*
X471088Y96278D01*
X471136Y96364D01*
X471151Y96423D01*
X471175Y96479D01*
X471190Y96577D01*
X471215Y96672D01*
X471219Y96741D01*
X472377Y99535D01*
X474505Y101663D01*
X477285Y102815D01*
X480295Y102815D01*
X483075Y101663D01*
X485203Y99535D01*
X486355Y96755D01*
X486355Y93745D01*
X485203Y90965D01*
X483075Y88837D01*
X480264Y87673D01*
X480176Y87670D01*
X480118Y87653D01*
X480058Y87645D01*
X479965Y87609D01*
X479870Y87581D01*
X479818Y87551D01*
X479762Y87528D01*
X479682Y87470D01*
X479596Y87420D01*
X479521Y87354D01*
X479505Y87342D01*
X479497Y87332D01*
X479476Y87314D01*
X475894Y83731D01*
X473653Y82803D01*
X445011Y82803D01*
X444913Y82791D01*
X444814Y82788D01*
X444756Y82771D01*
X444696Y82763D01*
X444603Y82727D01*
X444508Y82699D01*
X444456Y82669D01*
X444400Y82646D01*
X444320Y82588D01*
X444234Y82538D01*
X444159Y82472D01*
X444143Y82460D01*
X444135Y82450D01*
X444114Y82432D01*
X438268Y76586D01*
X438208Y76508D01*
X438140Y76436D01*
X438111Y76383D01*
X438074Y76335D01*
X438034Y76244D01*
X437986Y76158D01*
X437971Y76099D01*
X437947Y76043D01*
X437932Y75945D01*
X437907Y75850D01*
X437901Y75750D01*
X437897Y75729D01*
X437899Y75717D01*
X437897Y75689D01*
X437897Y73741D01*
X437909Y73643D01*
X437912Y73544D01*
X437929Y73486D01*
X437937Y73425D01*
X437973Y73333D01*
X438001Y73238D01*
X438031Y73186D01*
X438054Y73130D01*
X438112Y73050D01*
X438162Y72964D01*
X438228Y72889D01*
X438240Y72872D01*
X438250Y72865D01*
X438268Y72843D01*
X440517Y70595D01*
X442083Y66815D01*
X442083Y62725D01*
X440517Y58945D01*
X437625Y56053D01*
X433845Y54487D01*
X429755Y54487D01*
G37*
%LPD*%
%LPC*%
G36*
X391655Y54487D02*
X391655Y54487D01*
X387875Y56053D01*
X384983Y58945D01*
X383417Y62725D01*
X383417Y66815D01*
X384983Y70595D01*
X387232Y72843D01*
X387292Y72922D01*
X387360Y72994D01*
X387389Y73047D01*
X387426Y73095D01*
X387466Y73186D01*
X387514Y73272D01*
X387529Y73331D01*
X387553Y73387D01*
X387568Y73485D01*
X387593Y73580D01*
X387599Y73680D01*
X387603Y73701D01*
X387601Y73713D01*
X387603Y73741D01*
X387603Y75689D01*
X387591Y75787D01*
X387588Y75886D01*
X387571Y75944D01*
X387563Y76004D01*
X387527Y76097D01*
X387499Y76192D01*
X387469Y76244D01*
X387446Y76300D01*
X387388Y76380D01*
X387338Y76466D01*
X387272Y76541D01*
X387260Y76557D01*
X387250Y76565D01*
X387232Y76586D01*
X381386Y82432D01*
X381308Y82492D01*
X381236Y82560D01*
X381183Y82589D01*
X381135Y82626D01*
X381044Y82666D01*
X380958Y82714D01*
X380899Y82729D01*
X380843Y82753D01*
X380745Y82768D01*
X380650Y82793D01*
X380550Y82799D01*
X380529Y82803D01*
X380517Y82801D01*
X380489Y82803D01*
X353117Y82803D01*
X350876Y83731D01*
X347294Y87314D01*
X347216Y87374D01*
X347144Y87442D01*
X347091Y87471D01*
X347043Y87508D01*
X346952Y87548D01*
X346866Y87596D01*
X346807Y87611D01*
X346751Y87635D01*
X346653Y87650D01*
X346558Y87675D01*
X346489Y87679D01*
X343695Y88837D01*
X341567Y90965D01*
X340415Y93745D01*
X340415Y96755D01*
X341567Y99535D01*
X343695Y101663D01*
X346475Y102815D01*
X349485Y102815D01*
X352265Y101663D01*
X354393Y99535D01*
X355557Y96724D01*
X355560Y96636D01*
X355577Y96578D01*
X355585Y96518D01*
X355621Y96425D01*
X355649Y96330D01*
X355679Y96278D01*
X355702Y96222D01*
X355760Y96142D01*
X355810Y96056D01*
X355876Y95981D01*
X355888Y95965D01*
X355898Y95957D01*
X355916Y95936D01*
X356484Y95368D01*
X356562Y95308D01*
X356634Y95240D01*
X356687Y95211D01*
X356735Y95174D01*
X356826Y95134D01*
X356912Y95086D01*
X356971Y95071D01*
X357027Y95047D01*
X357125Y95032D01*
X357220Y95007D01*
X357320Y95001D01*
X357341Y94997D01*
X357353Y94999D01*
X357381Y94997D01*
X384753Y94997D01*
X386994Y94069D01*
X398869Y82194D01*
X399797Y79953D01*
X399797Y73741D01*
X399809Y73643D01*
X399812Y73544D01*
X399829Y73486D01*
X399837Y73425D01*
X399873Y73333D01*
X399901Y73238D01*
X399931Y73186D01*
X399954Y73130D01*
X400012Y73050D01*
X400062Y72964D01*
X400128Y72889D01*
X400140Y72872D01*
X400150Y72865D01*
X400168Y72843D01*
X402417Y70595D01*
X403983Y66815D01*
X403983Y62725D01*
X402417Y58945D01*
X399525Y56053D01*
X395745Y54487D01*
X391655Y54487D01*
G37*
%LPD*%
%LPC*%
G36*
X307404Y433355D02*
X307404Y433355D01*
X305175Y434279D01*
X303469Y435985D01*
X302545Y438214D01*
X302545Y440626D01*
X303469Y442855D01*
X305175Y444561D01*
X307284Y445435D01*
X307292Y445440D01*
X307301Y445442D01*
X307430Y445518D01*
X307560Y445593D01*
X307567Y445599D01*
X307575Y445604D01*
X307695Y445710D01*
X312072Y450086D01*
X315122Y453137D01*
X366389Y453137D01*
X366418Y453140D01*
X366447Y453138D01*
X366576Y453160D01*
X366704Y453177D01*
X366732Y453187D01*
X366761Y453192D01*
X366879Y453246D01*
X367000Y453294D01*
X367024Y453311D01*
X367051Y453323D01*
X367152Y453404D01*
X367257Y453480D01*
X367276Y453503D01*
X367299Y453522D01*
X367377Y453625D01*
X367460Y453725D01*
X367473Y453752D01*
X367490Y453776D01*
X367561Y453920D01*
X368239Y455555D01*
X369945Y457261D01*
X372174Y458185D01*
X374586Y458185D01*
X376815Y457261D01*
X378521Y455555D01*
X379445Y453326D01*
X379445Y450914D01*
X378521Y448685D01*
X376815Y446979D01*
X374586Y446055D01*
X374308Y446055D01*
X374210Y446043D01*
X374111Y446040D01*
X374052Y446023D01*
X373992Y446015D01*
X373900Y445979D01*
X373805Y445951D01*
X373753Y445921D01*
X373697Y445898D01*
X373617Y445840D01*
X373531Y445790D01*
X373456Y445724D01*
X373439Y445712D01*
X373431Y445702D01*
X373410Y445684D01*
X371718Y443991D01*
X319436Y443991D01*
X319338Y443979D01*
X319239Y443976D01*
X319180Y443959D01*
X319120Y443951D01*
X319028Y443915D01*
X318933Y443887D01*
X318881Y443857D01*
X318825Y443834D01*
X318745Y443776D01*
X318659Y443726D01*
X318584Y443660D01*
X318567Y443648D01*
X318560Y443638D01*
X318538Y443620D01*
X315046Y440128D01*
X314986Y440049D01*
X314918Y439977D01*
X314889Y439924D01*
X314852Y439876D01*
X314812Y439785D01*
X314764Y439699D01*
X314749Y439640D01*
X314725Y439585D01*
X314710Y439487D01*
X314685Y439391D01*
X314679Y439291D01*
X314675Y439270D01*
X314677Y439258D01*
X314675Y439230D01*
X314675Y438214D01*
X313751Y435985D01*
X312045Y434279D01*
X309816Y433355D01*
X307404Y433355D01*
G37*
%LPD*%
%LPC*%
G36*
X297244Y346995D02*
X297244Y346995D01*
X295015Y347919D01*
X293802Y349132D01*
X293723Y349192D01*
X293651Y349260D01*
X293598Y349289D01*
X293550Y349326D01*
X293459Y349366D01*
X293373Y349414D01*
X293314Y349429D01*
X293259Y349453D01*
X293161Y349468D01*
X293065Y349493D01*
X292965Y349499D01*
X292944Y349503D01*
X292932Y349501D01*
X292904Y349503D01*
X279197Y349503D01*
X256677Y372024D01*
X256598Y372084D01*
X256526Y372152D01*
X256473Y372181D01*
X256425Y372218D01*
X256334Y372258D01*
X256248Y372306D01*
X256189Y372321D01*
X256133Y372345D01*
X256035Y372360D01*
X255940Y372385D01*
X255840Y372391D01*
X255819Y372395D01*
X255807Y372393D01*
X255779Y372395D01*
X239224Y372395D01*
X234515Y377104D01*
X234437Y377164D01*
X234365Y377232D01*
X234312Y377261D01*
X234264Y377298D01*
X234173Y377338D01*
X234087Y377386D01*
X234028Y377401D01*
X233972Y377425D01*
X233874Y377440D01*
X233779Y377465D01*
X233679Y377471D01*
X233658Y377475D01*
X233646Y377473D01*
X233618Y377475D01*
X232474Y377475D01*
X230245Y378399D01*
X228539Y380105D01*
X227615Y382334D01*
X227615Y384746D01*
X228539Y386975D01*
X230245Y388681D01*
X232474Y389605D01*
X234886Y389605D01*
X237115Y388681D01*
X238821Y386975D01*
X239745Y384746D01*
X239745Y382460D01*
X239757Y382362D01*
X239760Y382263D01*
X239777Y382204D01*
X239785Y382144D01*
X239821Y382052D01*
X239849Y381957D01*
X239879Y381905D01*
X239902Y381849D01*
X239960Y381769D01*
X240010Y381683D01*
X240076Y381608D01*
X240088Y381591D01*
X240098Y381584D01*
X240116Y381562D01*
X241798Y379880D01*
X241877Y379820D01*
X241949Y379752D01*
X242002Y379723D01*
X242050Y379686D01*
X242141Y379646D01*
X242227Y379598D01*
X242286Y379583D01*
X242342Y379559D01*
X242440Y379544D01*
X242535Y379519D01*
X242635Y379513D01*
X242656Y379509D01*
X242668Y379511D01*
X242696Y379509D01*
X259251Y379509D01*
X281771Y356988D01*
X281850Y356928D01*
X281922Y356860D01*
X281975Y356831D01*
X282023Y356794D01*
X282114Y356754D01*
X282200Y356706D01*
X282259Y356691D01*
X282315Y356667D01*
X282413Y356652D01*
X282508Y356627D01*
X282608Y356621D01*
X282629Y356617D01*
X282641Y356619D01*
X282669Y356617D01*
X292904Y356617D01*
X293002Y356629D01*
X293101Y356632D01*
X293160Y356649D01*
X293220Y356657D01*
X293312Y356693D01*
X293407Y356721D01*
X293459Y356751D01*
X293515Y356774D01*
X293595Y356832D01*
X293681Y356882D01*
X293756Y356948D01*
X293773Y356960D01*
X293780Y356970D01*
X293802Y356988D01*
X295015Y358201D01*
X297244Y359125D01*
X299656Y359125D01*
X301885Y358201D01*
X303591Y356495D01*
X304515Y354266D01*
X304515Y351854D01*
X303591Y349625D01*
X301885Y347919D01*
X299656Y346995D01*
X297244Y346995D01*
G37*
%LPD*%
%LPC*%
G36*
X402355Y360735D02*
X402355Y360735D01*
X399575Y361887D01*
X397447Y364015D01*
X396295Y366795D01*
X396295Y369805D01*
X397460Y372616D01*
X397520Y372680D01*
X397549Y372733D01*
X397586Y372781D01*
X397626Y372872D01*
X397674Y372958D01*
X397689Y373017D01*
X397713Y373073D01*
X397728Y373170D01*
X397753Y373266D01*
X397759Y373367D01*
X397763Y373387D01*
X397761Y373399D01*
X397763Y373427D01*
X397763Y402533D01*
X398739Y404888D01*
X398741Y404896D01*
X398746Y404905D01*
X398783Y405048D01*
X398823Y405194D01*
X398823Y405204D01*
X398825Y405213D01*
X398835Y405363D01*
X399987Y408145D01*
X402115Y410273D01*
X404895Y411425D01*
X407905Y411425D01*
X410685Y410273D01*
X412813Y408145D01*
X413965Y405365D01*
X413965Y402355D01*
X412813Y399575D01*
X410680Y397442D01*
X410577Y397377D01*
X410464Y397312D01*
X410443Y397292D01*
X410418Y397276D01*
X410329Y397181D01*
X410236Y397091D01*
X410220Y397066D01*
X410200Y397044D01*
X410137Y396931D01*
X410069Y396820D01*
X410061Y396792D01*
X410046Y396766D01*
X410014Y396640D01*
X409976Y396516D01*
X409974Y396486D01*
X409967Y396458D01*
X409957Y396297D01*
X409957Y373427D01*
X409969Y373329D01*
X409972Y373230D01*
X409989Y373172D01*
X409997Y373112D01*
X410033Y373019D01*
X410061Y372924D01*
X410091Y372872D01*
X410114Y372816D01*
X410172Y372736D01*
X410222Y372650D01*
X410267Y372599D01*
X411425Y369805D01*
X411425Y366795D01*
X410273Y364015D01*
X408145Y361887D01*
X405365Y360735D01*
X402355Y360735D01*
G37*
%LPD*%
%LPC*%
G36*
X505659Y623507D02*
X505659Y623507D01*
X500501Y625644D01*
X496554Y629591D01*
X494417Y634749D01*
X494417Y640331D01*
X496554Y645489D01*
X500501Y649436D01*
X505659Y651573D01*
X511241Y651573D01*
X516399Y649436D01*
X520346Y645489D01*
X522483Y640331D01*
X522483Y634749D01*
X520346Y629591D01*
X516399Y625644D01*
X511241Y623507D01*
X505659Y623507D01*
G37*
%LPD*%
%LPC*%
G36*
X223375Y606297D02*
X223375Y606297D01*
X220761Y607380D01*
X218760Y609381D01*
X217677Y611995D01*
X217677Y614825D01*
X218760Y617439D01*
X220761Y619440D01*
X223375Y620523D01*
X255415Y620523D01*
X258029Y619440D01*
X260030Y617439D01*
X261113Y614825D01*
X261113Y611995D01*
X260030Y609381D01*
X258029Y607380D01*
X255415Y606297D01*
X223375Y606297D01*
G37*
%LPD*%
%LPC*%
G36*
X190995Y345317D02*
X190995Y345317D01*
X187215Y346883D01*
X184323Y349775D01*
X182757Y353555D01*
X182757Y357645D01*
X184323Y361425D01*
X187215Y364317D01*
X190995Y365883D01*
X195085Y365883D01*
X198865Y364317D01*
X201757Y361425D01*
X203323Y357645D01*
X203323Y353555D01*
X201757Y349775D01*
X198865Y346883D01*
X195085Y345317D01*
X190995Y345317D01*
G37*
%LPD*%
%LPC*%
G36*
X216395Y319917D02*
X216395Y319917D01*
X212615Y321483D01*
X209723Y324375D01*
X208157Y328155D01*
X208157Y332245D01*
X209723Y336025D01*
X212615Y338917D01*
X216395Y340483D01*
X220485Y340483D01*
X224265Y338917D01*
X227157Y336025D01*
X228723Y332245D01*
X228723Y328155D01*
X227157Y324375D01*
X224265Y321483D01*
X220485Y319917D01*
X216395Y319917D01*
G37*
%LPD*%
%LPC*%
G36*
X241795Y319917D02*
X241795Y319917D01*
X238015Y321483D01*
X235123Y324375D01*
X233557Y328155D01*
X233557Y332245D01*
X235123Y336025D01*
X238015Y338917D01*
X241795Y340483D01*
X245885Y340483D01*
X249665Y338917D01*
X252557Y336025D01*
X254123Y332245D01*
X254123Y328155D01*
X252557Y324375D01*
X249665Y321483D01*
X245885Y319917D01*
X241795Y319917D01*
G37*
%LPD*%
%LPC*%
G36*
X258305Y518037D02*
X258305Y518037D01*
X254525Y519603D01*
X251633Y522495D01*
X250067Y526275D01*
X250067Y530365D01*
X251633Y534145D01*
X254525Y537037D01*
X258305Y538603D01*
X262395Y538603D01*
X266175Y537037D01*
X269067Y534145D01*
X270633Y530365D01*
X270633Y526275D01*
X269067Y522495D01*
X266175Y519603D01*
X262395Y518037D01*
X258305Y518037D01*
G37*
%LPD*%
%LPC*%
G36*
X232905Y543437D02*
X232905Y543437D01*
X229125Y545003D01*
X226233Y547895D01*
X224667Y551675D01*
X224667Y555765D01*
X226233Y559545D01*
X229125Y562437D01*
X232905Y564003D01*
X236995Y564003D01*
X240775Y562437D01*
X243667Y559545D01*
X245233Y555765D01*
X245233Y551675D01*
X243667Y547895D01*
X240775Y545003D01*
X236995Y543437D01*
X232905Y543437D01*
G37*
%LPD*%
%LPC*%
G36*
X241795Y345317D02*
X241795Y345317D01*
X238015Y346883D01*
X235123Y349775D01*
X233557Y353555D01*
X233557Y357645D01*
X235123Y361425D01*
X238015Y364317D01*
X241795Y365883D01*
X245885Y365883D01*
X249665Y364317D01*
X252557Y361425D01*
X254123Y357645D01*
X254123Y353555D01*
X252557Y349775D01*
X249665Y346883D01*
X245885Y345317D01*
X241795Y345317D01*
G37*
%LPD*%
%LPC*%
G36*
X216395Y345317D02*
X216395Y345317D01*
X212615Y346883D01*
X209723Y349775D01*
X208157Y353555D01*
X208157Y357645D01*
X209723Y361425D01*
X212615Y364317D01*
X216395Y365883D01*
X220485Y365883D01*
X224265Y364317D01*
X227157Y361425D01*
X228723Y357645D01*
X228723Y353555D01*
X227157Y349775D01*
X224265Y346883D01*
X220485Y345317D01*
X216395Y345317D01*
G37*
%LPD*%
%LPC*%
G36*
X124955Y54487D02*
X124955Y54487D01*
X121175Y56053D01*
X118283Y58945D01*
X116717Y62725D01*
X116717Y66815D01*
X118283Y70595D01*
X121175Y73487D01*
X124955Y75053D01*
X129045Y75053D01*
X132825Y73487D01*
X135717Y70595D01*
X137283Y66815D01*
X137283Y62725D01*
X135717Y58945D01*
X132825Y56053D01*
X129045Y54487D01*
X124955Y54487D01*
G37*
%LPD*%
%LPC*%
G36*
X98905Y627257D02*
X98905Y627257D01*
X95125Y628823D01*
X92233Y631715D01*
X90667Y635495D01*
X90667Y639585D01*
X92233Y643365D01*
X95125Y646257D01*
X98905Y647823D01*
X102995Y647823D01*
X106775Y646257D01*
X109667Y643365D01*
X111233Y639585D01*
X111233Y635495D01*
X109667Y631715D01*
X106775Y628823D01*
X102995Y627257D01*
X98905Y627257D01*
G37*
%LPD*%
%LPC*%
G36*
X201155Y54487D02*
X201155Y54487D01*
X197375Y56053D01*
X194483Y58945D01*
X192917Y62725D01*
X192917Y66815D01*
X194483Y70595D01*
X197375Y73487D01*
X201155Y75053D01*
X205245Y75053D01*
X209025Y73487D01*
X211917Y70595D01*
X213483Y66815D01*
X213483Y62725D01*
X211917Y58945D01*
X209025Y56053D01*
X205245Y54487D01*
X201155Y54487D01*
G37*
%LPD*%
%LPC*%
G36*
X239255Y54487D02*
X239255Y54487D01*
X235475Y56053D01*
X232583Y58945D01*
X231017Y62725D01*
X231017Y66815D01*
X232583Y70595D01*
X235475Y73487D01*
X239255Y75053D01*
X243345Y75053D01*
X247125Y73487D01*
X250017Y70595D01*
X251583Y66815D01*
X251583Y62725D01*
X250017Y58945D01*
X247125Y56053D01*
X243345Y54487D01*
X239255Y54487D01*
G37*
%LPD*%
%LPC*%
G36*
X277355Y54487D02*
X277355Y54487D01*
X273575Y56053D01*
X270683Y58945D01*
X269117Y62725D01*
X269117Y66815D01*
X270683Y70595D01*
X273575Y73487D01*
X277355Y75053D01*
X281445Y75053D01*
X285225Y73487D01*
X288117Y70595D01*
X289683Y66815D01*
X289683Y62725D01*
X288117Y58945D01*
X285225Y56053D01*
X281445Y54487D01*
X277355Y54487D01*
G37*
%LPD*%
%LPC*%
G36*
X232905Y568837D02*
X232905Y568837D01*
X229125Y570403D01*
X226233Y573295D01*
X224667Y577075D01*
X224667Y581165D01*
X226233Y584945D01*
X229125Y587837D01*
X232905Y589403D01*
X236995Y589403D01*
X240775Y587837D01*
X243667Y584945D01*
X245233Y581165D01*
X245233Y577075D01*
X243667Y573295D01*
X240775Y570403D01*
X236995Y568837D01*
X232905Y568837D01*
G37*
%LPD*%
%LPC*%
G36*
X315455Y54487D02*
X315455Y54487D01*
X311675Y56053D01*
X308783Y58945D01*
X307217Y62725D01*
X307217Y66815D01*
X308783Y70595D01*
X311675Y73487D01*
X315455Y75053D01*
X319545Y75053D01*
X323325Y73487D01*
X326217Y70595D01*
X327783Y66815D01*
X327783Y62725D01*
X326217Y58945D01*
X323325Y56053D01*
X319545Y54487D01*
X315455Y54487D01*
G37*
%LPD*%
%LPC*%
G36*
X353555Y54487D02*
X353555Y54487D01*
X349775Y56053D01*
X346883Y58945D01*
X345317Y62725D01*
X345317Y66815D01*
X346883Y70595D01*
X349775Y73487D01*
X353555Y75053D01*
X357645Y75053D01*
X361425Y73487D01*
X364317Y70595D01*
X365883Y66815D01*
X365883Y62725D01*
X364317Y58945D01*
X361425Y56053D01*
X357645Y54487D01*
X353555Y54487D01*
G37*
%LPD*%
%LPC*%
G36*
X467855Y54487D02*
X467855Y54487D01*
X464075Y56053D01*
X461183Y58945D01*
X459617Y62725D01*
X459617Y66815D01*
X461183Y70595D01*
X464075Y73487D01*
X467855Y75053D01*
X471945Y75053D01*
X475725Y73487D01*
X478617Y70595D01*
X480183Y66815D01*
X480183Y62725D01*
X478617Y58945D01*
X475725Y56053D01*
X471945Y54487D01*
X467855Y54487D01*
G37*
%LPD*%
%LPC*%
G36*
X164105Y601857D02*
X164105Y601857D01*
X160325Y603423D01*
X157433Y606315D01*
X155867Y610095D01*
X155867Y614185D01*
X157433Y617965D01*
X160325Y620857D01*
X164105Y622423D01*
X168195Y622423D01*
X171975Y620857D01*
X174867Y617965D01*
X176433Y614185D01*
X176433Y610095D01*
X174867Y606315D01*
X171975Y603423D01*
X168195Y601857D01*
X164105Y601857D01*
G37*
%LPD*%
%LPC*%
G36*
X138705Y601857D02*
X138705Y601857D01*
X134925Y603423D01*
X132033Y606315D01*
X130467Y610095D01*
X130467Y614185D01*
X132033Y617965D01*
X134925Y620857D01*
X138705Y622423D01*
X142795Y622423D01*
X146575Y620857D01*
X149467Y617965D01*
X151033Y614185D01*
X151033Y610095D01*
X149467Y606315D01*
X146575Y603423D01*
X142795Y601857D01*
X138705Y601857D01*
G37*
%LPD*%
%LPC*%
G36*
X247714Y250475D02*
X247714Y250475D01*
X245485Y251399D01*
X243779Y253105D01*
X242855Y255334D01*
X242855Y257746D01*
X243779Y259975D01*
X244992Y261188D01*
X245052Y261267D01*
X245120Y261339D01*
X245149Y261392D01*
X245186Y261440D01*
X245226Y261531D01*
X245274Y261617D01*
X245289Y261676D01*
X245313Y261731D01*
X245328Y261829D01*
X245353Y261925D01*
X245359Y262025D01*
X245363Y262046D01*
X245361Y262058D01*
X245363Y262086D01*
X245363Y272584D01*
X245351Y272682D01*
X245348Y272781D01*
X245331Y272840D01*
X245323Y272900D01*
X245287Y272992D01*
X245259Y273087D01*
X245229Y273139D01*
X245206Y273195D01*
X245148Y273275D01*
X245098Y273361D01*
X245032Y273436D01*
X245020Y273453D01*
X245010Y273460D01*
X244992Y273482D01*
X243779Y274695D01*
X242855Y276924D01*
X242855Y279336D01*
X243779Y281565D01*
X245485Y283271D01*
X247714Y284195D01*
X250126Y284195D01*
X252355Y283271D01*
X254061Y281565D01*
X254985Y279336D01*
X254985Y276924D01*
X254061Y274695D01*
X252848Y273482D01*
X252788Y273403D01*
X252720Y273331D01*
X252691Y273278D01*
X252654Y273230D01*
X252614Y273139D01*
X252566Y273053D01*
X252551Y272994D01*
X252527Y272939D01*
X252512Y272841D01*
X252487Y272745D01*
X252481Y272645D01*
X252477Y272624D01*
X252479Y272612D01*
X252477Y272584D01*
X252477Y262086D01*
X252489Y261988D01*
X252492Y261889D01*
X252509Y261830D01*
X252517Y261770D01*
X252553Y261678D01*
X252581Y261583D01*
X252611Y261531D01*
X252634Y261475D01*
X252692Y261395D01*
X252742Y261309D01*
X252808Y261234D01*
X252820Y261217D01*
X252830Y261210D01*
X252848Y261188D01*
X254061Y259975D01*
X254985Y257746D01*
X254985Y255334D01*
X254061Y253105D01*
X252355Y251399D01*
X250126Y250475D01*
X247714Y250475D01*
G37*
%LPD*%
%LPC*%
G36*
X428054Y303815D02*
X428054Y303815D01*
X425825Y304739D01*
X424119Y306445D01*
X423195Y308674D01*
X423195Y311086D01*
X424119Y313315D01*
X425825Y315021D01*
X428054Y315945D01*
X430466Y315945D01*
X432695Y315021D01*
X433908Y313808D01*
X433987Y313748D01*
X434059Y313680D01*
X434112Y313651D01*
X434160Y313614D01*
X434251Y313574D01*
X434337Y313526D01*
X434396Y313511D01*
X434451Y313487D01*
X434549Y313472D01*
X434645Y313447D01*
X434745Y313441D01*
X434766Y313437D01*
X434778Y313439D01*
X434806Y313437D01*
X436151Y313437D01*
X436249Y313449D01*
X436348Y313452D01*
X436406Y313469D01*
X436467Y313477D01*
X436559Y313513D01*
X436654Y313541D01*
X436706Y313571D01*
X436762Y313594D01*
X436842Y313652D01*
X436928Y313702D01*
X437003Y313768D01*
X437020Y313780D01*
X437027Y313790D01*
X437049Y313808D01*
X438064Y314823D01*
X438124Y314902D01*
X438192Y314974D01*
X438221Y315027D01*
X438258Y315075D01*
X438298Y315166D01*
X438346Y315252D01*
X438361Y315311D01*
X438385Y315367D01*
X438400Y315465D01*
X438425Y315560D01*
X438431Y315660D01*
X438435Y315681D01*
X438433Y315693D01*
X438435Y315721D01*
X438435Y317436D01*
X439359Y319665D01*
X441065Y321371D01*
X443294Y322295D01*
X445706Y322295D01*
X447935Y321371D01*
X449641Y319665D01*
X450565Y317436D01*
X450565Y315024D01*
X449641Y312795D01*
X447935Y311089D01*
X445706Y310165D01*
X443991Y310165D01*
X443893Y310153D01*
X443794Y310150D01*
X443736Y310133D01*
X443675Y310125D01*
X443583Y310089D01*
X443488Y310061D01*
X443436Y310031D01*
X443380Y310008D01*
X443300Y309950D01*
X443214Y309900D01*
X443139Y309834D01*
X443122Y309822D01*
X443115Y309812D01*
X443093Y309794D01*
X439623Y306323D01*
X434806Y306323D01*
X434708Y306311D01*
X434609Y306308D01*
X434550Y306291D01*
X434490Y306283D01*
X434398Y306247D01*
X434303Y306219D01*
X434251Y306189D01*
X434195Y306166D01*
X434115Y306108D01*
X434029Y306058D01*
X433954Y305992D01*
X433937Y305980D01*
X433930Y305970D01*
X433908Y305952D01*
X432695Y304739D01*
X430466Y303815D01*
X428054Y303815D01*
G37*
%LPD*%
%LPC*%
G36*
X485589Y665479D02*
X485589Y665479D01*
X485589Y677260D01*
X486455Y677123D01*
X488632Y676415D01*
X490671Y675376D01*
X492523Y674031D01*
X494141Y672413D01*
X495486Y670561D01*
X496525Y668522D01*
X497233Y666345D01*
X497370Y665479D01*
X485589Y665479D01*
G37*
%LPD*%
%LPC*%
G36*
X536389Y665479D02*
X536389Y665479D01*
X536389Y677260D01*
X537255Y677123D01*
X539432Y676415D01*
X541471Y675376D01*
X543323Y674031D01*
X544941Y672413D01*
X546286Y670561D01*
X547325Y668522D01*
X548033Y666345D01*
X548170Y665479D01*
X536389Y665479D01*
G37*
%LPD*%
%LPC*%
G36*
X485589Y614679D02*
X485589Y614679D01*
X485589Y626460D01*
X486455Y626323D01*
X488632Y625615D01*
X490671Y624576D01*
X492523Y623231D01*
X494141Y621613D01*
X495486Y619761D01*
X496525Y617722D01*
X497233Y615545D01*
X497370Y614679D01*
X485589Y614679D01*
G37*
%LPD*%
%LPC*%
G36*
X536389Y614679D02*
X536389Y614679D01*
X536389Y626460D01*
X537255Y626323D01*
X539432Y625615D01*
X541471Y624576D01*
X543323Y623231D01*
X544941Y621613D01*
X546286Y619761D01*
X547325Y617722D01*
X548033Y615545D01*
X548170Y614679D01*
X536389Y614679D01*
G37*
%LPD*%
%LPC*%
G36*
X536389Y609601D02*
X536389Y609601D01*
X548170Y609601D01*
X548033Y608735D01*
X547912Y608364D01*
X547325Y606558D01*
X546286Y604519D01*
X544941Y602667D01*
X543323Y601049D01*
X541471Y599704D01*
X539432Y598665D01*
X537255Y597957D01*
X536389Y597820D01*
X536389Y609601D01*
G37*
%LPD*%
%LPC*%
G36*
X485589Y609601D02*
X485589Y609601D01*
X497370Y609601D01*
X497233Y608735D01*
X497112Y608364D01*
X496525Y606558D01*
X495486Y604519D01*
X494141Y602667D01*
X492523Y601049D01*
X490671Y599704D01*
X488632Y598665D01*
X486455Y597957D01*
X485589Y597820D01*
X485589Y609601D01*
G37*
%LPD*%
%LPC*%
G36*
X468730Y665479D02*
X468730Y665479D01*
X468867Y666345D01*
X469575Y668522D01*
X470614Y670561D01*
X471959Y672413D01*
X473577Y674031D01*
X475429Y675376D01*
X477468Y676415D01*
X479645Y677123D01*
X480511Y677260D01*
X480511Y665479D01*
X468730Y665479D01*
G37*
%LPD*%
%LPC*%
G36*
X519530Y665479D02*
X519530Y665479D01*
X519667Y666345D01*
X520375Y668522D01*
X521414Y670561D01*
X522759Y672413D01*
X524377Y674031D01*
X526229Y675376D01*
X528268Y676415D01*
X530445Y677123D01*
X531311Y677260D01*
X531311Y665479D01*
X519530Y665479D01*
G37*
%LPD*%
%LPC*%
G36*
X485589Y660401D02*
X485589Y660401D01*
X497370Y660401D01*
X497233Y659535D01*
X496525Y657358D01*
X495486Y655319D01*
X494141Y653467D01*
X492523Y651849D01*
X490671Y650504D01*
X488632Y649465D01*
X486455Y648757D01*
X485589Y648620D01*
X485589Y660401D01*
G37*
%LPD*%
%LPC*%
G36*
X519530Y614679D02*
X519530Y614679D01*
X519667Y615545D01*
X520375Y617722D01*
X521414Y619761D01*
X522759Y621613D01*
X524377Y623231D01*
X526229Y624576D01*
X528268Y625615D01*
X530445Y626323D01*
X531311Y626460D01*
X531311Y614679D01*
X519530Y614679D01*
G37*
%LPD*%
%LPC*%
G36*
X536389Y660401D02*
X536389Y660401D01*
X548170Y660401D01*
X548033Y659535D01*
X547325Y657358D01*
X546286Y655319D01*
X544941Y653467D01*
X543323Y651849D01*
X541471Y650504D01*
X539432Y649465D01*
X537255Y648757D01*
X536389Y648620D01*
X536389Y660401D01*
G37*
%LPD*%
%LPC*%
G36*
X468730Y614679D02*
X468730Y614679D01*
X468867Y615545D01*
X469575Y617722D01*
X470614Y619761D01*
X471959Y621613D01*
X473577Y623231D01*
X475429Y624576D01*
X477468Y625615D01*
X479645Y626323D01*
X480511Y626460D01*
X480511Y614679D01*
X468730Y614679D01*
G37*
%LPD*%
%LPC*%
G36*
X530445Y648757D02*
X530445Y648757D01*
X528268Y649465D01*
X526229Y650504D01*
X524377Y651849D01*
X522759Y653467D01*
X521414Y655319D01*
X520375Y657358D01*
X519667Y659535D01*
X519530Y660401D01*
X531311Y660401D01*
X531311Y648620D01*
X530445Y648757D01*
G37*
%LPD*%
%LPC*%
G36*
X530445Y597957D02*
X530445Y597957D01*
X528268Y598665D01*
X526229Y599704D01*
X524377Y601049D01*
X522759Y602667D01*
X521414Y604519D01*
X520375Y606558D01*
X519667Y608735D01*
X519530Y609601D01*
X531311Y609601D01*
X531311Y597820D01*
X530445Y597957D01*
G37*
%LPD*%
%LPC*%
G36*
X479645Y597957D02*
X479645Y597957D01*
X477468Y598665D01*
X475429Y599704D01*
X473577Y601049D01*
X471959Y602667D01*
X470614Y604519D01*
X469575Y606558D01*
X468867Y608735D01*
X468730Y609601D01*
X480511Y609601D01*
X480511Y597820D01*
X479645Y597957D01*
G37*
%LPD*%
%LPC*%
G36*
X479645Y648757D02*
X479645Y648757D01*
X477468Y649465D01*
X475429Y650504D01*
X473577Y651849D01*
X471959Y653467D01*
X470614Y655319D01*
X469575Y657358D01*
X468867Y659535D01*
X468730Y660401D01*
X480511Y660401D01*
X480511Y648620D01*
X479645Y648757D01*
G37*
%LPD*%
%LPC*%
G36*
X115989Y615079D02*
X115989Y615079D01*
X115989Y626100D01*
X116679Y625991D01*
X118744Y625320D01*
X120678Y624335D01*
X122434Y623059D01*
X123969Y621524D01*
X125245Y619768D01*
X126230Y617834D01*
X126901Y615769D01*
X127010Y615079D01*
X115989Y615079D01*
G37*
%LPD*%
%LPC*%
G36*
X45989Y615079D02*
X45989Y615079D01*
X45989Y626100D01*
X46679Y625991D01*
X48744Y625320D01*
X50678Y624335D01*
X52434Y623059D01*
X53969Y621524D01*
X55245Y619768D01*
X56230Y617834D01*
X56901Y615769D01*
X57010Y615079D01*
X45989Y615079D01*
G37*
%LPD*%
%LPC*%
G36*
X45989Y610001D02*
X45989Y610001D01*
X57010Y610001D01*
X56901Y609311D01*
X56594Y608364D01*
X56230Y607246D01*
X55245Y605312D01*
X53969Y603556D01*
X52434Y602021D01*
X50678Y600745D01*
X48744Y599760D01*
X46679Y599089D01*
X45989Y598980D01*
X45989Y610001D01*
G37*
%LPD*%
%LPC*%
G36*
X115989Y610001D02*
X115989Y610001D01*
X127010Y610001D01*
X126901Y609311D01*
X126594Y608364D01*
X126230Y607246D01*
X125245Y605312D01*
X123969Y603556D01*
X122434Y602021D01*
X120678Y600745D01*
X118744Y599760D01*
X116679Y599089D01*
X115989Y598980D01*
X115989Y610001D01*
G37*
%LPD*%
%LPC*%
G36*
X29890Y615079D02*
X29890Y615079D01*
X29999Y615769D01*
X30670Y617834D01*
X31655Y619768D01*
X32931Y621524D01*
X34466Y623059D01*
X36222Y624335D01*
X38156Y625320D01*
X40221Y625991D01*
X40911Y626100D01*
X40911Y615079D01*
X29890Y615079D01*
G37*
%LPD*%
%LPC*%
G36*
X99890Y615079D02*
X99890Y615079D01*
X99999Y615769D01*
X100670Y617834D01*
X101655Y619768D01*
X102931Y621524D01*
X104466Y623059D01*
X106222Y624335D01*
X108156Y625320D01*
X110221Y625991D01*
X110911Y626100D01*
X110911Y615079D01*
X99890Y615079D01*
G37*
%LPD*%
%LPC*%
G36*
X40221Y599089D02*
X40221Y599089D01*
X38156Y599760D01*
X36222Y600745D01*
X34466Y602021D01*
X32931Y603556D01*
X31655Y605312D01*
X30670Y607246D01*
X29999Y609311D01*
X29890Y610001D01*
X40911Y610001D01*
X40911Y598980D01*
X40221Y599089D01*
G37*
%LPD*%
%LPC*%
G36*
X110221Y599089D02*
X110221Y599089D01*
X108156Y599760D01*
X106222Y600745D01*
X104466Y602021D01*
X102931Y603556D01*
X101655Y605312D01*
X100670Y607246D01*
X99999Y609311D01*
X99890Y610001D01*
X110911Y610001D01*
X110911Y598980D01*
X110221Y599089D01*
G37*
%LPD*%
%LPC*%
G36*
X262889Y505459D02*
X262889Y505459D01*
X262889Y513441D01*
X264492Y512920D01*
X266006Y512149D01*
X267380Y511151D01*
X268581Y509950D01*
X269579Y508576D01*
X270350Y507062D01*
X270871Y505459D01*
X262889Y505459D01*
G37*
%LPD*%
%LPC*%
G36*
X195579Y332739D02*
X195579Y332739D01*
X195579Y340721D01*
X197182Y340200D01*
X198696Y339429D01*
X200070Y338431D01*
X201271Y337230D01*
X202269Y335856D01*
X203040Y334342D01*
X203561Y332739D01*
X195579Y332739D01*
G37*
%LPD*%
%LPC*%
G36*
X167639Y67309D02*
X167639Y67309D01*
X167639Y75291D01*
X169242Y74770D01*
X170756Y73999D01*
X172130Y73001D01*
X173331Y71800D01*
X174329Y70426D01*
X175100Y68912D01*
X175621Y67309D01*
X167639Y67309D01*
G37*
%LPD*%
%LPC*%
G36*
X58489Y640079D02*
X58489Y640079D01*
X58489Y648061D01*
X60092Y647540D01*
X61606Y646769D01*
X62980Y645771D01*
X64181Y644570D01*
X65179Y643196D01*
X65950Y641682D01*
X66471Y640079D01*
X58489Y640079D01*
G37*
%LPD*%
%LPC*%
G36*
X45429Y640079D02*
X45429Y640079D01*
X45950Y641682D01*
X46721Y643196D01*
X47719Y644570D01*
X48920Y645771D01*
X50294Y646769D01*
X51808Y647540D01*
X53411Y648061D01*
X53411Y640079D01*
X45429Y640079D01*
G37*
%LPD*%
%LPC*%
G36*
X195579Y327661D02*
X195579Y327661D01*
X203561Y327661D01*
X203040Y326058D01*
X202269Y324544D01*
X201271Y323170D01*
X200070Y321969D01*
X198696Y320971D01*
X197182Y320200D01*
X195579Y319679D01*
X195579Y327661D01*
G37*
%LPD*%
%LPC*%
G36*
X262889Y500381D02*
X262889Y500381D01*
X270871Y500381D01*
X270350Y498778D01*
X269579Y497264D01*
X268581Y495890D01*
X267380Y494689D01*
X266006Y493691D01*
X264492Y492920D01*
X262889Y492399D01*
X262889Y500381D01*
G37*
%LPD*%
%LPC*%
G36*
X249829Y505459D02*
X249829Y505459D01*
X250350Y507062D01*
X251121Y508576D01*
X252119Y509950D01*
X253320Y511151D01*
X254694Y512149D01*
X256208Y512920D01*
X257811Y513441D01*
X257811Y505459D01*
X249829Y505459D01*
G37*
%LPD*%
%LPC*%
G36*
X182519Y332739D02*
X182519Y332739D01*
X183040Y334342D01*
X183811Y335856D01*
X184809Y337230D01*
X186010Y338431D01*
X187384Y339429D01*
X188898Y340200D01*
X190501Y340721D01*
X190501Y332739D01*
X182519Y332739D01*
G37*
%LPD*%
%LPC*%
G36*
X154579Y67309D02*
X154579Y67309D01*
X155100Y68912D01*
X155871Y70426D01*
X156869Y71800D01*
X158070Y73001D01*
X159444Y73999D01*
X160958Y74770D01*
X162561Y75291D01*
X162561Y67309D01*
X154579Y67309D01*
G37*
%LPD*%
%LPC*%
G36*
X237489Y500381D02*
X237489Y500381D01*
X245471Y500381D01*
X244950Y498778D01*
X244179Y497264D01*
X243181Y495890D01*
X241980Y494689D01*
X240606Y493691D01*
X239092Y492920D01*
X237489Y492399D01*
X237489Y500381D01*
G37*
%LPD*%
%LPC*%
G36*
X58489Y635001D02*
X58489Y635001D01*
X66471Y635001D01*
X65950Y633398D01*
X65179Y631884D01*
X64181Y630510D01*
X62980Y629309D01*
X61606Y628311D01*
X60092Y627540D01*
X58489Y627019D01*
X58489Y635001D01*
G37*
%LPD*%
%LPC*%
G36*
X167639Y62231D02*
X167639Y62231D01*
X175621Y62231D01*
X175100Y60628D01*
X174329Y59114D01*
X173331Y57740D01*
X172130Y56539D01*
X170756Y55541D01*
X169242Y54770D01*
X167639Y54249D01*
X167639Y62231D01*
G37*
%LPD*%
%LPC*%
G36*
X188898Y320200D02*
X188898Y320200D01*
X187384Y320971D01*
X186010Y321969D01*
X184809Y323170D01*
X183811Y324544D01*
X183040Y326058D01*
X182519Y327661D01*
X190501Y327661D01*
X190501Y319679D01*
X188898Y320200D01*
G37*
%LPD*%
%LPC*%
G36*
X51808Y627540D02*
X51808Y627540D01*
X50294Y628311D01*
X48920Y629309D01*
X47719Y630510D01*
X46721Y631884D01*
X45950Y633398D01*
X45429Y635001D01*
X53411Y635001D01*
X53411Y627019D01*
X51808Y627540D01*
G37*
%LPD*%
%LPC*%
G36*
X256208Y492920D02*
X256208Y492920D01*
X254694Y493691D01*
X253320Y494689D01*
X252119Y495890D01*
X251121Y497264D01*
X250350Y498778D01*
X249829Y500381D01*
X257811Y500381D01*
X257811Y492399D01*
X256208Y492920D01*
G37*
%LPD*%
%LPC*%
G36*
X230808Y492920D02*
X230808Y492920D01*
X229294Y493691D01*
X227920Y494689D01*
X226719Y495890D01*
X225721Y497264D01*
X224950Y498778D01*
X224429Y500381D01*
X232411Y500381D01*
X232411Y492399D01*
X230808Y492920D01*
G37*
%LPD*%
%LPC*%
G36*
X160958Y54770D02*
X160958Y54770D01*
X159444Y55541D01*
X158070Y56539D01*
X156869Y57740D01*
X155871Y59114D01*
X155100Y60628D01*
X154579Y62231D01*
X162561Y62231D01*
X162561Y54249D01*
X160958Y54770D01*
G37*
%LPD*%
%LPC*%
G36*
X533849Y612139D02*
X533849Y612139D01*
X533849Y612141D01*
X533851Y612141D01*
X533851Y612139D01*
X533849Y612139D01*
G37*
%LPD*%
%LPC*%
G36*
X113449Y612539D02*
X113449Y612539D01*
X113449Y612541D01*
X113451Y612541D01*
X113451Y612539D01*
X113449Y612539D01*
G37*
%LPD*%
%LPC*%
G36*
X260349Y502919D02*
X260349Y502919D01*
X260349Y502921D01*
X260351Y502921D01*
X260351Y502919D01*
X260349Y502919D01*
G37*
%LPD*%
%LPC*%
G36*
X483049Y662939D02*
X483049Y662939D01*
X483049Y662941D01*
X483051Y662941D01*
X483051Y662939D01*
X483049Y662939D01*
G37*
%LPD*%
%LPC*%
G36*
X483049Y612139D02*
X483049Y612139D01*
X483049Y612141D01*
X483051Y612141D01*
X483051Y612139D01*
X483049Y612139D01*
G37*
%LPD*%
%LPC*%
G36*
X55949Y637539D02*
X55949Y637539D01*
X55949Y637541D01*
X55951Y637541D01*
X55951Y637539D01*
X55949Y637539D01*
G37*
%LPD*%
%LPC*%
G36*
X193039Y330199D02*
X193039Y330199D01*
X193039Y330201D01*
X193041Y330201D01*
X193041Y330199D01*
X193039Y330199D01*
G37*
%LPD*%
%LPC*%
G36*
X165099Y64769D02*
X165099Y64769D01*
X165099Y64771D01*
X165101Y64771D01*
X165101Y64769D01*
X165099Y64769D01*
G37*
%LPD*%
%LPC*%
G36*
X43449Y612539D02*
X43449Y612539D01*
X43449Y612541D01*
X43451Y612541D01*
X43451Y612539D01*
X43449Y612539D01*
G37*
%LPD*%
%LPC*%
G36*
X533849Y662939D02*
X533849Y662939D01*
X533849Y662941D01*
X533851Y662941D01*
X533851Y662939D01*
X533849Y662939D01*
G37*
%LPD*%
D10*
X218440Y330200D03*
X193040Y355600D03*
X193040Y330200D03*
X243840Y355600D03*
X243840Y330200D03*
X218440Y355600D03*
X234950Y502920D03*
X260350Y579120D03*
X260350Y553720D03*
X234950Y579120D03*
X234950Y553720D03*
X234950Y528320D03*
X260350Y528320D03*
X260350Y502920D03*
D11*
X508450Y637540D03*
X483050Y662940D03*
X483050Y612140D03*
X533850Y612140D03*
X533850Y662940D03*
D10*
X393700Y64770D03*
X355600Y64770D03*
X317500Y64770D03*
X279400Y64770D03*
X241300Y64770D03*
X203200Y64770D03*
X165100Y64770D03*
X127000Y64770D03*
X431800Y64770D03*
X469900Y64770D03*
X100950Y637540D03*
X55950Y637540D03*
D12*
X113450Y612540D03*
X43450Y612540D03*
D10*
X140750Y612140D03*
X166150Y612140D03*
D13*
X308610Y265430D03*
X373380Y266700D03*
X389890Y351790D03*
X330200Y328930D03*
X261620Y353060D03*
X389890Y420370D03*
X135890Y441960D03*
X283210Y397510D03*
X243840Y383540D03*
X320040Y439420D03*
D14*
X224790Y626110D03*
D13*
X284480Y637540D03*
X284480Y627380D03*
X462280Y627380D03*
X283210Y538480D03*
X347980Y439420D03*
X198120Y671830D03*
X227330Y671830D03*
X250190Y671830D03*
X279400Y671830D03*
X207010Y646430D03*
X270510Y646430D03*
X110490Y375920D03*
X99060Y356870D03*
X110490Y337820D03*
X110490Y313690D03*
X143510Y205740D03*
X143510Y196850D03*
X166370Y157480D03*
X110490Y154940D03*
X110490Y140970D03*
X313690Y193040D03*
X313690Y177800D03*
X391160Y193040D03*
X391160Y177800D03*
X360680Y196850D03*
X374650Y196850D03*
X374650Y207010D03*
X452120Y207010D03*
X438150Y196850D03*
X452120Y196850D03*
X156210Y147320D03*
X325120Y406400D03*
X360680Y406400D03*
X360680Y370840D03*
X325120Y370840D03*
X299720Y233680D03*
X195580Y229870D03*
X236220Y233680D03*
X259080Y229870D03*
X429260Y340360D03*
X363220Y483870D03*
D14*
X172720Y458470D03*
D13*
X283210Y548640D03*
X327660Y497840D03*
D15*
X320072Y505428D01*
X290830Y541591D02*
X283781Y548640D01*
X283210Y548640D01*
X290830Y541591D02*
X290830Y514350D01*
X299752Y505428D02*
X320072Y505428D01*
X299752Y505428D02*
X290830Y514350D01*
D13*
X308610Y439420D03*
D16*
X179070Y528320D03*
D13*
X167640Y212090D03*
D16*
X153670Y278130D03*
D17*
X153670Y226060D02*
X167640Y212090D01*
X153670Y226060D02*
X153670Y278130D01*
D16*
X119380Y459740D03*
X138430Y356870D03*
D18*
X138430Y372110D01*
X119380Y411480D02*
X119380Y459740D01*
X119380Y411480D02*
X119380Y391160D01*
X138430Y372110D01*
D16*
X195580Y278130D03*
X449580Y241300D03*
X416560Y241300D03*
D17*
X416560Y240780D02*
X419564Y237776D01*
X416560Y240780D02*
X416560Y241300D01*
X419564Y237776D02*
X446056Y237776D01*
X449580Y241300D01*
D16*
X372110Y241300D03*
X339090Y241300D03*
D17*
X372110Y241300D01*
X195580Y278130D02*
X153670Y278130D01*
D14*
X149860Y411480D03*
D17*
X119380Y411480D01*
D13*
X248920Y256540D03*
X248920Y278130D03*
D15*
X248920Y256540D01*
D18*
X234950Y528320D02*
X179070Y528320D01*
D19*
X308610Y440158D02*
X317016Y448564D01*
X308610Y440158D02*
X308610Y439420D01*
D16*
X403860Y368300D03*
D13*
X373380Y452120D03*
D19*
X369824Y448564D02*
X317016Y448564D01*
X369824Y448564D02*
X373380Y452120D01*
D16*
X406400Y403860D03*
D20*
X403860Y401320D01*
X403860Y368300D01*
D13*
X283210Y382270D03*
X283210Y417830D03*
X149860Y477520D03*
X101600Y477520D03*
D20*
X149860Y477520D01*
D13*
X231140Y425450D03*
D20*
X269240Y425450D01*
X273050Y421640D01*
X273050Y417830D01*
X273050Y392430D01*
X283210Y382270D01*
X283210Y417830D02*
X273050Y417830D01*
D13*
X294640Y499110D03*
X340360Y487680D03*
D15*
X335543Y487680D01*
X333035Y485172D01*
X322413Y485172D02*
X317333Y490252D01*
X322413Y485172D02*
X333035Y485172D01*
X317333Y490252D02*
X309277Y490252D01*
X300419Y499110D02*
X294640Y499110D01*
X300419Y499110D02*
X309277Y490252D01*
D13*
X431800Y248920D03*
X408940Y266700D03*
X393700Y266700D03*
D15*
X429062Y251658D02*
X431800Y248920D01*
X429062Y251658D02*
X413822Y251658D01*
X408940Y256540D02*
X408940Y266700D01*
X408940Y256540D02*
X413822Y251658D01*
X408940Y266700D02*
X393700Y266700D01*
D13*
X312420Y497840D03*
D15*
X316929Y497840D01*
X324517Y490252D01*
X330931Y490252D01*
X335947Y495268D01*
X343503Y495268D01*
X347948Y490823D02*
X347948Y485172D01*
X347948Y490823D02*
X343503Y495268D01*
X347948Y485172D02*
X356870Y476250D01*
X383540Y476250D01*
D13*
X401320Y441960D03*
D15*
X398780Y461010D02*
X383540Y476250D01*
X398780Y444500D02*
X401320Y441960D01*
X398780Y444500D02*
X398780Y461010D01*
X278162Y561308D02*
X260350Y579120D01*
X278162Y561308D02*
X288457Y561308D01*
X300990Y548775D02*
X300990Y518994D01*
X300990Y548775D02*
X288457Y561308D01*
X300990Y518994D02*
X304396Y515588D01*
X328526Y515588D01*
D13*
X431800Y487680D03*
D15*
X347712Y505428D02*
X338686Y505428D01*
X356602Y496538D02*
X423776Y496538D01*
X431800Y488514D02*
X431800Y487680D01*
X431800Y488514D02*
X423776Y496538D01*
X356602Y496538D02*
X347712Y505428D01*
X338686Y505428D02*
X328526Y515588D01*
X262858Y556228D02*
X260350Y553720D01*
X262858Y556228D02*
X286353Y556228D01*
X295910Y546671D01*
X295910Y516890D02*
X302292Y510508D01*
X326422Y510508D02*
X336582Y500348D01*
X326422Y510508D02*
X302292Y510508D01*
X295910Y516890D02*
X295910Y546671D01*
D13*
X431800Y472440D03*
D15*
X354497Y491458D02*
X345607Y500348D01*
X336582Y500348D01*
X421672Y491458D02*
X424212Y488918D01*
X431800Y476949D02*
X431800Y472440D01*
X431800Y476949D02*
X424212Y484537D01*
X424212Y488918D01*
X421672Y491458D02*
X354497Y491458D01*
D14*
X146050Y398780D03*
X157480Y370840D03*
D17*
X146050Y390186D02*
X146050Y398780D01*
X146050Y390186D02*
X156972Y379264D01*
X156972Y371348D01*
X157480Y370840D01*
D13*
X298450Y353060D03*
X233680Y383540D03*
D15*
X233680Y382969D02*
X240697Y375952D01*
X233680Y382969D02*
X233680Y383540D01*
X240697Y375952D02*
X257778Y375952D01*
X280670Y353060D01*
D13*
X236220Y447040D03*
D15*
X213360Y447040D01*
D13*
X135890Y524510D03*
D15*
X213360Y447040D01*
X280670Y353060D02*
X298450Y353060D01*
D13*
X285750Y256540D03*
D15*
X377357Y251492D02*
X386080Y260215D01*
X386080Y269240D01*
X386112Y269272D01*
X386112Y269843D01*
X390557Y274288D01*
X290798Y251492D02*
X285750Y256540D01*
X290798Y251492D02*
X377357Y251492D01*
D13*
X469900Y274320D03*
D15*
X469868Y274288D02*
X390557Y274288D01*
X469868Y274288D02*
X469900Y274320D01*
D13*
X285750Y266700D03*
D15*
X375253Y256572D02*
X380968Y262287D01*
X380968Y269208D01*
X381000Y269240D01*
X381000Y271915D01*
X296449Y256572D02*
X286321Y266700D01*
X285750Y266700D01*
X296449Y256572D02*
X375253Y256572D01*
D13*
X469900Y284480D03*
D15*
X388453Y279368D02*
X381000Y271915D01*
X469329Y284480D02*
X469900Y284480D01*
X469329Y284480D02*
X464217Y279368D01*
X388453Y279368D01*
D14*
X224790Y613410D03*
X254000Y613410D03*
D17*
X224790Y613410D01*
D13*
X360680Y207010D03*
D15*
X373348Y219678D01*
D13*
X469900Y224790D03*
D15*
X452588Y219710D02*
X452556Y219678D01*
X469329Y224790D02*
X469900Y224790D01*
X469329Y224790D02*
X464249Y219710D01*
X452588Y219710D01*
X452556Y219678D02*
X373348Y219678D01*
D13*
X256540Y452120D03*
D15*
X242570Y452120D01*
X240062Y454628D01*
X233077Y454628D01*
X230569Y452120D01*
X215464Y452120D01*
D13*
X151130Y524510D03*
D15*
X151130Y516454D01*
X215464Y452120D01*
D13*
X438150Y207010D03*
D15*
X445738Y214598D01*
X454660Y214598D01*
D13*
X429260Y309880D03*
X444500Y316230D03*
D15*
X438150Y309880D01*
X429260Y309880D01*
D13*
X469900Y214630D03*
D15*
X454692Y214630D02*
X454660Y214598D01*
X454692Y214630D02*
X469900Y214630D01*
D13*
X389890Y341630D03*
D15*
X389319Y341630D01*
X382270Y348679D01*
X382270Y423481D01*
X393700Y434911D01*
X393700Y458906D02*
X381436Y471170D01*
X393700Y458906D02*
X393700Y434911D01*
D13*
X269240Y483870D03*
D15*
X345844Y480092D02*
X354766Y471170D01*
X345844Y480092D02*
X320308Y480092D01*
X316530Y483870D02*
X269240Y483870D01*
X354766Y471170D02*
X381436Y471170D01*
X320308Y480092D02*
X316530Y483870D01*
D13*
X389890Y331470D03*
D15*
X389319Y331470D01*
X382270Y338519D01*
X382270Y341495D01*
X377190Y346575D01*
X377190Y425585D01*
X388620Y437015D01*
X388620Y456802D02*
X379332Y466090D01*
X388620Y456802D02*
X388620Y437015D01*
D13*
X269240Y473710D03*
D15*
X343740Y475012D02*
X352662Y466090D01*
X318204Y475012D02*
X314426Y478790D01*
X318204Y475012D02*
X343740Y475012D01*
X274891Y478790D02*
X269811Y473710D01*
X269240Y473710D01*
X274891Y478790D02*
X314426Y478790D01*
X352662Y466090D02*
X379332Y466090D01*
D16*
X347980Y95250D03*
D20*
X354330Y88900D01*
X383540Y88900D01*
X393700Y78740D01*
X393700Y64770D01*
D16*
X478790Y95250D03*
D20*
X472440Y88900D01*
X441960Y88900D01*
X431800Y78740D01*
X431800Y64770D01*
D21*
X0Y0D02*
X596900Y0D01*
X596900Y685800D01*
X0Y685800D01*
X0Y0D01*
M02*
