G04 EAGLE Gerber RS-274X export*
G75*
%MOMM*%
%FSLAX34Y34*%
%LPD*%
%INBottom Copper*%
%IPPOS*%
%AMOC8*
5,1,8,0,0,1.08239X$1,22.5*%
G01*
%ADD10C,1.650000*%
%ADD11C,2.400000*%
%ADD12C,2.250000*%
%ADD13C,0.806400*%
%ADD14C,1.006400*%
%ADD15C,0.304800*%
%ADD16C,1.106400*%
%ADD17C,2.032000*%
%ADD18C,1.016000*%
%ADD19C,0.508000*%
%ADD20C,0.812800*%
%ADD21C,1.270000*%
%ADD22C,0.254000*%

G36*
X595748Y16D02*
X595748Y16D01*
X595867Y23D01*
X595905Y36D01*
X595946Y41D01*
X596056Y84D01*
X596169Y121D01*
X596204Y143D01*
X596241Y158D01*
X596337Y228D01*
X596438Y291D01*
X596466Y321D01*
X596499Y344D01*
X596575Y436D01*
X596656Y523D01*
X596676Y558D01*
X596701Y589D01*
X596752Y697D01*
X596810Y801D01*
X596820Y841D01*
X596837Y877D01*
X596859Y994D01*
X596889Y1109D01*
X596893Y1170D01*
X596897Y1190D01*
X596895Y1210D01*
X596899Y1270D01*
X596899Y684530D01*
X596884Y684648D01*
X596877Y684767D01*
X596864Y684805D01*
X596859Y684846D01*
X596816Y684956D01*
X596779Y685069D01*
X596757Y685104D01*
X596742Y685141D01*
X596673Y685237D01*
X596609Y685338D01*
X596579Y685366D01*
X596556Y685399D01*
X596464Y685475D01*
X596377Y685556D01*
X596342Y685576D01*
X596311Y685601D01*
X596203Y685652D01*
X596099Y685710D01*
X596059Y685720D01*
X596023Y685737D01*
X595906Y685759D01*
X595791Y685789D01*
X595731Y685793D01*
X595711Y685797D01*
X595690Y685795D01*
X595630Y685799D01*
X1270Y685799D01*
X1152Y685784D01*
X1033Y685777D01*
X995Y685764D01*
X954Y685759D01*
X844Y685716D01*
X731Y685679D01*
X696Y685657D01*
X659Y685642D01*
X563Y685573D01*
X462Y685509D01*
X434Y685479D01*
X401Y685456D01*
X326Y685364D01*
X244Y685277D01*
X224Y685242D01*
X199Y685211D01*
X148Y685103D01*
X90Y684999D01*
X80Y684959D01*
X63Y684923D01*
X41Y684806D01*
X11Y684691D01*
X7Y684631D01*
X3Y684611D01*
X5Y684590D01*
X1Y684530D01*
X1Y1270D01*
X16Y1152D01*
X23Y1033D01*
X36Y995D01*
X41Y954D01*
X84Y844D01*
X121Y731D01*
X143Y696D01*
X158Y659D01*
X228Y563D01*
X291Y462D01*
X321Y434D01*
X344Y401D01*
X436Y326D01*
X523Y244D01*
X558Y224D01*
X589Y199D01*
X697Y148D01*
X801Y90D01*
X841Y80D01*
X877Y63D01*
X994Y41D01*
X1109Y11D01*
X1170Y7D01*
X1190Y3D01*
X1210Y5D01*
X1270Y1D01*
X595630Y1D01*
X595748Y16D01*
G37*
%LPC*%
G36*
X388684Y325405D02*
X388684Y325405D01*
X386455Y326329D01*
X384749Y328035D01*
X383825Y330264D01*
X383825Y331408D01*
X383813Y331506D01*
X383810Y331605D01*
X383793Y331663D01*
X383785Y331723D01*
X383749Y331816D01*
X383721Y331911D01*
X383691Y331963D01*
X383668Y332019D01*
X383610Y332099D01*
X383560Y332185D01*
X383494Y332260D01*
X383482Y332277D01*
X383472Y332284D01*
X383454Y332305D01*
X378713Y337046D01*
X378713Y339496D01*
X378701Y339594D01*
X378698Y339693D01*
X378681Y339751D01*
X378673Y339811D01*
X378637Y339903D01*
X378609Y339998D01*
X378579Y340051D01*
X378556Y340107D01*
X378498Y340187D01*
X378448Y340272D01*
X378382Y340348D01*
X378370Y340364D01*
X378360Y340372D01*
X378342Y340393D01*
X373633Y345101D01*
X373633Y427059D01*
X379612Y433037D01*
X379672Y433115D01*
X379740Y433187D01*
X379769Y433240D01*
X379806Y433288D01*
X379846Y433379D01*
X379894Y433466D01*
X379909Y433524D01*
X379933Y433580D01*
X379948Y433678D01*
X379973Y433774D01*
X379979Y433874D01*
X379983Y433894D01*
X379981Y433906D01*
X379983Y433934D01*
X379983Y454803D01*
X379971Y454901D01*
X379968Y455000D01*
X379951Y455058D01*
X379943Y455118D01*
X379907Y455210D01*
X379879Y455305D01*
X379849Y455357D01*
X379826Y455414D01*
X379768Y455494D01*
X379718Y455579D01*
X379652Y455655D01*
X379640Y455671D01*
X379630Y455679D01*
X379612Y455700D01*
X373150Y462162D01*
X373072Y462222D01*
X373000Y462290D01*
X372947Y462319D01*
X372899Y462356D01*
X372808Y462396D01*
X372721Y462444D01*
X372663Y462459D01*
X372607Y462483D01*
X372509Y462498D01*
X372413Y462523D01*
X372313Y462529D01*
X372293Y462533D01*
X372281Y462531D01*
X372253Y462533D01*
X347378Y462533D01*
X338828Y471084D01*
X338750Y471144D01*
X338678Y471212D01*
X338625Y471241D01*
X338577Y471278D01*
X338486Y471318D01*
X338399Y471366D01*
X338341Y471381D01*
X338285Y471405D01*
X338187Y471420D01*
X338091Y471445D01*
X337991Y471451D01*
X337971Y471455D01*
X337959Y471453D01*
X337931Y471455D01*
X316731Y471455D01*
X313325Y474862D01*
X313246Y474922D01*
X313174Y474990D01*
X313121Y475019D01*
X313073Y475056D01*
X312982Y475096D01*
X312896Y475144D01*
X312837Y475159D01*
X312782Y475183D01*
X312684Y475198D01*
X312588Y475223D01*
X312488Y475229D01*
X312467Y475233D01*
X312455Y475231D01*
X312427Y475233D01*
X276890Y475233D01*
X276792Y475221D01*
X276693Y475218D01*
X276635Y475201D01*
X276575Y475193D01*
X276482Y475157D01*
X276387Y475129D01*
X276335Y475099D01*
X276279Y475076D01*
X276199Y475018D01*
X276113Y474968D01*
X276038Y474902D01*
X276021Y474890D01*
X276014Y474880D01*
X275993Y474862D01*
X275676Y474545D01*
X275616Y474467D01*
X275548Y474395D01*
X275519Y474342D01*
X275482Y474294D01*
X275442Y474203D01*
X275394Y474117D01*
X275379Y474058D01*
X275355Y474002D01*
X275340Y473904D01*
X275315Y473809D01*
X275309Y473709D01*
X275305Y473688D01*
X275307Y473676D01*
X275305Y473648D01*
X275305Y472504D01*
X274381Y470275D01*
X272675Y468569D01*
X270446Y467645D01*
X268034Y467645D01*
X265805Y468569D01*
X264099Y470275D01*
X263175Y472504D01*
X263175Y474916D01*
X264099Y477145D01*
X264846Y477892D01*
X264919Y477986D01*
X264997Y478076D01*
X265016Y478112D01*
X265041Y478144D01*
X265088Y478253D01*
X265142Y478359D01*
X265151Y478398D01*
X265167Y478436D01*
X265186Y478553D01*
X265212Y478669D01*
X265210Y478710D01*
X265217Y478750D01*
X265206Y478868D01*
X265202Y478987D01*
X265191Y479026D01*
X265187Y479066D01*
X265147Y479179D01*
X265114Y479293D01*
X265093Y479327D01*
X265079Y479366D01*
X265013Y479464D01*
X264952Y479567D01*
X264912Y479612D01*
X264901Y479629D01*
X264886Y479642D01*
X264846Y479687D01*
X264099Y480435D01*
X263175Y482664D01*
X263175Y485076D01*
X264099Y487305D01*
X265805Y489011D01*
X268034Y489935D01*
X270446Y489935D01*
X272675Y489011D01*
X273888Y487798D01*
X273967Y487738D01*
X274039Y487670D01*
X274092Y487641D01*
X274140Y487604D01*
X274231Y487564D01*
X274317Y487516D01*
X274376Y487501D01*
X274431Y487477D01*
X274529Y487462D01*
X274625Y487437D01*
X274725Y487431D01*
X274746Y487427D01*
X274758Y487429D01*
X274786Y487427D01*
X304008Y487427D01*
X304146Y487444D01*
X304284Y487457D01*
X304303Y487464D01*
X304324Y487467D01*
X304453Y487518D01*
X304584Y487565D01*
X304600Y487576D01*
X304619Y487584D01*
X304732Y487665D01*
X304847Y487743D01*
X304860Y487759D01*
X304877Y487770D01*
X304965Y487878D01*
X305057Y487982D01*
X305066Y488000D01*
X305079Y488015D01*
X305139Y488141D01*
X305202Y488265D01*
X305206Y488285D01*
X305215Y488303D01*
X305241Y488439D01*
X305272Y488575D01*
X305271Y488596D01*
X305275Y488615D01*
X305266Y488754D01*
X305262Y488893D01*
X305256Y488913D01*
X305255Y488933D01*
X305212Y489065D01*
X305173Y489199D01*
X305163Y489216D01*
X305157Y489235D01*
X305083Y489353D01*
X305012Y489473D01*
X304993Y489494D01*
X304987Y489504D01*
X304972Y489518D01*
X304906Y489593D01*
X300200Y494299D01*
X300106Y494372D01*
X300017Y494450D01*
X299981Y494469D01*
X299949Y494494D01*
X299840Y494541D01*
X299734Y494595D01*
X299694Y494604D01*
X299657Y494620D01*
X299540Y494639D01*
X299424Y494665D01*
X299383Y494663D01*
X299343Y494670D01*
X299225Y494659D01*
X299106Y494655D01*
X299067Y494644D01*
X299027Y494640D01*
X298914Y494600D01*
X298800Y494567D01*
X298765Y494546D01*
X298727Y494532D01*
X298629Y494465D01*
X298526Y494405D01*
X298481Y494365D01*
X298464Y494354D01*
X298451Y494338D01*
X298405Y494299D01*
X298075Y493969D01*
X295846Y493045D01*
X293434Y493045D01*
X291205Y493969D01*
X289499Y495675D01*
X288575Y497904D01*
X288575Y500316D01*
X289499Y502545D01*
X291205Y504251D01*
X292769Y504899D01*
X292812Y504924D01*
X292859Y504941D01*
X292950Y505002D01*
X293045Y505057D01*
X293081Y505092D01*
X293122Y505119D01*
X293194Y505202D01*
X293273Y505278D01*
X293300Y505321D01*
X293332Y505358D01*
X293382Y505456D01*
X293440Y505549D01*
X293454Y505597D01*
X293477Y505641D01*
X293501Y505748D01*
X293533Y505853D01*
X293536Y505903D01*
X293547Y505951D01*
X293543Y506061D01*
X293548Y506171D01*
X293538Y506219D01*
X293537Y506269D01*
X293506Y506375D01*
X293484Y506482D01*
X293462Y506527D01*
X293449Y506575D01*
X293393Y506669D01*
X293344Y506768D01*
X293312Y506806D01*
X293287Y506849D01*
X293181Y506969D01*
X287273Y512877D01*
X287273Y539592D01*
X287261Y539690D01*
X287258Y539789D01*
X287241Y539848D01*
X287233Y539908D01*
X287197Y540000D01*
X287169Y540095D01*
X287139Y540147D01*
X287116Y540203D01*
X287058Y540283D01*
X287008Y540369D01*
X286942Y540444D01*
X286930Y540461D01*
X286920Y540468D01*
X286902Y540490D01*
X285188Y542204D01*
X285109Y542264D01*
X285037Y542332D01*
X284984Y542361D01*
X284936Y542398D01*
X284845Y542438D01*
X284759Y542486D01*
X284700Y542501D01*
X284644Y542525D01*
X284546Y542540D01*
X284451Y542565D01*
X284351Y542571D01*
X284330Y542575D01*
X284318Y542573D01*
X284290Y542575D01*
X282004Y542575D01*
X279775Y543499D01*
X278069Y545205D01*
X277145Y547434D01*
X277145Y549846D01*
X277588Y550916D01*
X277602Y550964D01*
X277623Y551009D01*
X277643Y551117D01*
X277672Y551223D01*
X277673Y551273D01*
X277683Y551322D01*
X277676Y551431D01*
X277677Y551541D01*
X277666Y551589D01*
X277663Y551639D01*
X277629Y551743D01*
X277603Y551850D01*
X277580Y551894D01*
X277565Y551941D01*
X277506Y552034D01*
X277455Y552131D01*
X277421Y552168D01*
X277395Y552210D01*
X277315Y552285D01*
X277241Y552367D01*
X277199Y552394D01*
X277163Y552428D01*
X277067Y552481D01*
X276975Y552541D01*
X276928Y552558D01*
X276884Y552582D01*
X276778Y552609D01*
X276674Y552645D01*
X276625Y552649D01*
X276577Y552661D01*
X276416Y552671D01*
X271894Y552671D01*
X271864Y552668D01*
X271835Y552670D01*
X271707Y552648D01*
X271578Y552631D01*
X271551Y552621D01*
X271522Y552616D01*
X271403Y552562D01*
X271282Y552514D01*
X271259Y552497D01*
X271232Y552485D01*
X271130Y552404D01*
X271025Y552328D01*
X271006Y552305D01*
X270983Y552286D01*
X270905Y552183D01*
X270822Y552083D01*
X270810Y552056D01*
X270792Y552032D01*
X270721Y551888D01*
X269067Y547895D01*
X266175Y545003D01*
X262395Y543437D01*
X258305Y543437D01*
X254525Y545003D01*
X251633Y547895D01*
X250067Y551675D01*
X250067Y555765D01*
X251633Y559545D01*
X254525Y562437D01*
X258305Y564003D01*
X262395Y564003D01*
X266175Y562437D01*
X268455Y560156D01*
X268534Y560096D01*
X268606Y560028D01*
X268659Y559999D01*
X268707Y559962D01*
X268798Y559922D01*
X268884Y559874D01*
X268943Y559859D01*
X268999Y559835D01*
X269097Y559820D01*
X269192Y559795D01*
X269292Y559789D01*
X269313Y559785D01*
X269325Y559787D01*
X269353Y559785D01*
X271591Y559785D01*
X271729Y559802D01*
X271867Y559815D01*
X271887Y559822D01*
X271907Y559825D01*
X272036Y559876D01*
X272167Y559923D01*
X272184Y559934D01*
X272202Y559942D01*
X272314Y560023D01*
X272430Y560101D01*
X272443Y560117D01*
X272460Y560128D01*
X272548Y560236D01*
X272640Y560340D01*
X272650Y560358D01*
X272662Y560373D01*
X272722Y560499D01*
X272785Y560623D01*
X272789Y560643D01*
X272798Y560661D01*
X272824Y560797D01*
X272855Y560933D01*
X272854Y560954D01*
X272858Y560973D01*
X272849Y561112D01*
X272845Y561251D01*
X272839Y561271D01*
X272838Y561291D01*
X272795Y561423D01*
X272757Y561557D01*
X272746Y561574D01*
X272740Y561593D01*
X272665Y561711D01*
X272595Y561831D01*
X272576Y561852D01*
X272570Y561862D01*
X272555Y561876D01*
X272489Y561951D01*
X265263Y569177D01*
X265240Y569195D01*
X265221Y569218D01*
X265115Y569292D01*
X265012Y569372D01*
X264985Y569384D01*
X264960Y569401D01*
X264839Y569447D01*
X264720Y569498D01*
X264691Y569503D01*
X264663Y569513D01*
X264534Y569528D01*
X264406Y569548D01*
X264376Y569545D01*
X264347Y569549D01*
X264219Y569531D01*
X264089Y569518D01*
X264061Y569508D01*
X264032Y569504D01*
X263880Y569452D01*
X262395Y568837D01*
X258305Y568837D01*
X254525Y570403D01*
X251633Y573295D01*
X250067Y577075D01*
X250067Y581165D01*
X251633Y584945D01*
X254525Y587837D01*
X258305Y589403D01*
X262395Y589403D01*
X266175Y587837D01*
X269067Y584945D01*
X270633Y581165D01*
X270633Y577075D01*
X270018Y575590D01*
X270010Y575562D01*
X269997Y575535D01*
X269968Y575409D01*
X269934Y575283D01*
X269933Y575254D01*
X269927Y575225D01*
X269931Y575095D01*
X269929Y574965D01*
X269936Y574937D01*
X269937Y574907D01*
X269973Y574783D01*
X270003Y574656D01*
X270017Y574630D01*
X270025Y574602D01*
X270091Y574490D01*
X270152Y574375D01*
X270172Y574353D01*
X270187Y574328D01*
X270293Y574207D01*
X279263Y565236D01*
X279342Y565176D01*
X279414Y565108D01*
X279467Y565079D01*
X279515Y565042D01*
X279606Y565002D01*
X279692Y564954D01*
X279751Y564939D01*
X279807Y564915D01*
X279905Y564900D01*
X280000Y564875D01*
X280100Y564869D01*
X280121Y564865D01*
X280133Y564867D01*
X280161Y564865D01*
X289931Y564865D01*
X304547Y550249D01*
X304547Y520993D01*
X304559Y520895D01*
X304562Y520796D01*
X304579Y520738D01*
X304587Y520678D01*
X304623Y520586D01*
X304651Y520491D01*
X304681Y520438D01*
X304704Y520382D01*
X304762Y520302D01*
X304812Y520217D01*
X304878Y520141D01*
X304890Y520125D01*
X304900Y520117D01*
X304918Y520096D01*
X305498Y519516D01*
X305576Y519456D01*
X305648Y519388D01*
X305701Y519359D01*
X305749Y519322D01*
X305840Y519282D01*
X305927Y519234D01*
X305985Y519219D01*
X306041Y519195D01*
X306139Y519180D01*
X306235Y519155D01*
X306335Y519149D01*
X306355Y519145D01*
X306367Y519147D01*
X306395Y519145D01*
X329999Y519145D01*
X339788Y509356D01*
X339866Y509296D01*
X339938Y509228D01*
X339991Y509199D01*
X340039Y509162D01*
X340130Y509122D01*
X340217Y509074D01*
X340275Y509059D01*
X340331Y509035D01*
X340429Y509020D01*
X340525Y508995D01*
X340625Y508989D01*
X340645Y508985D01*
X340657Y508987D01*
X340685Y508985D01*
X349185Y508985D01*
X357703Y500466D01*
X357781Y500406D01*
X357853Y500338D01*
X357906Y500309D01*
X357954Y500272D01*
X358045Y500232D01*
X358132Y500184D01*
X358190Y500169D01*
X358246Y500145D01*
X358344Y500130D01*
X358440Y500105D01*
X358540Y500099D01*
X358560Y500095D01*
X358573Y500097D01*
X358601Y500095D01*
X413819Y500095D01*
X416275Y497640D01*
X416275Y497639D01*
X420763Y493151D01*
X420786Y493133D01*
X420806Y493111D01*
X420912Y493036D01*
X421014Y492956D01*
X421042Y492944D01*
X421066Y492927D01*
X421187Y492881D01*
X421306Y492830D01*
X421335Y492825D01*
X421363Y492815D01*
X421492Y492800D01*
X421620Y492780D01*
X421650Y492783D01*
X421679Y492779D01*
X421808Y492798D01*
X421937Y492810D01*
X421965Y492820D01*
X421994Y492824D01*
X422146Y492876D01*
X424244Y493745D01*
X426656Y493745D01*
X428885Y492821D01*
X429633Y492074D01*
X429727Y492001D01*
X429816Y491923D01*
X429852Y491904D01*
X429884Y491879D01*
X429993Y491832D01*
X430099Y491778D01*
X430138Y491769D01*
X430176Y491753D01*
X430293Y491734D01*
X430409Y491708D01*
X430450Y491710D01*
X430490Y491703D01*
X430608Y491714D01*
X430727Y491718D01*
X430766Y491729D01*
X430806Y491733D01*
X430918Y491773D01*
X431033Y491806D01*
X431068Y491827D01*
X431106Y491841D01*
X431204Y491907D01*
X431307Y491968D01*
X431352Y492008D01*
X431369Y492019D01*
X431382Y492035D01*
X431428Y492074D01*
X432175Y492821D01*
X434404Y493745D01*
X436816Y493745D01*
X439045Y492821D01*
X440258Y491608D01*
X440337Y491548D01*
X440409Y491480D01*
X440462Y491451D01*
X440510Y491414D01*
X440601Y491374D01*
X440687Y491326D01*
X440746Y491311D01*
X440801Y491287D01*
X440899Y491272D01*
X440995Y491247D01*
X441095Y491241D01*
X441116Y491237D01*
X441128Y491239D01*
X441156Y491237D01*
X445304Y491237D01*
X445402Y491249D01*
X445501Y491252D01*
X445560Y491269D01*
X445620Y491277D01*
X445712Y491313D01*
X445807Y491341D01*
X445859Y491371D01*
X445915Y491394D01*
X445995Y491452D01*
X446081Y491502D01*
X446156Y491568D01*
X446173Y491580D01*
X446180Y491590D01*
X446202Y491608D01*
X447415Y492821D01*
X449644Y493745D01*
X452056Y493745D01*
X454285Y492821D01*
X455991Y491115D01*
X456915Y488886D01*
X456915Y486474D01*
X455991Y484245D01*
X454285Y482539D01*
X452056Y481615D01*
X449644Y481615D01*
X447415Y482539D01*
X446202Y483752D01*
X446123Y483812D01*
X446051Y483880D01*
X445998Y483909D01*
X445950Y483946D01*
X445859Y483986D01*
X445773Y484034D01*
X445714Y484049D01*
X445659Y484073D01*
X445561Y484088D01*
X445465Y484113D01*
X445365Y484119D01*
X445344Y484123D01*
X445332Y484121D01*
X445304Y484123D01*
X441156Y484123D01*
X441058Y484111D01*
X440959Y484108D01*
X440900Y484091D01*
X440840Y484083D01*
X440748Y484047D01*
X440653Y484019D01*
X440601Y483989D01*
X440545Y483966D01*
X440465Y483908D01*
X440379Y483858D01*
X440304Y483792D01*
X440287Y483780D01*
X440280Y483770D01*
X440258Y483752D01*
X439045Y482539D01*
X436816Y481615D01*
X434404Y481615D01*
X432175Y482539D01*
X431428Y483286D01*
X431334Y483359D01*
X431244Y483437D01*
X431208Y483456D01*
X431176Y483481D01*
X431067Y483528D01*
X430961Y483582D01*
X430922Y483591D01*
X430884Y483607D01*
X430767Y483626D01*
X430651Y483652D01*
X430610Y483650D01*
X430570Y483657D01*
X430452Y483646D01*
X430333Y483642D01*
X430294Y483631D01*
X430254Y483627D01*
X430141Y483587D01*
X430027Y483554D01*
X429993Y483533D01*
X429954Y483519D01*
X429856Y483453D01*
X429753Y483392D01*
X429708Y483352D01*
X429691Y483341D01*
X429678Y483326D01*
X429633Y483286D01*
X428885Y482539D01*
X427321Y481891D01*
X427278Y481866D01*
X427231Y481849D01*
X427140Y481788D01*
X427045Y481733D01*
X427009Y481698D01*
X426968Y481671D01*
X426896Y481588D01*
X426817Y481512D01*
X426790Y481469D01*
X426758Y481432D01*
X426708Y481334D01*
X426650Y481241D01*
X426636Y481193D01*
X426613Y481149D01*
X426589Y481042D01*
X426557Y480937D01*
X426554Y480887D01*
X426543Y480839D01*
X426547Y480729D01*
X426542Y480619D01*
X426552Y480571D01*
X426553Y480521D01*
X426584Y480415D01*
X426606Y480308D01*
X426628Y480263D01*
X426641Y480215D01*
X426697Y480121D01*
X426746Y480022D01*
X426778Y479984D01*
X426803Y479941D01*
X426909Y479821D01*
X429045Y477685D01*
X429047Y477670D01*
X429083Y477578D01*
X429111Y477483D01*
X429141Y477431D01*
X429164Y477375D01*
X429222Y477294D01*
X429272Y477209D01*
X429338Y477134D01*
X429350Y477117D01*
X429360Y477109D01*
X429378Y477088D01*
X430591Y475875D01*
X431515Y473646D01*
X431515Y471234D01*
X430591Y469005D01*
X428885Y467299D01*
X426656Y466375D01*
X424244Y466375D01*
X422015Y467299D01*
X420309Y469005D01*
X419385Y471234D01*
X419385Y473646D01*
X420126Y475436D01*
X420134Y475464D01*
X420148Y475490D01*
X420176Y475617D01*
X420210Y475742D01*
X420211Y475772D01*
X420217Y475801D01*
X420213Y475930D01*
X420215Y476060D01*
X420209Y476089D01*
X420208Y476119D01*
X420172Y476243D01*
X420141Y476370D01*
X420127Y476396D01*
X420119Y476424D01*
X420053Y476536D01*
X419993Y476651D01*
X419973Y476673D01*
X419958Y476698D01*
X419851Y476819D01*
X409141Y487530D01*
X409062Y487590D01*
X408990Y487658D01*
X408937Y487687D01*
X408889Y487724D01*
X408798Y487764D01*
X408712Y487812D01*
X408653Y487827D01*
X408597Y487851D01*
X408499Y487866D01*
X408404Y487891D01*
X408304Y487897D01*
X408283Y487901D01*
X408271Y487899D01*
X408243Y487901D01*
X352774Y487901D01*
X352656Y487886D01*
X352537Y487879D01*
X352499Y487866D01*
X352458Y487861D01*
X352348Y487818D01*
X352235Y487781D01*
X352200Y487759D01*
X352163Y487744D01*
X352067Y487675D01*
X351966Y487611D01*
X351938Y487581D01*
X351905Y487558D01*
X351829Y487466D01*
X351748Y487379D01*
X351728Y487344D01*
X351703Y487313D01*
X351652Y487205D01*
X351594Y487101D01*
X351584Y487061D01*
X351567Y487025D01*
X351545Y486908D01*
X351515Y486793D01*
X351511Y486733D01*
X351507Y486713D01*
X351509Y486692D01*
X351505Y486632D01*
X351505Y483361D01*
X351517Y483263D01*
X351520Y483164D01*
X351537Y483106D01*
X351545Y483045D01*
X351581Y482953D01*
X351609Y482858D01*
X351639Y482806D01*
X351662Y482750D01*
X351720Y482670D01*
X351770Y482584D01*
X351837Y482509D01*
X351848Y482492D01*
X351858Y482485D01*
X351876Y482463D01*
X354161Y480178D01*
X354240Y480118D01*
X354312Y480050D01*
X354365Y480021D01*
X354413Y479984D01*
X354504Y479944D01*
X354590Y479896D01*
X354649Y479881D01*
X354705Y479857D01*
X354803Y479842D01*
X354898Y479817D01*
X354998Y479811D01*
X355019Y479807D01*
X355031Y479809D01*
X355059Y479807D01*
X379933Y479807D01*
X397257Y462483D01*
X397257Y448951D01*
X397260Y448922D01*
X397258Y448893D01*
X397280Y448764D01*
X397297Y448636D01*
X397307Y448608D01*
X397312Y448579D01*
X397366Y448461D01*
X397414Y448340D01*
X397431Y448316D01*
X397443Y448289D01*
X397524Y448188D01*
X397600Y448083D01*
X397623Y448064D01*
X397642Y448041D01*
X397745Y447963D01*
X397845Y447880D01*
X397872Y447867D01*
X397896Y447850D01*
X398040Y447779D01*
X399675Y447101D01*
X401381Y445395D01*
X402305Y443166D01*
X402305Y440754D01*
X401381Y438525D01*
X399675Y436819D01*
X397446Y435895D01*
X395034Y435895D01*
X393932Y436352D01*
X393884Y436365D01*
X393839Y436386D01*
X393731Y436407D01*
X393625Y436436D01*
X393575Y436436D01*
X393526Y436446D01*
X393417Y436439D01*
X393307Y436441D01*
X393259Y436429D01*
X393209Y436426D01*
X393105Y436392D01*
X392998Y436367D01*
X392954Y436343D01*
X392907Y436328D01*
X392814Y436269D01*
X392717Y436218D01*
X392680Y436184D01*
X392638Y436158D01*
X392563Y436078D01*
X392481Y436004D01*
X392454Y435962D01*
X392420Y435926D01*
X392367Y435830D01*
X392307Y435738D01*
X392290Y435691D01*
X392266Y435648D01*
X392239Y435541D01*
X392203Y435437D01*
X392199Y435388D01*
X392187Y435340D01*
X392177Y435179D01*
X392177Y428358D01*
X389722Y425903D01*
X389721Y425903D01*
X386198Y422380D01*
X386138Y422301D01*
X386070Y422229D01*
X386041Y422176D01*
X386004Y422128D01*
X385964Y422037D01*
X385916Y421951D01*
X385901Y421892D01*
X385877Y421836D01*
X385862Y421739D01*
X385837Y421643D01*
X385831Y421543D01*
X385827Y421522D01*
X385829Y421510D01*
X385827Y421482D01*
X385827Y350678D01*
X385839Y350580D01*
X385842Y350481D01*
X385859Y350422D01*
X385867Y350362D01*
X385903Y350270D01*
X385931Y350175D01*
X385961Y350123D01*
X385984Y350067D01*
X386042Y349987D01*
X386092Y349901D01*
X386158Y349826D01*
X386170Y349809D01*
X386180Y349802D01*
X386198Y349780D01*
X387912Y348066D01*
X387991Y348006D01*
X388063Y347938D01*
X388116Y347909D01*
X388164Y347872D01*
X388255Y347832D01*
X388341Y347784D01*
X388400Y347769D01*
X388456Y347745D01*
X388554Y347730D01*
X388649Y347705D01*
X388749Y347699D01*
X388770Y347695D01*
X388782Y347697D01*
X388810Y347695D01*
X391096Y347695D01*
X393325Y346771D01*
X395031Y345065D01*
X395955Y342836D01*
X395955Y340424D01*
X395031Y338195D01*
X394284Y337447D01*
X394211Y337353D01*
X394133Y337264D01*
X394114Y337228D01*
X394089Y337196D01*
X394042Y337087D01*
X393988Y336981D01*
X393979Y336942D01*
X393963Y336904D01*
X393944Y336787D01*
X393918Y336671D01*
X393920Y336630D01*
X393913Y336590D01*
X393924Y336472D01*
X393928Y336353D01*
X393939Y336314D01*
X393943Y336274D01*
X393983Y336162D01*
X394016Y336047D01*
X394037Y336012D01*
X394051Y335974D01*
X394117Y335876D01*
X394178Y335773D01*
X394218Y335728D01*
X394229Y335711D01*
X394245Y335698D01*
X394284Y335652D01*
X395031Y334905D01*
X395955Y332676D01*
X395955Y330264D01*
X395031Y328035D01*
X393325Y326329D01*
X391096Y325405D01*
X388684Y325405D01*
G37*
%LPD*%
%LPC*%
G36*
X129655Y399287D02*
X129655Y399287D01*
X125173Y401143D01*
X121743Y404573D01*
X119887Y409055D01*
X119887Y421144D01*
X119875Y421242D01*
X119872Y421341D01*
X119855Y421399D01*
X119847Y421459D01*
X119811Y421551D01*
X119783Y421647D01*
X119753Y421699D01*
X119730Y421755D01*
X119672Y421835D01*
X119622Y421921D01*
X119556Y421996D01*
X119544Y422012D01*
X119534Y422020D01*
X119516Y422041D01*
X102693Y438863D01*
X100837Y443345D01*
X100837Y530745D01*
X102693Y535227D01*
X106123Y538657D01*
X110605Y540513D01*
X115455Y540513D01*
X119937Y538657D01*
X123367Y535227D01*
X125223Y530745D01*
X125223Y451346D01*
X125235Y451248D01*
X125238Y451149D01*
X125255Y451091D01*
X125263Y451031D01*
X125299Y450939D01*
X125327Y450843D01*
X125357Y450791D01*
X125380Y450735D01*
X125438Y450655D01*
X125488Y450569D01*
X125554Y450494D01*
X125566Y450478D01*
X125576Y450470D01*
X125594Y450449D01*
X130421Y445623D01*
X130530Y445537D01*
X130637Y445449D01*
X130656Y445440D01*
X130672Y445428D01*
X130800Y445372D01*
X130925Y445313D01*
X130945Y445309D01*
X130964Y445301D01*
X131102Y445279D01*
X131238Y445253D01*
X131258Y445255D01*
X131278Y445251D01*
X131417Y445265D01*
X131555Y445273D01*
X131574Y445279D01*
X131594Y445281D01*
X131726Y445328D01*
X131857Y445371D01*
X131875Y445382D01*
X131894Y445389D01*
X132009Y445467D01*
X132126Y445541D01*
X132140Y445556D01*
X132157Y445567D01*
X132249Y445672D01*
X132344Y445773D01*
X132354Y445791D01*
X132367Y445806D01*
X132431Y445930D01*
X132498Y446051D01*
X132503Y446071D01*
X132512Y446089D01*
X132542Y446225D01*
X132577Y446359D01*
X132579Y446387D01*
X132582Y446399D01*
X132581Y446420D01*
X132587Y446520D01*
X132587Y461407D01*
X133863Y464488D01*
X136222Y466847D01*
X139303Y468123D01*
X142637Y468123D01*
X145718Y466847D01*
X148077Y464488D01*
X149353Y461407D01*
X149353Y449768D01*
X149365Y449670D01*
X149368Y449571D01*
X149385Y449513D01*
X149393Y449452D01*
X149429Y449360D01*
X149457Y449265D01*
X149487Y449213D01*
X149510Y449157D01*
X149568Y449077D01*
X149618Y448991D01*
X149684Y448916D01*
X149696Y448899D01*
X149706Y448892D01*
X149724Y448870D01*
X159507Y439088D01*
X160783Y436007D01*
X160783Y422513D01*
X159465Y419332D01*
X159453Y419286D01*
X159434Y419246D01*
X159434Y419245D01*
X159431Y419239D01*
X159410Y419131D01*
X159381Y419025D01*
X159380Y418975D01*
X159371Y418926D01*
X159378Y418817D01*
X159376Y418707D01*
X159388Y418659D01*
X159391Y418609D01*
X159425Y418505D01*
X159450Y418398D01*
X159474Y418354D01*
X159489Y418307D01*
X159548Y418214D01*
X159599Y418117D01*
X159632Y418080D01*
X159659Y418038D01*
X159739Y417963D01*
X159813Y417881D01*
X159855Y417854D01*
X159891Y417820D01*
X159987Y417767D01*
X160079Y417707D01*
X160126Y417690D01*
X160169Y417666D01*
X160275Y417639D01*
X160379Y417603D01*
X160429Y417599D01*
X160477Y417587D01*
X160638Y417577D01*
X162375Y417577D01*
X162385Y417578D01*
X162394Y417577D01*
X162543Y417598D01*
X162691Y417617D01*
X162700Y417620D01*
X162709Y417621D01*
X162861Y417673D01*
X164965Y418545D01*
X167775Y418545D01*
X170372Y417469D01*
X172359Y415482D01*
X173435Y412885D01*
X173435Y410075D01*
X172359Y407478D01*
X170372Y405491D01*
X167775Y404415D01*
X164965Y404415D01*
X162861Y405287D01*
X162852Y405289D01*
X162844Y405294D01*
X162699Y405331D01*
X162554Y405371D01*
X162545Y405371D01*
X162536Y405373D01*
X162375Y405383D01*
X143600Y405383D01*
X143571Y405380D01*
X143541Y405382D01*
X143414Y405360D01*
X143285Y405343D01*
X143257Y405333D01*
X143228Y405327D01*
X143110Y405274D01*
X142989Y405226D01*
X142965Y405209D01*
X142938Y405197D01*
X142837Y405116D01*
X142731Y405040D01*
X142713Y405017D01*
X142690Y404998D01*
X142612Y404895D01*
X142529Y404795D01*
X142516Y404768D01*
X142498Y404744D01*
X142427Y404600D01*
X142416Y404573D01*
X138987Y401143D01*
X134505Y399287D01*
X129655Y399287D01*
G37*
%LPD*%
%LPC*%
G36*
X418149Y230663D02*
X418149Y230663D01*
X415535Y231746D01*
X412709Y234572D01*
X412657Y234624D01*
X412650Y234630D01*
X412644Y234637D01*
X412524Y234727D01*
X412406Y234819D01*
X412397Y234823D01*
X412390Y234828D01*
X412279Y234883D01*
X410147Y237015D01*
X408995Y239795D01*
X408995Y242805D01*
X410147Y245585D01*
X411608Y247047D01*
X411682Y247141D01*
X411760Y247230D01*
X411779Y247266D01*
X411803Y247298D01*
X411851Y247407D01*
X411905Y247513D01*
X411914Y247553D01*
X411930Y247590D01*
X411948Y247707D01*
X411974Y247823D01*
X411973Y247864D01*
X411980Y247904D01*
X411968Y248022D01*
X411965Y248141D01*
X411954Y248180D01*
X411950Y248220D01*
X411909Y248333D01*
X411876Y248447D01*
X411856Y248482D01*
X411842Y248520D01*
X411775Y248618D01*
X411715Y248721D01*
X411675Y248766D01*
X411664Y248783D01*
X411648Y248796D01*
X411608Y248842D01*
X405383Y255067D01*
X405383Y261154D01*
X405371Y261252D01*
X405368Y261351D01*
X405351Y261410D01*
X405343Y261470D01*
X405307Y261562D01*
X405279Y261657D01*
X405249Y261709D01*
X405226Y261765D01*
X405168Y261845D01*
X405118Y261931D01*
X405052Y262006D01*
X405040Y262023D01*
X405030Y262031D01*
X405012Y262052D01*
X404292Y262772D01*
X404213Y262832D01*
X404141Y262900D01*
X404088Y262929D01*
X404040Y262966D01*
X403949Y263006D01*
X403863Y263054D01*
X403804Y263069D01*
X403749Y263093D01*
X403651Y263108D01*
X403555Y263133D01*
X403455Y263139D01*
X403434Y263143D01*
X403422Y263141D01*
X403394Y263143D01*
X399246Y263143D01*
X399148Y263131D01*
X399049Y263128D01*
X398990Y263111D01*
X398930Y263103D01*
X398838Y263067D01*
X398743Y263039D01*
X398691Y263009D01*
X398635Y262986D01*
X398554Y262928D01*
X398469Y262878D01*
X398394Y262812D01*
X398377Y262800D01*
X398369Y262790D01*
X398348Y262772D01*
X397135Y261559D01*
X394906Y260635D01*
X392494Y260635D01*
X391392Y261092D01*
X391344Y261105D01*
X391299Y261126D01*
X391191Y261147D01*
X391085Y261176D01*
X391035Y261176D01*
X390986Y261186D01*
X390877Y261179D01*
X390767Y261181D01*
X390719Y261169D01*
X390669Y261166D01*
X390565Y261132D01*
X390458Y261107D01*
X390414Y261083D01*
X390367Y261068D01*
X390274Y261009D01*
X390177Y260958D01*
X390140Y260924D01*
X390098Y260898D01*
X390023Y260818D01*
X389941Y260744D01*
X389914Y260702D01*
X389880Y260666D01*
X389827Y260570D01*
X389767Y260478D01*
X389750Y260431D01*
X389726Y260388D01*
X389699Y260281D01*
X389663Y260177D01*
X389659Y260128D01*
X389647Y260080D01*
X389637Y259919D01*
X389637Y258741D01*
X387181Y256286D01*
X381286Y250391D01*
X381286Y250390D01*
X378710Y247815D01*
X378661Y247797D01*
X378645Y247786D01*
X378626Y247778D01*
X378513Y247697D01*
X378398Y247619D01*
X378385Y247603D01*
X378369Y247592D01*
X378280Y247484D01*
X378188Y247380D01*
X378179Y247362D01*
X378166Y247347D01*
X378107Y247221D01*
X378043Y247097D01*
X378039Y247077D01*
X378030Y247059D01*
X378004Y246923D01*
X377974Y246787D01*
X377974Y246766D01*
X377970Y246747D01*
X377979Y246608D01*
X377983Y246469D01*
X377989Y246449D01*
X377990Y246429D01*
X378033Y246297D01*
X378072Y246163D01*
X378082Y246146D01*
X378088Y246127D01*
X378163Y246009D01*
X378233Y245889D01*
X378252Y245868D01*
X378258Y245858D01*
X378273Y245844D01*
X378340Y245768D01*
X378523Y245585D01*
X379675Y242805D01*
X379675Y239795D01*
X378523Y237015D01*
X376395Y234887D01*
X373615Y233735D01*
X370605Y233735D01*
X369747Y234091D01*
X369738Y234093D01*
X369730Y234098D01*
X369586Y234135D01*
X369441Y234175D01*
X369431Y234175D01*
X369422Y234177D01*
X369262Y234187D01*
X341938Y234187D01*
X341929Y234186D01*
X341920Y234187D01*
X341771Y234166D01*
X341623Y234147D01*
X341614Y234144D01*
X341605Y234143D01*
X341453Y234091D01*
X340595Y233735D01*
X337585Y233735D01*
X334805Y234887D01*
X332677Y237015D01*
X331525Y239795D01*
X331525Y242805D01*
X332677Y245585D01*
X332860Y245768D01*
X332946Y245878D01*
X333034Y245985D01*
X333043Y246004D01*
X333055Y246020D01*
X333111Y246147D01*
X333170Y246273D01*
X333174Y246293D01*
X333182Y246312D01*
X333203Y246449D01*
X333230Y246586D01*
X333228Y246606D01*
X333232Y246626D01*
X333218Y246764D01*
X333210Y246903D01*
X333204Y246922D01*
X333202Y246942D01*
X333155Y247074D01*
X333112Y247205D01*
X333101Y247222D01*
X333094Y247242D01*
X333016Y247357D01*
X332942Y247474D01*
X332927Y247488D01*
X332916Y247505D01*
X332811Y247597D01*
X332710Y247692D01*
X332692Y247702D01*
X332677Y247715D01*
X332553Y247779D01*
X332432Y247846D01*
X332412Y247851D01*
X332394Y247860D01*
X332258Y247890D01*
X332124Y247925D01*
X332096Y247927D01*
X332084Y247930D01*
X332063Y247929D01*
X331963Y247935D01*
X286785Y247935D01*
X284330Y250391D01*
X284329Y250391D01*
X284151Y250569D01*
X284127Y250587D01*
X284108Y250610D01*
X284002Y250685D01*
X283900Y250764D01*
X283872Y250776D01*
X283848Y250793D01*
X283727Y250839D01*
X283608Y250891D01*
X283579Y250895D01*
X283551Y250906D01*
X283422Y250920D01*
X283294Y250940D01*
X283264Y250938D01*
X283235Y250941D01*
X283106Y250923D01*
X282977Y250911D01*
X282949Y250901D01*
X282920Y250896D01*
X282768Y250844D01*
X281876Y250475D01*
X279464Y250475D01*
X277235Y251399D01*
X275529Y253105D01*
X274605Y255334D01*
X274605Y257746D01*
X275529Y259975D01*
X276276Y260722D01*
X276349Y260816D01*
X276427Y260906D01*
X276446Y260942D01*
X276471Y260974D01*
X276518Y261083D01*
X276572Y261189D01*
X276581Y261228D01*
X276597Y261266D01*
X276616Y261383D01*
X276642Y261499D01*
X276640Y261540D01*
X276647Y261580D01*
X276636Y261698D01*
X276632Y261817D01*
X276621Y261856D01*
X276617Y261896D01*
X276577Y262009D01*
X276544Y262123D01*
X276523Y262157D01*
X276509Y262196D01*
X276443Y262294D01*
X276382Y262397D01*
X276342Y262442D01*
X276331Y262459D01*
X276316Y262472D01*
X276276Y262517D01*
X275529Y263265D01*
X274605Y265494D01*
X274605Y267906D01*
X275529Y270135D01*
X277235Y271841D01*
X279464Y272765D01*
X281876Y272765D01*
X284105Y271841D01*
X285811Y270135D01*
X286735Y267906D01*
X286735Y266762D01*
X286747Y266664D01*
X286750Y266565D01*
X286767Y266507D01*
X286775Y266447D01*
X286811Y266354D01*
X286839Y266259D01*
X286869Y266207D01*
X286892Y266151D01*
X286950Y266071D01*
X287000Y265985D01*
X287066Y265910D01*
X287078Y265893D01*
X287088Y265886D01*
X287106Y265865D01*
X292471Y260500D01*
X292549Y260440D01*
X292621Y260372D01*
X292674Y260343D01*
X292722Y260306D01*
X292813Y260266D01*
X292899Y260218D01*
X292958Y260203D01*
X293014Y260179D01*
X293112Y260164D01*
X293207Y260139D01*
X293307Y260133D01*
X293328Y260129D01*
X293340Y260131D01*
X293368Y260129D01*
X373254Y260129D01*
X373352Y260141D01*
X373451Y260144D01*
X373510Y260161D01*
X373570Y260169D01*
X373662Y260205D01*
X373757Y260233D01*
X373809Y260263D01*
X373865Y260286D01*
X373945Y260344D01*
X374031Y260394D01*
X374106Y260460D01*
X374123Y260472D01*
X374130Y260482D01*
X374152Y260500D01*
X377040Y263388D01*
X377100Y263467D01*
X377168Y263539D01*
X377197Y263592D01*
X377234Y263640D01*
X377274Y263731D01*
X377322Y263817D01*
X377337Y263876D01*
X377361Y263932D01*
X377376Y264030D01*
X377401Y264125D01*
X377407Y264225D01*
X377411Y264246D01*
X377409Y264258D01*
X377411Y264286D01*
X377411Y270994D01*
X377433Y271078D01*
X377439Y271178D01*
X377443Y271199D01*
X377441Y271211D01*
X377443Y271239D01*
X377443Y273389D01*
X386979Y282925D01*
X462218Y282925D01*
X462316Y282937D01*
X462415Y282940D01*
X462473Y282957D01*
X462533Y282965D01*
X462626Y283001D01*
X462721Y283029D01*
X462773Y283059D01*
X462829Y283082D01*
X462909Y283140D01*
X462995Y283190D01*
X463070Y283256D01*
X463087Y283268D01*
X463094Y283278D01*
X463115Y283296D01*
X463464Y283645D01*
X463524Y283723D01*
X463592Y283795D01*
X463621Y283848D01*
X463658Y283896D01*
X463698Y283987D01*
X463746Y284073D01*
X463761Y284132D01*
X463785Y284188D01*
X463800Y284286D01*
X463825Y284381D01*
X463831Y284481D01*
X463835Y284502D01*
X463833Y284514D01*
X463835Y284542D01*
X463835Y285686D01*
X464759Y287915D01*
X466465Y289621D01*
X468694Y290545D01*
X471106Y290545D01*
X473335Y289621D01*
X475041Y287915D01*
X475965Y285686D01*
X475965Y283274D01*
X475041Y281045D01*
X474294Y280297D01*
X474221Y280203D01*
X474143Y280114D01*
X474124Y280078D01*
X474099Y280046D01*
X474052Y279937D01*
X473998Y279831D01*
X473989Y279792D01*
X473973Y279754D01*
X473954Y279637D01*
X473928Y279521D01*
X473930Y279480D01*
X473923Y279440D01*
X473934Y279322D01*
X473938Y279203D01*
X473949Y279164D01*
X473953Y279124D01*
X473993Y279012D01*
X474026Y278897D01*
X474047Y278862D01*
X474061Y278824D01*
X474127Y278726D01*
X474188Y278623D01*
X474228Y278578D01*
X474239Y278561D01*
X474255Y278548D01*
X474294Y278502D01*
X475041Y277755D01*
X475965Y275526D01*
X475965Y273114D01*
X475041Y270885D01*
X473335Y269179D01*
X471106Y268255D01*
X468694Y268255D01*
X466465Y269179D01*
X465284Y270360D01*
X465205Y270420D01*
X465133Y270488D01*
X465080Y270517D01*
X465032Y270554D01*
X464941Y270594D01*
X464855Y270642D01*
X464796Y270657D01*
X464741Y270681D01*
X464643Y270696D01*
X464547Y270721D01*
X464447Y270727D01*
X464426Y270731D01*
X464414Y270729D01*
X464386Y270731D01*
X415734Y270731D01*
X415685Y270725D01*
X415635Y270727D01*
X415528Y270705D01*
X415419Y270691D01*
X415372Y270673D01*
X415324Y270663D01*
X415225Y270615D01*
X415123Y270574D01*
X415083Y270545D01*
X415038Y270523D01*
X414955Y270452D01*
X414866Y270388D01*
X414834Y270349D01*
X414796Y270317D01*
X414733Y270227D01*
X414663Y270143D01*
X414642Y270098D01*
X414613Y270057D01*
X414574Y269954D01*
X414527Y269855D01*
X414518Y269806D01*
X414500Y269760D01*
X414488Y269650D01*
X414467Y269543D01*
X414471Y269493D01*
X414465Y269444D01*
X414480Y269335D01*
X414487Y269225D01*
X414503Y269178D01*
X414509Y269129D01*
X414562Y268976D01*
X415005Y267906D01*
X415005Y265494D01*
X414081Y263265D01*
X412868Y262052D01*
X412808Y261973D01*
X412740Y261901D01*
X412711Y261848D01*
X412674Y261800D01*
X412634Y261710D01*
X412586Y261623D01*
X412571Y261564D01*
X412547Y261509D01*
X412532Y261411D01*
X412507Y261315D01*
X412501Y261215D01*
X412497Y261194D01*
X412499Y261182D01*
X412497Y261154D01*
X412497Y258539D01*
X412509Y258441D01*
X412512Y258342D01*
X412529Y258284D01*
X412537Y258223D01*
X412573Y258131D01*
X412601Y258036D01*
X412631Y257984D01*
X412654Y257928D01*
X412712Y257848D01*
X412762Y257762D01*
X412828Y257687D01*
X412840Y257670D01*
X412850Y257663D01*
X412868Y257641D01*
X414923Y255586D01*
X415002Y255526D01*
X415074Y255458D01*
X415127Y255429D01*
X415175Y255392D01*
X415266Y255352D01*
X415352Y255304D01*
X415411Y255289D01*
X415467Y255265D01*
X415565Y255250D01*
X415660Y255225D01*
X415760Y255219D01*
X415781Y255215D01*
X415793Y255217D01*
X415821Y255215D01*
X430568Y255215D01*
X430597Y255199D01*
X430645Y255162D01*
X430736Y255122D01*
X430822Y255074D01*
X430881Y255059D01*
X430937Y255035D01*
X431035Y255020D01*
X431130Y254995D01*
X431230Y254989D01*
X431251Y254985D01*
X431263Y254987D01*
X431291Y254985D01*
X433006Y254985D01*
X435235Y254061D01*
X436941Y252355D01*
X437865Y250126D01*
X437865Y247714D01*
X437422Y246644D01*
X437408Y246596D01*
X437387Y246551D01*
X437367Y246443D01*
X437338Y246337D01*
X437337Y246287D01*
X437327Y246238D01*
X437334Y246129D01*
X437333Y246019D01*
X437344Y245971D01*
X437347Y245921D01*
X437381Y245817D01*
X437407Y245710D01*
X437430Y245666D01*
X437445Y245619D01*
X437504Y245526D01*
X437555Y245429D01*
X437589Y245392D01*
X437615Y245350D01*
X437695Y245275D01*
X437769Y245193D01*
X437811Y245166D01*
X437847Y245132D01*
X437943Y245079D01*
X438035Y245019D01*
X438082Y245002D01*
X438126Y244978D01*
X438232Y244951D01*
X438336Y244915D01*
X438385Y244911D01*
X438433Y244899D01*
X438594Y244889D01*
X442030Y244889D01*
X442060Y244892D01*
X442089Y244890D01*
X442217Y244912D01*
X442346Y244929D01*
X442373Y244939D01*
X442402Y244944D01*
X442521Y244998D01*
X442642Y245046D01*
X442666Y245063D01*
X442692Y245075D01*
X442794Y245156D01*
X442899Y245232D01*
X442918Y245255D01*
X442941Y245274D01*
X443019Y245377D01*
X443102Y245477D01*
X443114Y245504D01*
X443132Y245528D01*
X443154Y245572D01*
X445295Y247713D01*
X448075Y248865D01*
X451085Y248865D01*
X453865Y247713D01*
X455993Y245585D01*
X457145Y242805D01*
X457145Y239795D01*
X455993Y237015D01*
X453865Y234887D01*
X453007Y234532D01*
X452999Y234527D01*
X452990Y234524D01*
X452861Y234448D01*
X452731Y234374D01*
X452724Y234368D01*
X452716Y234363D01*
X452595Y234256D01*
X450085Y231746D01*
X447471Y230663D01*
X418149Y230663D01*
G37*
%LPD*%
%LPC*%
G36*
X148193Y203707D02*
X148193Y203707D01*
X145112Y204983D01*
X137673Y212422D01*
X136397Y215503D01*
X136397Y325517D01*
X137673Y328598D01*
X140032Y330957D01*
X143113Y332233D01*
X146447Y332233D01*
X149528Y330957D01*
X151887Y328598D01*
X153163Y325517D01*
X153163Y289052D01*
X153178Y288934D01*
X153185Y288815D01*
X153198Y288777D01*
X153203Y288736D01*
X153246Y288626D01*
X153283Y288513D01*
X153305Y288478D01*
X153320Y288441D01*
X153389Y288345D01*
X153453Y288244D01*
X153483Y288216D01*
X153506Y288183D01*
X153598Y288107D01*
X153685Y288026D01*
X153720Y288006D01*
X153751Y287981D01*
X153859Y287930D01*
X153963Y287872D01*
X154003Y287862D01*
X154039Y287845D01*
X154156Y287823D01*
X154271Y287793D01*
X154331Y287789D01*
X154351Y287785D01*
X154372Y287787D01*
X154432Y287783D01*
X197247Y287783D01*
X200328Y286507D01*
X202687Y284148D01*
X203963Y281067D01*
X203963Y277733D01*
X202687Y274652D01*
X200328Y272293D01*
X197247Y271017D01*
X154432Y271017D01*
X154314Y271002D01*
X154195Y270995D01*
X154157Y270982D01*
X154116Y270977D01*
X154006Y270934D01*
X153893Y270897D01*
X153858Y270875D01*
X153821Y270860D01*
X153725Y270791D01*
X153624Y270727D01*
X153596Y270697D01*
X153563Y270674D01*
X153487Y270582D01*
X153406Y270495D01*
X153386Y270460D01*
X153361Y270429D01*
X153310Y270321D01*
X153252Y270217D01*
X153242Y270177D01*
X153225Y270141D01*
X153203Y270024D01*
X153173Y269909D01*
X153169Y269849D01*
X153165Y269829D01*
X153167Y269808D01*
X153163Y269748D01*
X153163Y221168D01*
X153175Y221070D01*
X153178Y220971D01*
X153195Y220913D01*
X153203Y220852D01*
X153239Y220760D01*
X153267Y220665D01*
X153297Y220613D01*
X153320Y220557D01*
X153378Y220477D01*
X153428Y220391D01*
X153494Y220316D01*
X153506Y220299D01*
X153516Y220292D01*
X153534Y220270D01*
X156967Y216838D01*
X158243Y213757D01*
X158243Y210423D01*
X156967Y207342D01*
X154608Y204983D01*
X151527Y203707D01*
X148193Y203707D01*
G37*
%LPD*%
%LPC*%
G36*
X229934Y448595D02*
X229934Y448595D01*
X227705Y449519D01*
X226492Y450732D01*
X226413Y450792D01*
X226341Y450860D01*
X226288Y450889D01*
X226240Y450926D01*
X226149Y450966D01*
X226063Y451014D01*
X226004Y451029D01*
X225949Y451053D01*
X225851Y451068D01*
X225755Y451093D01*
X225655Y451099D01*
X225634Y451103D01*
X225622Y451101D01*
X225594Y451103D01*
X196647Y451103D01*
X136143Y511607D01*
X136143Y560909D01*
X136137Y560958D01*
X136139Y561008D01*
X136117Y561115D01*
X136103Y561225D01*
X136085Y561271D01*
X136075Y561319D01*
X136027Y561418D01*
X135986Y561520D01*
X135957Y561560D01*
X135935Y561605D01*
X135864Y561689D01*
X135800Y561778D01*
X135761Y561809D01*
X135729Y561847D01*
X135639Y561910D01*
X135555Y561980D01*
X135510Y562002D01*
X135469Y562030D01*
X135366Y562069D01*
X135267Y562116D01*
X135218Y562125D01*
X135172Y562143D01*
X135062Y562155D01*
X134955Y562176D01*
X134905Y562173D01*
X134856Y562178D01*
X134747Y562163D01*
X134637Y562156D01*
X134590Y562141D01*
X134541Y562134D01*
X134388Y562082D01*
X133286Y561625D01*
X130874Y561625D01*
X128645Y562549D01*
X126939Y564255D01*
X126015Y566484D01*
X126015Y568896D01*
X126939Y571125D01*
X128645Y572831D01*
X130874Y573755D01*
X133286Y573755D01*
X135515Y572831D01*
X136728Y571618D01*
X136807Y571558D01*
X136879Y571490D01*
X136932Y571461D01*
X136980Y571424D01*
X137071Y571384D01*
X137157Y571336D01*
X137216Y571321D01*
X137271Y571297D01*
X137369Y571282D01*
X137465Y571257D01*
X137565Y571251D01*
X137586Y571247D01*
X137598Y571249D01*
X137626Y571247D01*
X138633Y571247D01*
X140731Y569149D01*
X140770Y569119D01*
X140803Y569082D01*
X140895Y569022D01*
X140982Y568954D01*
X141027Y568935D01*
X141069Y568907D01*
X141173Y568872D01*
X141274Y568828D01*
X141323Y568820D01*
X141370Y568804D01*
X141479Y568796D01*
X141588Y568778D01*
X141637Y568783D01*
X141687Y568779D01*
X141795Y568798D01*
X141904Y568808D01*
X141951Y568825D01*
X142000Y568833D01*
X142100Y568879D01*
X142204Y568916D01*
X142245Y568944D01*
X142290Y568964D01*
X142376Y569033D01*
X142467Y569094D01*
X142500Y569132D01*
X142538Y569163D01*
X142605Y569250D01*
X142677Y569333D01*
X142700Y569377D01*
X142730Y569417D01*
X142801Y569561D01*
X143449Y571125D01*
X145155Y572831D01*
X147384Y573755D01*
X149796Y573755D01*
X152025Y572831D01*
X153731Y571125D01*
X154655Y568896D01*
X154655Y566484D01*
X153731Y564255D01*
X152025Y562549D01*
X149796Y561625D01*
X149606Y561625D01*
X149488Y561610D01*
X149369Y561603D01*
X149331Y561590D01*
X149290Y561585D01*
X149180Y561542D01*
X149067Y561505D01*
X149032Y561483D01*
X148995Y561468D01*
X148899Y561399D01*
X148798Y561335D01*
X148770Y561305D01*
X148737Y561282D01*
X148661Y561190D01*
X148580Y561103D01*
X148560Y561068D01*
X148535Y561037D01*
X148484Y560929D01*
X148426Y560825D01*
X148416Y560785D01*
X148399Y560749D01*
X148377Y560632D01*
X148347Y560517D01*
X148343Y560457D01*
X148339Y560437D01*
X148341Y560416D01*
X148337Y560356D01*
X148337Y517183D01*
X148349Y517085D01*
X148352Y516986D01*
X148369Y516928D01*
X148377Y516868D01*
X148413Y516776D01*
X148441Y516680D01*
X148471Y516628D01*
X148494Y516572D01*
X148552Y516492D01*
X148602Y516407D01*
X148668Y516331D01*
X148680Y516315D01*
X148690Y516307D01*
X148708Y516286D01*
X201326Y463668D01*
X201404Y463608D01*
X201476Y463540D01*
X201529Y463511D01*
X201577Y463474D01*
X201668Y463434D01*
X201755Y463386D01*
X201813Y463371D01*
X201869Y463347D01*
X201967Y463332D01*
X202063Y463307D01*
X202163Y463301D01*
X202183Y463297D01*
X202195Y463299D01*
X202223Y463297D01*
X223490Y463297D01*
X223588Y463309D01*
X223687Y463312D01*
X223745Y463329D01*
X223806Y463337D01*
X223898Y463373D01*
X223993Y463401D01*
X224045Y463431D01*
X224101Y463454D01*
X224181Y463512D01*
X224267Y463562D01*
X224342Y463628D01*
X224359Y463640D01*
X224366Y463650D01*
X224387Y463668D01*
X226556Y465837D01*
X247184Y465837D01*
X247282Y465849D01*
X247381Y465852D01*
X247440Y465869D01*
X247500Y465877D01*
X247592Y465913D01*
X247687Y465941D01*
X247739Y465971D01*
X247795Y465994D01*
X247876Y466052D01*
X247961Y466102D01*
X248036Y466168D01*
X248053Y466180D01*
X248061Y466190D01*
X248082Y466208D01*
X249295Y467421D01*
X251524Y468345D01*
X253936Y468345D01*
X256165Y467421D01*
X257871Y465715D01*
X258795Y463486D01*
X258795Y461074D01*
X257871Y458845D01*
X256165Y457139D01*
X253936Y456215D01*
X251524Y456215D01*
X249295Y457139D01*
X248082Y458352D01*
X248003Y458412D01*
X247931Y458480D01*
X247878Y458509D01*
X247830Y458546D01*
X247740Y458586D01*
X247653Y458634D01*
X247594Y458649D01*
X247539Y458673D01*
X247441Y458688D01*
X247345Y458713D01*
X247245Y458719D01*
X247224Y458723D01*
X247212Y458721D01*
X247184Y458723D01*
X237921Y458723D01*
X237872Y458717D01*
X237822Y458719D01*
X237715Y458697D01*
X237605Y458683D01*
X237559Y458665D01*
X237511Y458655D01*
X237412Y458607D01*
X237310Y458566D01*
X237270Y458537D01*
X237225Y458515D01*
X237141Y458444D01*
X237052Y458380D01*
X237021Y458341D01*
X236983Y458309D01*
X236920Y458219D01*
X236850Y458135D01*
X236828Y458090D01*
X236800Y458049D01*
X236761Y457946D01*
X236714Y457847D01*
X236705Y457798D01*
X236687Y457752D01*
X236675Y457642D01*
X236654Y457535D01*
X236657Y457485D01*
X236652Y457436D01*
X236667Y457327D01*
X236674Y457217D01*
X236689Y457170D01*
X236696Y457121D01*
X236748Y456968D01*
X237205Y455866D01*
X237205Y453454D01*
X236281Y451225D01*
X234575Y449519D01*
X232346Y448595D01*
X229934Y448595D01*
G37*
%LPD*%
%LPC*%
G36*
X234949Y502919D02*
X234949Y502919D01*
X234949Y504190D01*
X234934Y504308D01*
X234927Y504427D01*
X234914Y504465D01*
X234909Y504505D01*
X234865Y504616D01*
X234829Y504729D01*
X234807Y504764D01*
X234792Y504801D01*
X234722Y504897D01*
X234659Y504998D01*
X234629Y505026D01*
X234605Y505059D01*
X234514Y505134D01*
X234427Y505216D01*
X234392Y505236D01*
X234360Y505261D01*
X234253Y505312D01*
X234148Y505370D01*
X234109Y505380D01*
X234073Y505397D01*
X233956Y505419D01*
X233841Y505449D01*
X233780Y505453D01*
X233760Y505457D01*
X233740Y505455D01*
X233680Y505459D01*
X224429Y505459D01*
X224950Y507062D01*
X225721Y508576D01*
X226719Y509950D01*
X227920Y511151D01*
X229294Y512149D01*
X230808Y512920D01*
X232423Y513445D01*
X233430Y513604D01*
X233487Y513621D01*
X233547Y513629D01*
X233639Y513665D01*
X233735Y513693D01*
X233787Y513724D01*
X233842Y513746D01*
X233923Y513804D01*
X234009Y513855D01*
X234051Y513897D01*
X234100Y513932D01*
X234163Y514009D01*
X234234Y514080D01*
X234264Y514131D01*
X234302Y514177D01*
X234345Y514268D01*
X234396Y514353D01*
X234412Y514411D01*
X234438Y514465D01*
X234457Y514563D01*
X234485Y514659D01*
X234486Y514719D01*
X234498Y514778D01*
X234492Y514877D01*
X234495Y514977D01*
X234482Y515035D01*
X234478Y515095D01*
X234447Y515190D01*
X234426Y515287D01*
X234398Y515340D01*
X234380Y515397D01*
X234327Y515482D01*
X234281Y515571D01*
X234242Y515616D01*
X234210Y515666D01*
X234137Y515734D01*
X234071Y515809D01*
X234022Y515843D01*
X233978Y515884D01*
X233891Y515932D01*
X233808Y515988D01*
X233752Y516009D01*
X233700Y516038D01*
X233603Y516062D01*
X233509Y516096D01*
X233450Y516102D01*
X233392Y516117D01*
X233231Y516127D01*
X174105Y516127D01*
X169623Y517983D01*
X166193Y521413D01*
X164337Y525895D01*
X164337Y530745D01*
X166193Y535227D01*
X169623Y538657D01*
X174105Y540513D01*
X237375Y540513D01*
X241857Y538657D01*
X245287Y535227D01*
X247143Y530745D01*
X247143Y525895D01*
X245287Y521413D01*
X241857Y517983D01*
X237375Y516127D01*
X236669Y516127D01*
X236609Y516120D01*
X236550Y516122D01*
X236452Y516100D01*
X236353Y516087D01*
X236298Y516065D01*
X236239Y516052D01*
X236150Y516007D01*
X236058Y515970D01*
X236009Y515935D01*
X235956Y515908D01*
X235881Y515842D01*
X235800Y515784D01*
X235762Y515737D01*
X235717Y515698D01*
X235661Y515615D01*
X235598Y515539D01*
X235572Y515484D01*
X235538Y515435D01*
X235504Y515341D01*
X235462Y515251D01*
X235451Y515192D01*
X235430Y515136D01*
X235421Y515036D01*
X235402Y514939D01*
X235406Y514879D01*
X235400Y514819D01*
X235416Y514720D01*
X235422Y514621D01*
X235440Y514564D01*
X235450Y514505D01*
X235489Y514413D01*
X235520Y514319D01*
X235552Y514268D01*
X235576Y514213D01*
X235637Y514134D01*
X235690Y514050D01*
X235734Y514009D01*
X235771Y513961D01*
X235849Y513900D01*
X235922Y513832D01*
X235974Y513803D01*
X236022Y513766D01*
X236113Y513727D01*
X236200Y513678D01*
X236258Y513663D01*
X236313Y513640D01*
X236470Y513604D01*
X237477Y513445D01*
X239092Y512920D01*
X240606Y512149D01*
X241980Y511151D01*
X243181Y509950D01*
X244179Y508576D01*
X244950Y507062D01*
X245471Y505459D01*
X236220Y505459D01*
X236102Y505444D01*
X235983Y505437D01*
X235945Y505424D01*
X235905Y505419D01*
X235794Y505376D01*
X235681Y505339D01*
X235647Y505317D01*
X235609Y505302D01*
X235513Y505232D01*
X235412Y505169D01*
X235384Y505139D01*
X235352Y505115D01*
X235276Y505024D01*
X235194Y504937D01*
X235175Y504902D01*
X235149Y504871D01*
X235098Y504763D01*
X235041Y504659D01*
X235030Y504619D01*
X235013Y504583D01*
X234991Y504466D01*
X234961Y504351D01*
X234957Y504290D01*
X234953Y504270D01*
X234955Y504250D01*
X234951Y504190D01*
X234951Y502919D01*
X234949Y502919D01*
G37*
%LPD*%
%LPC*%
G36*
X281997Y376173D02*
X281997Y376173D01*
X279756Y377101D01*
X267881Y388976D01*
X266953Y391217D01*
X266953Y418084D01*
X266938Y418202D01*
X266931Y418321D01*
X266918Y418359D01*
X266913Y418400D01*
X266870Y418510D01*
X266833Y418623D01*
X266811Y418658D01*
X266796Y418695D01*
X266727Y418791D01*
X266663Y418892D01*
X266633Y418920D01*
X266610Y418953D01*
X266518Y419029D01*
X266431Y419110D01*
X266396Y419130D01*
X266365Y419155D01*
X266257Y419206D01*
X266153Y419264D01*
X266113Y419274D01*
X266077Y419291D01*
X265960Y419313D01*
X265845Y419343D01*
X265785Y419347D01*
X265765Y419351D01*
X265744Y419349D01*
X265684Y419353D01*
X223577Y419353D01*
X221336Y420281D01*
X219621Y421996D01*
X218693Y424237D01*
X218693Y426663D01*
X219621Y428904D01*
X221336Y430619D01*
X223577Y431547D01*
X270453Y431547D01*
X272694Y430619D01*
X278219Y425094D01*
X278377Y424710D01*
X278391Y424686D01*
X278400Y424660D01*
X278400Y424659D01*
X278401Y424657D01*
X278471Y424547D01*
X278535Y424434D01*
X278555Y424413D01*
X278571Y424388D01*
X278666Y424299D01*
X278756Y424206D01*
X278781Y424190D01*
X278803Y424170D01*
X278916Y424107D01*
X279027Y424039D01*
X279055Y424031D01*
X279081Y424016D01*
X279207Y423984D01*
X279331Y423946D01*
X279361Y423944D01*
X279389Y423937D01*
X279550Y423927D01*
X284423Y423927D01*
X286664Y422999D01*
X288379Y421284D01*
X289307Y419043D01*
X289307Y416617D01*
X288379Y414376D01*
X286664Y412661D01*
X284423Y411733D01*
X280416Y411733D01*
X280298Y411718D01*
X280179Y411711D01*
X280141Y411698D01*
X280100Y411693D01*
X279990Y411650D01*
X279877Y411613D01*
X279842Y411591D01*
X279805Y411576D01*
X279709Y411507D01*
X279608Y411443D01*
X279580Y411413D01*
X279547Y411390D01*
X279471Y411298D01*
X279390Y411211D01*
X279370Y411176D01*
X279345Y411145D01*
X279294Y411037D01*
X279236Y410933D01*
X279226Y410893D01*
X279209Y410857D01*
X279187Y410740D01*
X279157Y410625D01*
X279153Y410565D01*
X279149Y410545D01*
X279151Y410524D01*
X279147Y410464D01*
X279147Y395481D01*
X279159Y395383D01*
X279162Y395284D01*
X279179Y395226D01*
X279187Y395166D01*
X279223Y395073D01*
X279251Y394978D01*
X279281Y394926D01*
X279304Y394870D01*
X279362Y394790D01*
X279412Y394704D01*
X279478Y394629D01*
X279490Y394613D01*
X279500Y394605D01*
X279518Y394584D01*
X288379Y385724D01*
X289307Y383483D01*
X289307Y381057D01*
X288379Y378816D01*
X286664Y377101D01*
X284423Y376173D01*
X281997Y376173D01*
G37*
%LPD*%
%LPC*%
G36*
X359474Y200945D02*
X359474Y200945D01*
X357245Y201869D01*
X355539Y203575D01*
X354615Y205804D01*
X354615Y208216D01*
X355539Y210445D01*
X357245Y212151D01*
X359474Y213075D01*
X361189Y213075D01*
X361287Y213087D01*
X361386Y213090D01*
X361444Y213107D01*
X361505Y213115D01*
X361597Y213151D01*
X361692Y213179D01*
X361744Y213209D01*
X361800Y213232D01*
X361880Y213290D01*
X361966Y213340D01*
X362041Y213406D01*
X362058Y213418D01*
X362065Y213428D01*
X362087Y213446D01*
X371875Y223235D01*
X450557Y223235D01*
X450655Y223247D01*
X450754Y223250D01*
X450811Y223267D01*
X462250Y223267D01*
X462348Y223279D01*
X462447Y223282D01*
X462505Y223299D01*
X462565Y223307D01*
X462658Y223343D01*
X462753Y223371D01*
X462805Y223401D01*
X462861Y223424D01*
X462941Y223482D01*
X463027Y223532D01*
X463102Y223598D01*
X463119Y223610D01*
X463126Y223620D01*
X463147Y223638D01*
X463464Y223955D01*
X463524Y224033D01*
X463592Y224105D01*
X463621Y224158D01*
X463658Y224206D01*
X463698Y224297D01*
X463746Y224383D01*
X463761Y224442D01*
X463785Y224498D01*
X463800Y224596D01*
X463825Y224691D01*
X463831Y224791D01*
X463835Y224812D01*
X463833Y224824D01*
X463835Y224852D01*
X463835Y225996D01*
X464759Y228225D01*
X466465Y229931D01*
X468694Y230855D01*
X471106Y230855D01*
X473335Y229931D01*
X475041Y228225D01*
X475965Y225996D01*
X475965Y223584D01*
X475041Y221355D01*
X474294Y220607D01*
X474221Y220513D01*
X474143Y220424D01*
X474124Y220388D01*
X474099Y220356D01*
X474052Y220247D01*
X473998Y220141D01*
X473989Y220102D01*
X473973Y220064D01*
X473954Y219947D01*
X473928Y219831D01*
X473930Y219790D01*
X473923Y219750D01*
X473934Y219632D01*
X473938Y219513D01*
X473949Y219474D01*
X473953Y219434D01*
X473993Y219322D01*
X474026Y219207D01*
X474047Y219172D01*
X474061Y219134D01*
X474127Y219036D01*
X474188Y218933D01*
X474228Y218888D01*
X474239Y218871D01*
X474255Y218858D01*
X474294Y218812D01*
X475041Y218065D01*
X475965Y215836D01*
X475965Y213424D01*
X475041Y211195D01*
X473335Y209489D01*
X471106Y208565D01*
X468694Y208565D01*
X466465Y209489D01*
X465252Y210702D01*
X465173Y210762D01*
X465101Y210830D01*
X465048Y210859D01*
X465000Y210896D01*
X464909Y210936D01*
X464823Y210984D01*
X464764Y210999D01*
X464709Y211023D01*
X464611Y211038D01*
X464515Y211063D01*
X464415Y211069D01*
X464394Y211073D01*
X464382Y211071D01*
X464354Y211073D01*
X456691Y211073D01*
X456593Y211061D01*
X456494Y211058D01*
X456436Y211041D01*
X447737Y211041D01*
X447639Y211029D01*
X447540Y211026D01*
X447482Y211009D01*
X447421Y211001D01*
X447329Y210965D01*
X447234Y210937D01*
X447182Y210907D01*
X447126Y210884D01*
X447046Y210826D01*
X446960Y210776D01*
X446885Y210710D01*
X446868Y210698D01*
X446861Y210688D01*
X446839Y210670D01*
X444586Y208417D01*
X444526Y208338D01*
X444458Y208266D01*
X444429Y208213D01*
X444392Y208165D01*
X444352Y208074D01*
X444304Y207988D01*
X444289Y207929D01*
X444265Y207873D01*
X444250Y207775D01*
X444225Y207680D01*
X444219Y207580D01*
X444215Y207559D01*
X444217Y207547D01*
X444215Y207519D01*
X444215Y205804D01*
X443291Y203575D01*
X441585Y201869D01*
X439356Y200945D01*
X436944Y200945D01*
X434715Y201869D01*
X433009Y203575D01*
X432085Y205804D01*
X432085Y208216D01*
X433009Y210445D01*
X434715Y212151D01*
X436944Y213075D01*
X438659Y213075D01*
X438757Y213087D01*
X438856Y213090D01*
X438914Y213107D01*
X438975Y213115D01*
X439067Y213151D01*
X439162Y213179D01*
X439214Y213209D01*
X439270Y213232D01*
X439350Y213290D01*
X439436Y213340D01*
X439511Y213406D01*
X439528Y213418D01*
X439535Y213428D01*
X439556Y213446D01*
X440065Y213954D01*
X440150Y214064D01*
X440238Y214171D01*
X440247Y214190D01*
X440259Y214206D01*
X440315Y214334D01*
X440374Y214459D01*
X440378Y214479D01*
X440386Y214498D01*
X440408Y214636D01*
X440434Y214772D01*
X440433Y214792D01*
X440436Y214812D01*
X440423Y214951D01*
X440414Y215089D01*
X440408Y215108D01*
X440406Y215128D01*
X440359Y215259D01*
X440316Y215391D01*
X440305Y215409D01*
X440298Y215428D01*
X440220Y215542D01*
X440146Y215660D01*
X440131Y215674D01*
X440120Y215691D01*
X440016Y215783D01*
X439914Y215878D01*
X439896Y215888D01*
X439881Y215901D01*
X439758Y215964D01*
X439636Y216032D01*
X439616Y216037D01*
X439598Y216046D01*
X439462Y216076D01*
X439328Y216111D01*
X439300Y216113D01*
X439288Y216116D01*
X439267Y216115D01*
X439167Y216121D01*
X375347Y216121D01*
X375249Y216109D01*
X375150Y216106D01*
X375092Y216089D01*
X375031Y216081D01*
X374939Y216045D01*
X374844Y216017D01*
X374792Y215987D01*
X374736Y215964D01*
X374656Y215906D01*
X374570Y215856D01*
X374495Y215790D01*
X374478Y215778D01*
X374471Y215768D01*
X374449Y215750D01*
X367116Y208417D01*
X367056Y208338D01*
X366988Y208266D01*
X366959Y208213D01*
X366922Y208165D01*
X366882Y208074D01*
X366834Y207988D01*
X366819Y207929D01*
X366795Y207873D01*
X366780Y207775D01*
X366755Y207680D01*
X366749Y207580D01*
X366745Y207559D01*
X366747Y207547D01*
X366745Y207519D01*
X366745Y205804D01*
X365821Y203575D01*
X364115Y201869D01*
X361886Y200945D01*
X359474Y200945D01*
G37*
%LPD*%
%LPC*%
G36*
X178673Y297687D02*
X178673Y297687D01*
X175592Y298963D01*
X161803Y312752D01*
X160527Y315833D01*
X160527Y352872D01*
X160515Y352970D01*
X160512Y353069D01*
X160495Y353127D01*
X160487Y353188D01*
X160451Y353280D01*
X160423Y353375D01*
X160393Y353427D01*
X160370Y353483D01*
X160312Y353563D01*
X160262Y353649D01*
X160196Y353724D01*
X160184Y353741D01*
X160174Y353748D01*
X160156Y353770D01*
X156723Y357202D01*
X155447Y360283D01*
X155447Y363617D01*
X156723Y366698D01*
X159082Y369057D01*
X162163Y370333D01*
X165497Y370333D01*
X168578Y369057D01*
X176017Y361618D01*
X177293Y358537D01*
X177293Y321498D01*
X177305Y321400D01*
X177308Y321301D01*
X177325Y321243D01*
X177333Y321182D01*
X177369Y321090D01*
X177397Y320995D01*
X177427Y320943D01*
X177450Y320887D01*
X177508Y320807D01*
X177558Y320721D01*
X177624Y320646D01*
X177636Y320629D01*
X177646Y320622D01*
X177664Y320600D01*
X187447Y310818D01*
X188723Y307737D01*
X188723Y304403D01*
X187447Y301322D01*
X185088Y298963D01*
X182007Y297687D01*
X178673Y297687D01*
G37*
%LPD*%
%LPC*%
G36*
X429755Y54487D02*
X429755Y54487D01*
X425975Y56053D01*
X423083Y58945D01*
X421517Y62725D01*
X421517Y66815D01*
X423083Y70595D01*
X425332Y72843D01*
X425392Y72922D01*
X425460Y72994D01*
X425489Y73047D01*
X425526Y73095D01*
X425566Y73186D01*
X425614Y73272D01*
X425629Y73331D01*
X425653Y73387D01*
X425668Y73485D01*
X425693Y73580D01*
X425699Y73680D01*
X425703Y73701D01*
X425701Y73713D01*
X425703Y73741D01*
X425703Y79953D01*
X426631Y82194D01*
X438506Y94069D01*
X440747Y94997D01*
X469389Y94997D01*
X469487Y95009D01*
X469586Y95012D01*
X469644Y95029D01*
X469704Y95037D01*
X469797Y95073D01*
X469892Y95101D01*
X469944Y95131D01*
X470000Y95154D01*
X470080Y95212D01*
X470166Y95262D01*
X470241Y95328D01*
X470257Y95340D01*
X470265Y95350D01*
X470286Y95368D01*
X470854Y95936D01*
X470914Y96014D01*
X470982Y96086D01*
X471011Y96139D01*
X471048Y96187D01*
X471088Y96278D01*
X471136Y96364D01*
X471151Y96423D01*
X471175Y96479D01*
X471190Y96577D01*
X471215Y96672D01*
X471219Y96741D01*
X472377Y99535D01*
X474505Y101663D01*
X477285Y102815D01*
X480295Y102815D01*
X483075Y101663D01*
X485203Y99535D01*
X486355Y96755D01*
X486355Y93745D01*
X485203Y90965D01*
X483075Y88837D01*
X480264Y87673D01*
X480176Y87670D01*
X480118Y87653D01*
X480058Y87645D01*
X479965Y87609D01*
X479870Y87581D01*
X479818Y87551D01*
X479762Y87528D01*
X479682Y87470D01*
X479596Y87420D01*
X479521Y87354D01*
X479505Y87342D01*
X479497Y87332D01*
X479476Y87314D01*
X475894Y83731D01*
X473653Y82803D01*
X445011Y82803D01*
X444913Y82791D01*
X444814Y82788D01*
X444756Y82771D01*
X444696Y82763D01*
X444603Y82727D01*
X444508Y82699D01*
X444456Y82669D01*
X444400Y82646D01*
X444320Y82588D01*
X444234Y82538D01*
X444159Y82472D01*
X444143Y82460D01*
X444135Y82450D01*
X444114Y82432D01*
X438268Y76586D01*
X438208Y76508D01*
X438140Y76436D01*
X438111Y76383D01*
X438074Y76335D01*
X438034Y76244D01*
X437986Y76158D01*
X437971Y76099D01*
X437947Y76043D01*
X437932Y75945D01*
X437907Y75850D01*
X437901Y75750D01*
X437897Y75729D01*
X437899Y75717D01*
X437897Y75689D01*
X437897Y73741D01*
X437909Y73643D01*
X437912Y73544D01*
X437929Y73486D01*
X437937Y73425D01*
X437973Y73333D01*
X438001Y73238D01*
X438031Y73186D01*
X438054Y73130D01*
X438112Y73050D01*
X438162Y72964D01*
X438228Y72889D01*
X438240Y72872D01*
X438250Y72865D01*
X438268Y72843D01*
X440517Y70595D01*
X442083Y66815D01*
X442083Y62725D01*
X440517Y58945D01*
X437625Y56053D01*
X433845Y54487D01*
X429755Y54487D01*
G37*
%LPD*%
%LPC*%
G36*
X391655Y54487D02*
X391655Y54487D01*
X387875Y56053D01*
X384983Y58945D01*
X383417Y62725D01*
X383417Y66815D01*
X384983Y70595D01*
X387232Y72843D01*
X387292Y72922D01*
X387360Y72994D01*
X387389Y73047D01*
X387426Y73095D01*
X387466Y73186D01*
X387514Y73272D01*
X387529Y73331D01*
X387553Y73387D01*
X387568Y73485D01*
X387593Y73580D01*
X387599Y73680D01*
X387603Y73701D01*
X387601Y73713D01*
X387603Y73741D01*
X387603Y75689D01*
X387591Y75787D01*
X387588Y75886D01*
X387571Y75944D01*
X387563Y76004D01*
X387527Y76097D01*
X387499Y76192D01*
X387469Y76244D01*
X387446Y76300D01*
X387388Y76380D01*
X387338Y76466D01*
X387272Y76541D01*
X387260Y76557D01*
X387250Y76565D01*
X387232Y76586D01*
X381386Y82432D01*
X381308Y82492D01*
X381236Y82560D01*
X381183Y82589D01*
X381135Y82626D01*
X381044Y82666D01*
X380958Y82714D01*
X380899Y82729D01*
X380843Y82753D01*
X380745Y82768D01*
X380650Y82793D01*
X380550Y82799D01*
X380529Y82803D01*
X380517Y82801D01*
X380489Y82803D01*
X353117Y82803D01*
X350876Y83731D01*
X347294Y87314D01*
X347216Y87374D01*
X347144Y87442D01*
X347091Y87471D01*
X347043Y87508D01*
X346952Y87548D01*
X346866Y87596D01*
X346807Y87611D01*
X346751Y87635D01*
X346653Y87650D01*
X346558Y87675D01*
X346489Y87679D01*
X343695Y88837D01*
X341567Y90965D01*
X340415Y93745D01*
X340415Y96755D01*
X341567Y99535D01*
X343695Y101663D01*
X346475Y102815D01*
X349485Y102815D01*
X352265Y101663D01*
X354393Y99535D01*
X355557Y96724D01*
X355560Y96636D01*
X355577Y96578D01*
X355585Y96518D01*
X355621Y96425D01*
X355649Y96330D01*
X355679Y96278D01*
X355702Y96222D01*
X355760Y96142D01*
X355810Y96056D01*
X355876Y95981D01*
X355888Y95965D01*
X355898Y95957D01*
X355916Y95936D01*
X356484Y95368D01*
X356562Y95308D01*
X356634Y95240D01*
X356687Y95211D01*
X356735Y95174D01*
X356826Y95134D01*
X356912Y95086D01*
X356971Y95071D01*
X357027Y95047D01*
X357125Y95032D01*
X357220Y95007D01*
X357320Y95001D01*
X357341Y94997D01*
X357353Y94999D01*
X357381Y94997D01*
X384753Y94997D01*
X386994Y94069D01*
X398869Y82194D01*
X399797Y79953D01*
X399797Y73741D01*
X399809Y73643D01*
X399812Y73544D01*
X399829Y73485D01*
X399837Y73425D01*
X399873Y73333D01*
X399901Y73238D01*
X399931Y73186D01*
X399954Y73130D01*
X400012Y73050D01*
X400062Y72964D01*
X400128Y72889D01*
X400140Y72872D01*
X400150Y72865D01*
X400168Y72843D01*
X402417Y70595D01*
X403983Y66815D01*
X403983Y62725D01*
X402417Y58945D01*
X399525Y56053D01*
X395745Y54487D01*
X391655Y54487D01*
G37*
%LPD*%
%LPC*%
G36*
X298247Y420623D02*
X298247Y420623D01*
X271823Y447047D01*
X271799Y447065D01*
X271780Y447088D01*
X271674Y447163D01*
X271571Y447242D01*
X271544Y447254D01*
X271520Y447271D01*
X271399Y447317D01*
X271280Y447369D01*
X271250Y447373D01*
X271223Y447384D01*
X271094Y447398D01*
X270966Y447418D01*
X270936Y447416D01*
X270907Y447419D01*
X270778Y447401D01*
X270649Y447389D01*
X270621Y447379D01*
X270592Y447374D01*
X270448Y447325D01*
X268034Y447325D01*
X265805Y448249D01*
X264099Y449955D01*
X263175Y452184D01*
X263175Y454596D01*
X264099Y456825D01*
X265805Y458531D01*
X268034Y459455D01*
X270446Y459455D01*
X272675Y458531D01*
X274381Y456825D01*
X275305Y454596D01*
X275305Y454151D01*
X275317Y454053D01*
X275320Y453954D01*
X275337Y453896D01*
X275345Y453835D01*
X275381Y453743D01*
X275409Y453648D01*
X275439Y453596D01*
X275462Y453540D01*
X275520Y453460D01*
X275570Y453374D01*
X275636Y453299D01*
X275648Y453282D01*
X275658Y453275D01*
X275676Y453253D01*
X300821Y428108D01*
X300900Y428048D01*
X300972Y427980D01*
X301025Y427951D01*
X301073Y427914D01*
X301164Y427874D01*
X301250Y427826D01*
X301309Y427811D01*
X301365Y427787D01*
X301463Y427772D01*
X301558Y427747D01*
X301658Y427741D01*
X301679Y427737D01*
X301691Y427739D01*
X301719Y427737D01*
X328201Y427737D01*
X328299Y427749D01*
X328398Y427752D01*
X328456Y427769D01*
X328517Y427777D01*
X328609Y427813D01*
X328704Y427841D01*
X328756Y427871D01*
X328812Y427894D01*
X328892Y427952D01*
X328978Y428002D01*
X329053Y428068D01*
X329070Y428080D01*
X329070Y428081D01*
X329071Y428082D01*
X329078Y428091D01*
X329099Y428108D01*
X333892Y432901D01*
X333952Y432980D01*
X334020Y433052D01*
X334049Y433105D01*
X334086Y433153D01*
X334126Y433244D01*
X334174Y433330D01*
X334189Y433389D01*
X334213Y433445D01*
X334228Y433543D01*
X334253Y433638D01*
X334259Y433738D01*
X334263Y433759D01*
X334261Y433771D01*
X334263Y433799D01*
X334263Y433874D01*
X334251Y433972D01*
X334248Y434071D01*
X334231Y434130D01*
X334223Y434190D01*
X334187Y434282D01*
X334159Y434377D01*
X334129Y434429D01*
X334106Y434485D01*
X334048Y434565D01*
X333998Y434651D01*
X333932Y434726D01*
X333920Y434743D01*
X333910Y434750D01*
X333892Y434772D01*
X332679Y435985D01*
X331755Y438214D01*
X331755Y440626D01*
X332679Y442855D01*
X334385Y444561D01*
X336614Y445485D01*
X339026Y445485D01*
X341255Y444561D01*
X342961Y442855D01*
X343885Y440626D01*
X343885Y438214D01*
X342961Y435985D01*
X341748Y434772D01*
X341688Y434693D01*
X341620Y434621D01*
X341591Y434568D01*
X341554Y434520D01*
X341514Y434429D01*
X341466Y434343D01*
X341451Y434284D01*
X341427Y434229D01*
X341412Y434131D01*
X341387Y434035D01*
X341381Y433935D01*
X341377Y433914D01*
X341379Y433902D01*
X341377Y433874D01*
X341377Y430327D01*
X331673Y420623D01*
X298247Y420623D01*
G37*
%LPD*%
%LPC*%
G36*
X309944Y432085D02*
X309944Y432085D01*
X307715Y433009D01*
X306009Y434715D01*
X305085Y436944D01*
X305085Y439356D01*
X306009Y441585D01*
X306206Y441782D01*
X306266Y441861D01*
X306334Y441933D01*
X306363Y441986D01*
X306400Y442034D01*
X306440Y442125D01*
X306488Y442211D01*
X306503Y442270D01*
X306527Y442325D01*
X306542Y442423D01*
X306567Y442519D01*
X306573Y442619D01*
X306577Y442640D01*
X306575Y442652D01*
X306577Y442680D01*
X306577Y448402D01*
X316392Y458217D01*
X368983Y458217D01*
X369067Y458195D01*
X369167Y458189D01*
X369188Y458185D01*
X369200Y458187D01*
X369228Y458185D01*
X369506Y458185D01*
X371735Y457261D01*
X373441Y455555D01*
X374365Y453326D01*
X374365Y450914D01*
X373441Y448685D01*
X371735Y446979D01*
X369506Y446055D01*
X367094Y446055D01*
X364865Y446979D01*
X363144Y448700D01*
X363065Y448760D01*
X362993Y448828D01*
X362940Y448857D01*
X362892Y448894D01*
X362801Y448934D01*
X362715Y448982D01*
X362656Y448997D01*
X362601Y449021D01*
X362503Y449036D01*
X362407Y449061D01*
X362307Y449067D01*
X362286Y449071D01*
X362274Y449069D01*
X362246Y449071D01*
X320706Y449071D01*
X320608Y449059D01*
X320509Y449056D01*
X320450Y449039D01*
X320390Y449031D01*
X320298Y448995D01*
X320203Y448967D01*
X320151Y448937D01*
X320095Y448914D01*
X320015Y448856D01*
X319929Y448806D01*
X319854Y448740D01*
X319837Y448728D01*
X319830Y448718D01*
X319808Y448700D01*
X316094Y444986D01*
X316034Y444907D01*
X315966Y444835D01*
X315937Y444782D01*
X315900Y444734D01*
X315860Y444643D01*
X315812Y444557D01*
X315797Y444498D01*
X315773Y444442D01*
X315758Y444345D01*
X315733Y444249D01*
X315727Y444149D01*
X315723Y444128D01*
X315725Y444116D01*
X315723Y444088D01*
X315723Y442680D01*
X315735Y442582D01*
X315738Y442483D01*
X315755Y442424D01*
X315763Y442364D01*
X315799Y442272D01*
X315827Y442177D01*
X315857Y442125D01*
X315880Y442069D01*
X315938Y441989D01*
X315988Y441903D01*
X316054Y441828D01*
X316066Y441811D01*
X316076Y441804D01*
X316094Y441782D01*
X316291Y441585D01*
X317215Y439356D01*
X317215Y436944D01*
X316291Y434715D01*
X314585Y433009D01*
X312356Y432085D01*
X309944Y432085D01*
G37*
%LPD*%
%LPC*%
G36*
X297244Y346995D02*
X297244Y346995D01*
X295015Y347919D01*
X293802Y349132D01*
X293723Y349192D01*
X293651Y349260D01*
X293598Y349289D01*
X293550Y349326D01*
X293459Y349366D01*
X293373Y349414D01*
X293314Y349429D01*
X293259Y349453D01*
X293161Y349468D01*
X293065Y349493D01*
X292965Y349499D01*
X292944Y349503D01*
X292932Y349501D01*
X292904Y349503D01*
X279197Y349503D01*
X256677Y372024D01*
X256598Y372084D01*
X256526Y372152D01*
X256473Y372181D01*
X256425Y372218D01*
X256334Y372258D01*
X256248Y372306D01*
X256189Y372321D01*
X256133Y372345D01*
X256035Y372360D01*
X255940Y372385D01*
X255840Y372391D01*
X255819Y372395D01*
X255807Y372393D01*
X255779Y372395D01*
X239224Y372395D01*
X234515Y377104D01*
X234437Y377164D01*
X234365Y377232D01*
X234312Y377261D01*
X234264Y377298D01*
X234173Y377338D01*
X234087Y377386D01*
X234028Y377401D01*
X233972Y377425D01*
X233874Y377440D01*
X233779Y377465D01*
X233679Y377471D01*
X233658Y377475D01*
X233646Y377473D01*
X233618Y377475D01*
X232474Y377475D01*
X230245Y378399D01*
X228539Y380105D01*
X227615Y382334D01*
X227615Y384746D01*
X228539Y386975D01*
X230245Y388681D01*
X232474Y389605D01*
X234886Y389605D01*
X237115Y388681D01*
X238821Y386975D01*
X239745Y384746D01*
X239745Y382460D01*
X239757Y382362D01*
X239760Y382263D01*
X239777Y382204D01*
X239785Y382144D01*
X239821Y382052D01*
X239849Y381957D01*
X239879Y381905D01*
X239902Y381849D01*
X239960Y381769D01*
X240010Y381683D01*
X240076Y381608D01*
X240088Y381591D01*
X240098Y381584D01*
X240116Y381562D01*
X241798Y379880D01*
X241877Y379820D01*
X241949Y379752D01*
X242002Y379723D01*
X242050Y379686D01*
X242141Y379646D01*
X242227Y379598D01*
X242286Y379583D01*
X242342Y379559D01*
X242440Y379544D01*
X242535Y379519D01*
X242635Y379513D01*
X242656Y379509D01*
X242668Y379511D01*
X242696Y379509D01*
X259251Y379509D01*
X281771Y356988D01*
X281850Y356928D01*
X281922Y356860D01*
X281975Y356831D01*
X282023Y356794D01*
X282114Y356754D01*
X282200Y356706D01*
X282259Y356691D01*
X282315Y356667D01*
X282413Y356652D01*
X282508Y356627D01*
X282608Y356621D01*
X282629Y356617D01*
X282641Y356619D01*
X282669Y356617D01*
X292904Y356617D01*
X293002Y356629D01*
X293101Y356632D01*
X293160Y356649D01*
X293220Y356657D01*
X293312Y356693D01*
X293407Y356721D01*
X293459Y356751D01*
X293515Y356774D01*
X293595Y356832D01*
X293681Y356882D01*
X293756Y356948D01*
X293773Y356960D01*
X293780Y356970D01*
X293802Y356988D01*
X295015Y358201D01*
X297244Y359125D01*
X299656Y359125D01*
X301885Y358201D01*
X303591Y356495D01*
X304515Y354266D01*
X304515Y351854D01*
X303591Y349625D01*
X301885Y347919D01*
X299656Y346995D01*
X297244Y346995D01*
G37*
%LPD*%
%LPC*%
G36*
X402355Y360735D02*
X402355Y360735D01*
X399575Y361887D01*
X397447Y364015D01*
X396295Y366795D01*
X396295Y369805D01*
X397460Y372616D01*
X397520Y372680D01*
X397549Y372733D01*
X397586Y372781D01*
X397626Y372872D01*
X397674Y372958D01*
X397689Y373017D01*
X397713Y373073D01*
X397728Y373170D01*
X397753Y373266D01*
X397759Y373367D01*
X397763Y373387D01*
X397761Y373399D01*
X397763Y373427D01*
X397763Y402533D01*
X398739Y404888D01*
X398741Y404896D01*
X398746Y404905D01*
X398783Y405048D01*
X398823Y405194D01*
X398823Y405204D01*
X398825Y405213D01*
X398835Y405363D01*
X399987Y408145D01*
X402115Y410273D01*
X404895Y411425D01*
X407905Y411425D01*
X410685Y410273D01*
X412813Y408145D01*
X413965Y405365D01*
X413965Y402355D01*
X412813Y399575D01*
X410680Y397442D01*
X410577Y397377D01*
X410464Y397312D01*
X410443Y397292D01*
X410418Y397276D01*
X410329Y397181D01*
X410236Y397091D01*
X410220Y397066D01*
X410200Y397044D01*
X410137Y396931D01*
X410069Y396820D01*
X410061Y396792D01*
X410046Y396766D01*
X410014Y396640D01*
X409976Y396516D01*
X409974Y396486D01*
X409967Y396458D01*
X409957Y396297D01*
X409957Y373427D01*
X409969Y373329D01*
X409972Y373230D01*
X409989Y373172D01*
X409997Y373112D01*
X410033Y373019D01*
X410061Y372924D01*
X410091Y372872D01*
X410114Y372816D01*
X410172Y372736D01*
X410222Y372650D01*
X410267Y372599D01*
X411425Y369805D01*
X411425Y366795D01*
X410273Y364015D01*
X408145Y361887D01*
X405365Y360735D01*
X402355Y360735D01*
G37*
%LPD*%
%LPC*%
G36*
X505659Y623507D02*
X505659Y623507D01*
X500501Y625644D01*
X496554Y629591D01*
X494417Y634749D01*
X494417Y640331D01*
X496554Y645489D01*
X500501Y649436D01*
X505659Y651573D01*
X511241Y651573D01*
X516399Y649436D01*
X520346Y645489D01*
X522483Y640331D01*
X522483Y634749D01*
X520346Y629591D01*
X516399Y625644D01*
X511241Y623507D01*
X505659Y623507D01*
G37*
%LPD*%
%LPC*%
G36*
X223285Y604575D02*
X223285Y604575D01*
X220505Y605727D01*
X218377Y607855D01*
X217225Y610635D01*
X217225Y613645D01*
X218377Y616425D01*
X220505Y618553D01*
X223285Y619705D01*
X226295Y619705D01*
X227153Y619349D01*
X227162Y619347D01*
X227170Y619342D01*
X227314Y619305D01*
X227459Y619265D01*
X227469Y619265D01*
X227478Y619263D01*
X227638Y619253D01*
X252422Y619253D01*
X252431Y619254D01*
X252440Y619253D01*
X252589Y619274D01*
X252737Y619293D01*
X252746Y619296D01*
X252755Y619297D01*
X252907Y619349D01*
X253765Y619705D01*
X256775Y619705D01*
X259555Y618553D01*
X261683Y616425D01*
X262835Y613645D01*
X262835Y610635D01*
X261683Y607855D01*
X259555Y605727D01*
X256775Y604575D01*
X253765Y604575D01*
X252907Y604931D01*
X252898Y604933D01*
X252890Y604938D01*
X252746Y604975D01*
X252601Y605015D01*
X252591Y605015D01*
X252582Y605017D01*
X252422Y605027D01*
X227638Y605027D01*
X227629Y605026D01*
X227620Y605027D01*
X227471Y605006D01*
X227323Y604987D01*
X227314Y604984D01*
X227305Y604983D01*
X227153Y604931D01*
X226295Y604575D01*
X223285Y604575D01*
G37*
%LPD*%
%LPC*%
G36*
X98905Y627257D02*
X98905Y627257D01*
X95125Y628823D01*
X92233Y631715D01*
X90667Y635495D01*
X90667Y639585D01*
X92233Y643365D01*
X95125Y646257D01*
X98905Y647823D01*
X102995Y647823D01*
X106775Y646257D01*
X109667Y643365D01*
X111233Y639585D01*
X111233Y635495D01*
X109667Y631715D01*
X106775Y628823D01*
X102995Y627257D01*
X98905Y627257D01*
G37*
%LPD*%
%LPC*%
G36*
X216395Y345317D02*
X216395Y345317D01*
X212615Y346883D01*
X209723Y349775D01*
X208157Y353555D01*
X208157Y357645D01*
X209723Y361425D01*
X212615Y364317D01*
X216395Y365883D01*
X220485Y365883D01*
X224265Y364317D01*
X227157Y361425D01*
X228723Y357645D01*
X228723Y353555D01*
X227157Y349775D01*
X224265Y346883D01*
X220485Y345317D01*
X216395Y345317D01*
G37*
%LPD*%
%LPC*%
G36*
X201155Y54487D02*
X201155Y54487D01*
X197375Y56053D01*
X194483Y58945D01*
X192917Y62725D01*
X192917Y66815D01*
X194483Y70595D01*
X197375Y73487D01*
X201155Y75053D01*
X205245Y75053D01*
X209025Y73487D01*
X211917Y70595D01*
X213483Y66815D01*
X213483Y62725D01*
X211917Y58945D01*
X209025Y56053D01*
X205245Y54487D01*
X201155Y54487D01*
G37*
%LPD*%
%LPC*%
G36*
X241795Y345317D02*
X241795Y345317D01*
X238015Y346883D01*
X235123Y349775D01*
X233557Y353555D01*
X233557Y357645D01*
X235123Y361425D01*
X238015Y364317D01*
X241795Y365883D01*
X245885Y365883D01*
X249665Y364317D01*
X252557Y361425D01*
X254123Y357645D01*
X254123Y353555D01*
X252557Y349775D01*
X249665Y346883D01*
X245885Y345317D01*
X241795Y345317D01*
G37*
%LPD*%
%LPC*%
G36*
X239255Y54487D02*
X239255Y54487D01*
X235475Y56053D01*
X232583Y58945D01*
X231017Y62725D01*
X231017Y66815D01*
X232583Y70595D01*
X235475Y73487D01*
X239255Y75053D01*
X243345Y75053D01*
X247125Y73487D01*
X250017Y70595D01*
X251583Y66815D01*
X251583Y62725D01*
X250017Y58945D01*
X247125Y56053D01*
X243345Y54487D01*
X239255Y54487D01*
G37*
%LPD*%
%LPC*%
G36*
X258305Y518037D02*
X258305Y518037D01*
X254525Y519603D01*
X251633Y522495D01*
X250067Y526275D01*
X250067Y530365D01*
X251633Y534145D01*
X254525Y537037D01*
X258305Y538603D01*
X262395Y538603D01*
X266175Y537037D01*
X269067Y534145D01*
X270633Y530365D01*
X270633Y526275D01*
X269067Y522495D01*
X266175Y519603D01*
X262395Y518037D01*
X258305Y518037D01*
G37*
%LPD*%
%LPC*%
G36*
X277355Y54487D02*
X277355Y54487D01*
X273575Y56053D01*
X270683Y58945D01*
X269117Y62725D01*
X269117Y66815D01*
X270683Y70595D01*
X273575Y73487D01*
X277355Y75053D01*
X281445Y75053D01*
X285225Y73487D01*
X288117Y70595D01*
X289683Y66815D01*
X289683Y62725D01*
X288117Y58945D01*
X285225Y56053D01*
X281445Y54487D01*
X277355Y54487D01*
G37*
%LPD*%
%LPC*%
G36*
X315455Y54487D02*
X315455Y54487D01*
X311675Y56053D01*
X308783Y58945D01*
X307217Y62725D01*
X307217Y66815D01*
X308783Y70595D01*
X311675Y73487D01*
X315455Y75053D01*
X319545Y75053D01*
X323325Y73487D01*
X326217Y70595D01*
X327783Y66815D01*
X327783Y62725D01*
X326217Y58945D01*
X323325Y56053D01*
X319545Y54487D01*
X315455Y54487D01*
G37*
%LPD*%
%LPC*%
G36*
X353555Y54487D02*
X353555Y54487D01*
X349775Y56053D01*
X346883Y58945D01*
X345317Y62725D01*
X345317Y66815D01*
X346883Y70595D01*
X349775Y73487D01*
X353555Y75053D01*
X357645Y75053D01*
X361425Y73487D01*
X364317Y70595D01*
X365883Y66815D01*
X365883Y62725D01*
X364317Y58945D01*
X361425Y56053D01*
X357645Y54487D01*
X353555Y54487D01*
G37*
%LPD*%
%LPC*%
G36*
X467855Y54487D02*
X467855Y54487D01*
X464075Y56053D01*
X461183Y58945D01*
X459617Y62725D01*
X459617Y66815D01*
X461183Y70595D01*
X464075Y73487D01*
X467855Y75053D01*
X471945Y75053D01*
X475725Y73487D01*
X478617Y70595D01*
X480183Y66815D01*
X480183Y62725D01*
X478617Y58945D01*
X475725Y56053D01*
X471945Y54487D01*
X467855Y54487D01*
G37*
%LPD*%
%LPC*%
G36*
X163055Y54487D02*
X163055Y54487D01*
X159275Y56053D01*
X156383Y58945D01*
X154817Y62725D01*
X154817Y66815D01*
X156383Y70595D01*
X159275Y73487D01*
X163055Y75053D01*
X167145Y75053D01*
X170925Y73487D01*
X173817Y70595D01*
X175383Y66815D01*
X175383Y62725D01*
X173817Y58945D01*
X170925Y56053D01*
X167145Y54487D01*
X163055Y54487D01*
G37*
%LPD*%
%LPC*%
G36*
X216395Y319917D02*
X216395Y319917D01*
X212615Y321483D01*
X209723Y324375D01*
X208157Y328155D01*
X208157Y332245D01*
X209723Y336025D01*
X212615Y338917D01*
X216395Y340483D01*
X220485Y340483D01*
X224265Y338917D01*
X227157Y336025D01*
X228723Y332245D01*
X228723Y328155D01*
X227157Y324375D01*
X224265Y321483D01*
X220485Y319917D01*
X216395Y319917D01*
G37*
%LPD*%
%LPC*%
G36*
X241795Y319917D02*
X241795Y319917D01*
X238015Y321483D01*
X235123Y324375D01*
X233557Y328155D01*
X233557Y332245D01*
X235123Y336025D01*
X238015Y338917D01*
X241795Y340483D01*
X245885Y340483D01*
X249665Y338917D01*
X252557Y336025D01*
X254123Y332245D01*
X254123Y328155D01*
X252557Y324375D01*
X249665Y321483D01*
X245885Y319917D01*
X241795Y319917D01*
G37*
%LPD*%
%LPC*%
G36*
X138705Y601857D02*
X138705Y601857D01*
X134925Y603423D01*
X132033Y606315D01*
X130467Y610095D01*
X130467Y614185D01*
X132033Y617965D01*
X134925Y620857D01*
X138705Y622423D01*
X142795Y622423D01*
X146575Y620857D01*
X149467Y617965D01*
X151033Y614185D01*
X151033Y610095D01*
X149467Y606315D01*
X146575Y603423D01*
X142795Y601857D01*
X138705Y601857D01*
G37*
%LPD*%
%LPC*%
G36*
X190995Y345317D02*
X190995Y345317D01*
X187215Y346883D01*
X184323Y349775D01*
X182757Y353555D01*
X182757Y357645D01*
X184323Y361425D01*
X187215Y364317D01*
X190995Y365883D01*
X195085Y365883D01*
X198865Y364317D01*
X201757Y361425D01*
X203323Y357645D01*
X203323Y353555D01*
X201757Y349775D01*
X198865Y346883D01*
X195085Y345317D01*
X190995Y345317D01*
G37*
%LPD*%
%LPC*%
G36*
X164105Y601857D02*
X164105Y601857D01*
X160325Y603423D01*
X157433Y606315D01*
X155867Y610095D01*
X155867Y614185D01*
X157433Y617965D01*
X160325Y620857D01*
X164105Y622423D01*
X168195Y622423D01*
X171975Y620857D01*
X174867Y617965D01*
X176433Y614185D01*
X176433Y610095D01*
X174867Y606315D01*
X171975Y603423D01*
X168195Y601857D01*
X164105Y601857D01*
G37*
%LPD*%
%LPC*%
G36*
X232905Y568837D02*
X232905Y568837D01*
X229125Y570403D01*
X226233Y573295D01*
X224667Y577075D01*
X224667Y581165D01*
X226233Y584945D01*
X229125Y587837D01*
X232905Y589403D01*
X236995Y589403D01*
X240775Y587837D01*
X243667Y584945D01*
X245233Y581165D01*
X245233Y577075D01*
X243667Y573295D01*
X240775Y570403D01*
X236995Y568837D01*
X232905Y568837D01*
G37*
%LPD*%
%LPC*%
G36*
X232905Y543437D02*
X232905Y543437D01*
X229125Y545003D01*
X226233Y547895D01*
X224667Y551675D01*
X224667Y555765D01*
X226233Y559545D01*
X229125Y562437D01*
X232905Y564003D01*
X236995Y564003D01*
X240775Y562437D01*
X243667Y559545D01*
X245233Y555765D01*
X245233Y551675D01*
X243667Y547895D01*
X240775Y545003D01*
X236995Y543437D01*
X232905Y543437D01*
G37*
%LPD*%
%LPC*%
G36*
X242634Y250475D02*
X242634Y250475D01*
X240405Y251399D01*
X238699Y253105D01*
X237775Y255334D01*
X237775Y257746D01*
X238699Y259975D01*
X239912Y261188D01*
X239972Y261267D01*
X240040Y261339D01*
X240069Y261392D01*
X240106Y261440D01*
X240146Y261531D01*
X240194Y261617D01*
X240209Y261676D01*
X240233Y261731D01*
X240248Y261829D01*
X240273Y261925D01*
X240279Y262025D01*
X240283Y262046D01*
X240281Y262058D01*
X240283Y262086D01*
X240283Y273854D01*
X240271Y273952D01*
X240268Y274051D01*
X240251Y274110D01*
X240243Y274170D01*
X240207Y274262D01*
X240179Y274357D01*
X240149Y274409D01*
X240126Y274465D01*
X240068Y274545D01*
X240018Y274631D01*
X239952Y274706D01*
X239940Y274723D01*
X239930Y274730D01*
X239912Y274752D01*
X238699Y275965D01*
X237775Y278194D01*
X237775Y280606D01*
X238699Y282835D01*
X240405Y284541D01*
X242634Y285465D01*
X245046Y285465D01*
X247275Y284541D01*
X248981Y282835D01*
X249905Y280606D01*
X249905Y278194D01*
X248981Y275965D01*
X247768Y274752D01*
X247708Y274673D01*
X247640Y274601D01*
X247611Y274548D01*
X247574Y274500D01*
X247534Y274409D01*
X247486Y274323D01*
X247471Y274264D01*
X247447Y274209D01*
X247432Y274111D01*
X247407Y274015D01*
X247401Y273915D01*
X247397Y273894D01*
X247399Y273882D01*
X247397Y273854D01*
X247397Y262086D01*
X247409Y261988D01*
X247412Y261889D01*
X247429Y261830D01*
X247437Y261770D01*
X247473Y261678D01*
X247501Y261583D01*
X247531Y261531D01*
X247554Y261475D01*
X247612Y261395D01*
X247662Y261309D01*
X247728Y261234D01*
X247740Y261217D01*
X247750Y261210D01*
X247768Y261188D01*
X248981Y259975D01*
X249905Y257746D01*
X249905Y255334D01*
X248981Y253105D01*
X247275Y251399D01*
X245046Y250475D01*
X242634Y250475D01*
G37*
%LPD*%
%LPC*%
G36*
X428054Y303815D02*
X428054Y303815D01*
X425825Y304739D01*
X424119Y306445D01*
X423195Y308674D01*
X423195Y311086D01*
X424119Y313315D01*
X425825Y315021D01*
X428054Y315945D01*
X430466Y315945D01*
X432695Y315021D01*
X433908Y313808D01*
X433987Y313748D01*
X434059Y313680D01*
X434112Y313651D01*
X434160Y313614D01*
X434251Y313574D01*
X434337Y313526D01*
X434396Y313511D01*
X434451Y313487D01*
X434549Y313472D01*
X434645Y313447D01*
X434745Y313441D01*
X434766Y313437D01*
X434778Y313439D01*
X434806Y313437D01*
X436151Y313437D01*
X436249Y313449D01*
X436348Y313452D01*
X436406Y313469D01*
X436467Y313477D01*
X436559Y313513D01*
X436654Y313541D01*
X436706Y313571D01*
X436762Y313594D01*
X436842Y313652D01*
X436928Y313702D01*
X437003Y313768D01*
X437020Y313780D01*
X437027Y313790D01*
X437049Y313808D01*
X438064Y314823D01*
X438124Y314902D01*
X438192Y314974D01*
X438221Y315027D01*
X438258Y315075D01*
X438298Y315166D01*
X438346Y315252D01*
X438361Y315311D01*
X438385Y315367D01*
X438400Y315465D01*
X438425Y315560D01*
X438431Y315660D01*
X438435Y315681D01*
X438433Y315693D01*
X438435Y315721D01*
X438435Y317436D01*
X439359Y319665D01*
X441065Y321371D01*
X443294Y322295D01*
X445706Y322295D01*
X447935Y321371D01*
X449641Y319665D01*
X450565Y317436D01*
X450565Y315024D01*
X449641Y312795D01*
X447935Y311089D01*
X445706Y310165D01*
X443991Y310165D01*
X443893Y310153D01*
X443794Y310150D01*
X443736Y310133D01*
X443675Y310125D01*
X443583Y310089D01*
X443488Y310061D01*
X443436Y310031D01*
X443380Y310008D01*
X443300Y309950D01*
X443214Y309900D01*
X443139Y309834D01*
X443122Y309822D01*
X443115Y309812D01*
X443093Y309794D01*
X439623Y306323D01*
X434806Y306323D01*
X434708Y306311D01*
X434609Y306308D01*
X434550Y306291D01*
X434490Y306283D01*
X434398Y306247D01*
X434303Y306219D01*
X434251Y306189D01*
X434195Y306166D01*
X434115Y306108D01*
X434029Y306058D01*
X433954Y305992D01*
X433937Y305980D01*
X433930Y305970D01*
X433908Y305952D01*
X432695Y304739D01*
X430466Y303815D01*
X428054Y303815D01*
G37*
%LPD*%
%LPC*%
G36*
X485589Y665479D02*
X485589Y665479D01*
X485589Y677260D01*
X486455Y677123D01*
X488632Y676415D01*
X490671Y675376D01*
X492523Y674031D01*
X494141Y672413D01*
X495486Y670561D01*
X496525Y668522D01*
X497233Y666345D01*
X497370Y665479D01*
X485589Y665479D01*
G37*
%LPD*%
%LPC*%
G36*
X536389Y665479D02*
X536389Y665479D01*
X536389Y677260D01*
X537255Y677123D01*
X539432Y676415D01*
X541471Y675376D01*
X543323Y674031D01*
X544941Y672413D01*
X546286Y670561D01*
X547325Y668522D01*
X548033Y666345D01*
X548170Y665479D01*
X536389Y665479D01*
G37*
%LPD*%
%LPC*%
G36*
X536389Y614679D02*
X536389Y614679D01*
X536389Y626460D01*
X537255Y626323D01*
X539432Y625615D01*
X541471Y624576D01*
X543323Y623231D01*
X544941Y621613D01*
X546286Y619761D01*
X547325Y617722D01*
X548033Y615545D01*
X548170Y614679D01*
X536389Y614679D01*
G37*
%LPD*%
%LPC*%
G36*
X485589Y614679D02*
X485589Y614679D01*
X485589Y626460D01*
X486455Y626323D01*
X488632Y625615D01*
X490671Y624576D01*
X492523Y623231D01*
X494141Y621613D01*
X495486Y619761D01*
X496525Y617722D01*
X497233Y615545D01*
X497370Y614679D01*
X485589Y614679D01*
G37*
%LPD*%
%LPC*%
G36*
X519530Y614679D02*
X519530Y614679D01*
X519667Y615545D01*
X520375Y617722D01*
X521414Y619761D01*
X522759Y621613D01*
X524377Y623231D01*
X526229Y624576D01*
X528268Y625615D01*
X530445Y626323D01*
X531311Y626460D01*
X531311Y614679D01*
X519530Y614679D01*
G37*
%LPD*%
%LPC*%
G36*
X468730Y614679D02*
X468730Y614679D01*
X468867Y615545D01*
X469575Y617722D01*
X470614Y619761D01*
X471959Y621613D01*
X473577Y623231D01*
X475429Y624576D01*
X477468Y625615D01*
X479645Y626323D01*
X480511Y626460D01*
X480511Y614679D01*
X468730Y614679D01*
G37*
%LPD*%
%LPC*%
G36*
X485589Y609601D02*
X485589Y609601D01*
X497370Y609601D01*
X497233Y608735D01*
X496525Y606558D01*
X495486Y604519D01*
X494141Y602667D01*
X492523Y601049D01*
X490671Y599704D01*
X488632Y598665D01*
X486455Y597957D01*
X485589Y597820D01*
X485589Y609601D01*
G37*
%LPD*%
%LPC*%
G36*
X536389Y660401D02*
X536389Y660401D01*
X548170Y660401D01*
X548033Y659535D01*
X547325Y657358D01*
X546286Y655319D01*
X544941Y653467D01*
X543323Y651849D01*
X541471Y650504D01*
X539432Y649465D01*
X537255Y648757D01*
X536389Y648620D01*
X536389Y660401D01*
G37*
%LPD*%
%LPC*%
G36*
X468730Y665479D02*
X468730Y665479D01*
X468867Y666345D01*
X469575Y668522D01*
X470614Y670561D01*
X471959Y672413D01*
X473577Y674031D01*
X475429Y675376D01*
X477468Y676415D01*
X479645Y677123D01*
X480511Y677260D01*
X480511Y665479D01*
X468730Y665479D01*
G37*
%LPD*%
%LPC*%
G36*
X485589Y660401D02*
X485589Y660401D01*
X497370Y660401D01*
X497233Y659535D01*
X496525Y657358D01*
X495486Y655319D01*
X494141Y653467D01*
X492523Y651849D01*
X490671Y650504D01*
X488632Y649465D01*
X486455Y648757D01*
X485589Y648620D01*
X485589Y660401D01*
G37*
%LPD*%
%LPC*%
G36*
X536389Y609601D02*
X536389Y609601D01*
X548170Y609601D01*
X548033Y608735D01*
X547325Y606558D01*
X546286Y604519D01*
X544941Y602667D01*
X543323Y601049D01*
X541471Y599704D01*
X539432Y598665D01*
X537255Y597957D01*
X536389Y597820D01*
X536389Y609601D01*
G37*
%LPD*%
%LPC*%
G36*
X519530Y665479D02*
X519530Y665479D01*
X519667Y666345D01*
X520375Y668522D01*
X521414Y670561D01*
X522759Y672413D01*
X524377Y674031D01*
X526229Y675376D01*
X528268Y676415D01*
X530445Y677123D01*
X531311Y677260D01*
X531311Y665479D01*
X519530Y665479D01*
G37*
%LPD*%
%LPC*%
G36*
X479645Y597957D02*
X479645Y597957D01*
X477468Y598665D01*
X475429Y599704D01*
X473577Y601049D01*
X471959Y602667D01*
X470614Y604519D01*
X469575Y606558D01*
X468867Y608735D01*
X468730Y609601D01*
X480511Y609601D01*
X480511Y597820D01*
X479645Y597957D01*
G37*
%LPD*%
%LPC*%
G36*
X479645Y648757D02*
X479645Y648757D01*
X477468Y649465D01*
X475429Y650504D01*
X473577Y651849D01*
X471959Y653467D01*
X470614Y655319D01*
X469575Y657358D01*
X468867Y659535D01*
X468730Y660401D01*
X480511Y660401D01*
X480511Y648620D01*
X479645Y648757D01*
G37*
%LPD*%
%LPC*%
G36*
X530445Y597957D02*
X530445Y597957D01*
X528268Y598665D01*
X526229Y599704D01*
X524377Y601049D01*
X522759Y602667D01*
X521414Y604519D01*
X520375Y606558D01*
X519667Y608735D01*
X519530Y609601D01*
X531311Y609601D01*
X531311Y597820D01*
X530445Y597957D01*
G37*
%LPD*%
%LPC*%
G36*
X530445Y648757D02*
X530445Y648757D01*
X528268Y649465D01*
X526229Y650504D01*
X524377Y651849D01*
X522759Y653467D01*
X521414Y655319D01*
X520375Y657358D01*
X519667Y659535D01*
X519530Y660401D01*
X531311Y660401D01*
X531311Y648620D01*
X530445Y648757D01*
G37*
%LPD*%
%LPC*%
G36*
X115989Y615079D02*
X115989Y615079D01*
X115989Y626100D01*
X116679Y625991D01*
X118744Y625320D01*
X120678Y624335D01*
X122434Y623059D01*
X123969Y621524D01*
X125245Y619768D01*
X126230Y617834D01*
X126901Y615769D01*
X127010Y615079D01*
X115989Y615079D01*
G37*
%LPD*%
%LPC*%
G36*
X45989Y615079D02*
X45989Y615079D01*
X45989Y626100D01*
X46679Y625991D01*
X48744Y625320D01*
X50678Y624335D01*
X52434Y623059D01*
X53969Y621524D01*
X55245Y619768D01*
X56230Y617834D01*
X56901Y615769D01*
X57010Y615079D01*
X45989Y615079D01*
G37*
%LPD*%
%LPC*%
G36*
X99890Y615079D02*
X99890Y615079D01*
X99999Y615769D01*
X100670Y617834D01*
X101655Y619768D01*
X102931Y621524D01*
X104466Y623059D01*
X106222Y624335D01*
X108156Y625320D01*
X110221Y625991D01*
X110911Y626100D01*
X110911Y615079D01*
X99890Y615079D01*
G37*
%LPD*%
%LPC*%
G36*
X29890Y615079D02*
X29890Y615079D01*
X29999Y615769D01*
X30670Y617834D01*
X31655Y619768D01*
X32931Y621524D01*
X34466Y623059D01*
X36222Y624335D01*
X38156Y625320D01*
X40221Y625991D01*
X40911Y626100D01*
X40911Y615079D01*
X29890Y615079D01*
G37*
%LPD*%
%LPC*%
G36*
X115989Y610001D02*
X115989Y610001D01*
X127010Y610001D01*
X126901Y609311D01*
X126230Y607246D01*
X125245Y605312D01*
X123969Y603556D01*
X122434Y602021D01*
X120678Y600745D01*
X118744Y599760D01*
X116679Y599089D01*
X115989Y598980D01*
X115989Y610001D01*
G37*
%LPD*%
%LPC*%
G36*
X45989Y610001D02*
X45989Y610001D01*
X57010Y610001D01*
X56901Y609311D01*
X56230Y607246D01*
X55245Y605312D01*
X53969Y603556D01*
X52434Y602021D01*
X50678Y600745D01*
X48744Y599760D01*
X46679Y599089D01*
X45989Y598980D01*
X45989Y610001D01*
G37*
%LPD*%
%LPC*%
G36*
X110221Y599089D02*
X110221Y599089D01*
X108156Y599760D01*
X106222Y600745D01*
X104466Y602021D01*
X102931Y603556D01*
X101655Y605312D01*
X100670Y607246D01*
X99999Y609311D01*
X99890Y610001D01*
X110911Y610001D01*
X110911Y598980D01*
X110221Y599089D01*
G37*
%LPD*%
%LPC*%
G36*
X40221Y599089D02*
X40221Y599089D01*
X38156Y599760D01*
X36222Y600745D01*
X34466Y602021D01*
X32931Y603556D01*
X31655Y605312D01*
X30670Y607246D01*
X29999Y609311D01*
X29890Y610001D01*
X40911Y610001D01*
X40911Y598980D01*
X40221Y599089D01*
G37*
%LPD*%
%LPC*%
G36*
X195579Y332739D02*
X195579Y332739D01*
X195579Y340721D01*
X197182Y340200D01*
X198696Y339429D01*
X200070Y338431D01*
X201271Y337230D01*
X202269Y335856D01*
X203040Y334342D01*
X203561Y332739D01*
X195579Y332739D01*
G37*
%LPD*%
%LPC*%
G36*
X58489Y640079D02*
X58489Y640079D01*
X58489Y648061D01*
X60092Y647540D01*
X61606Y646769D01*
X62980Y645771D01*
X64181Y644570D01*
X65179Y643196D01*
X65950Y641682D01*
X66471Y640079D01*
X58489Y640079D01*
G37*
%LPD*%
%LPC*%
G36*
X262889Y505459D02*
X262889Y505459D01*
X262889Y513441D01*
X264492Y512920D01*
X266006Y512149D01*
X267380Y511151D01*
X268581Y509950D01*
X269579Y508576D01*
X270350Y507062D01*
X270871Y505459D01*
X262889Y505459D01*
G37*
%LPD*%
%LPC*%
G36*
X129539Y67309D02*
X129539Y67309D01*
X129539Y75291D01*
X131142Y74770D01*
X132656Y73999D01*
X134030Y73001D01*
X135231Y71800D01*
X136229Y70426D01*
X137000Y68912D01*
X137521Y67309D01*
X129539Y67309D01*
G37*
%LPD*%
%LPC*%
G36*
X116479Y67309D02*
X116479Y67309D01*
X117000Y68912D01*
X117771Y70426D01*
X118769Y71800D01*
X119970Y73001D01*
X121344Y73999D01*
X122858Y74770D01*
X124461Y75291D01*
X124461Y67309D01*
X116479Y67309D01*
G37*
%LPD*%
%LPC*%
G36*
X262889Y500381D02*
X262889Y500381D01*
X270871Y500381D01*
X270350Y498778D01*
X269579Y497264D01*
X268581Y495890D01*
X267380Y494689D01*
X266006Y493691D01*
X264492Y492920D01*
X262889Y492399D01*
X262889Y500381D01*
G37*
%LPD*%
%LPC*%
G36*
X195579Y327661D02*
X195579Y327661D01*
X203561Y327661D01*
X203040Y326058D01*
X202269Y324544D01*
X201271Y323170D01*
X200070Y321969D01*
X198696Y320971D01*
X197182Y320200D01*
X195579Y319679D01*
X195579Y327661D01*
G37*
%LPD*%
%LPC*%
G36*
X45429Y640079D02*
X45429Y640079D01*
X45950Y641682D01*
X46721Y643196D01*
X47719Y644570D01*
X48920Y645771D01*
X50294Y646769D01*
X51808Y647540D01*
X53411Y648061D01*
X53411Y640079D01*
X45429Y640079D01*
G37*
%LPD*%
%LPC*%
G36*
X182519Y332739D02*
X182519Y332739D01*
X183040Y334342D01*
X183811Y335856D01*
X184809Y337230D01*
X186010Y338431D01*
X187384Y339429D01*
X188898Y340200D01*
X190501Y340721D01*
X190501Y332739D01*
X182519Y332739D01*
G37*
%LPD*%
%LPC*%
G36*
X58489Y635001D02*
X58489Y635001D01*
X66471Y635001D01*
X65950Y633398D01*
X65179Y631884D01*
X64181Y630510D01*
X62980Y629309D01*
X61606Y628311D01*
X60092Y627540D01*
X58489Y627019D01*
X58489Y635001D01*
G37*
%LPD*%
%LPC*%
G36*
X249829Y505459D02*
X249829Y505459D01*
X250350Y507062D01*
X251121Y508576D01*
X252119Y509950D01*
X253320Y511151D01*
X254694Y512149D01*
X256208Y512920D01*
X257811Y513441D01*
X257811Y505459D01*
X249829Y505459D01*
G37*
%LPD*%
%LPC*%
G36*
X237489Y500381D02*
X237489Y500381D01*
X245471Y500381D01*
X244950Y498778D01*
X244179Y497264D01*
X243181Y495890D01*
X241980Y494689D01*
X240606Y493691D01*
X239092Y492920D01*
X237489Y492399D01*
X237489Y500381D01*
G37*
%LPD*%
%LPC*%
G36*
X129539Y62231D02*
X129539Y62231D01*
X137521Y62231D01*
X137000Y60628D01*
X136229Y59114D01*
X135231Y57740D01*
X134030Y56539D01*
X132656Y55541D01*
X131142Y54770D01*
X129539Y54249D01*
X129539Y62231D01*
G37*
%LPD*%
%LPC*%
G36*
X51808Y627540D02*
X51808Y627540D01*
X50294Y628311D01*
X48920Y629309D01*
X47719Y630510D01*
X46721Y631884D01*
X45950Y633398D01*
X45429Y635001D01*
X53411Y635001D01*
X53411Y627019D01*
X51808Y627540D01*
G37*
%LPD*%
%LPC*%
G36*
X188898Y320200D02*
X188898Y320200D01*
X187384Y320971D01*
X186010Y321969D01*
X184809Y323170D01*
X183811Y324544D01*
X183040Y326058D01*
X182519Y327661D01*
X190501Y327661D01*
X190501Y319679D01*
X188898Y320200D01*
G37*
%LPD*%
%LPC*%
G36*
X230808Y492920D02*
X230808Y492920D01*
X229294Y493691D01*
X227920Y494689D01*
X226719Y495890D01*
X225721Y497264D01*
X224950Y498778D01*
X224429Y500381D01*
X232411Y500381D01*
X232411Y492399D01*
X230808Y492920D01*
G37*
%LPD*%
%LPC*%
G36*
X256208Y492920D02*
X256208Y492920D01*
X254694Y493691D01*
X253320Y494689D01*
X252119Y495890D01*
X251121Y497264D01*
X250350Y498778D01*
X249829Y500381D01*
X257811Y500381D01*
X257811Y492399D01*
X256208Y492920D01*
G37*
%LPD*%
%LPC*%
G36*
X122858Y54770D02*
X122858Y54770D01*
X121344Y55541D01*
X119970Y56539D01*
X118769Y57740D01*
X117771Y59114D01*
X117000Y60628D01*
X116479Y62231D01*
X124461Y62231D01*
X124461Y54249D01*
X122858Y54770D01*
G37*
%LPD*%
%LPC*%
G36*
X260349Y502919D02*
X260349Y502919D01*
X260349Y502921D01*
X260351Y502921D01*
X260351Y502919D01*
X260349Y502919D01*
G37*
%LPD*%
%LPC*%
G36*
X483049Y612139D02*
X483049Y612139D01*
X483049Y612141D01*
X483051Y612141D01*
X483051Y612139D01*
X483049Y612139D01*
G37*
%LPD*%
%LPC*%
G36*
X533849Y612139D02*
X533849Y612139D01*
X533849Y612141D01*
X533851Y612141D01*
X533851Y612139D01*
X533849Y612139D01*
G37*
%LPD*%
%LPC*%
G36*
X113449Y612539D02*
X113449Y612539D01*
X113449Y612541D01*
X113451Y612541D01*
X113451Y612539D01*
X113449Y612539D01*
G37*
%LPD*%
%LPC*%
G36*
X55949Y637539D02*
X55949Y637539D01*
X55949Y637541D01*
X55951Y637541D01*
X55951Y637539D01*
X55949Y637539D01*
G37*
%LPD*%
%LPC*%
G36*
X193039Y330199D02*
X193039Y330199D01*
X193039Y330201D01*
X193041Y330201D01*
X193041Y330199D01*
X193039Y330199D01*
G37*
%LPD*%
%LPC*%
G36*
X483049Y662939D02*
X483049Y662939D01*
X483049Y662941D01*
X483051Y662941D01*
X483051Y662939D01*
X483049Y662939D01*
G37*
%LPD*%
%LPC*%
G36*
X533849Y662939D02*
X533849Y662939D01*
X533849Y662941D01*
X533851Y662941D01*
X533851Y662939D01*
X533849Y662939D01*
G37*
%LPD*%
%LPC*%
G36*
X43449Y612539D02*
X43449Y612539D01*
X43449Y612541D01*
X43451Y612541D01*
X43451Y612539D01*
X43449Y612539D01*
G37*
%LPD*%
%LPC*%
G36*
X126999Y64769D02*
X126999Y64769D01*
X126999Y64771D01*
X127001Y64771D01*
X127001Y64769D01*
X126999Y64769D01*
G37*
%LPD*%
D10*
X218440Y330200D03*
X193040Y355600D03*
X193040Y330200D03*
X243840Y355600D03*
X243840Y330200D03*
X218440Y355600D03*
X234950Y502920D03*
X260350Y579120D03*
X260350Y553720D03*
X234950Y579120D03*
X234950Y553720D03*
X234950Y528320D03*
X260350Y528320D03*
X260350Y502920D03*
D11*
X508450Y637540D03*
X483050Y662940D03*
X483050Y612140D03*
X533850Y612140D03*
X533850Y662940D03*
D10*
X393700Y64770D03*
X355600Y64770D03*
X317500Y64770D03*
X279400Y64770D03*
X241300Y64770D03*
X203200Y64770D03*
X165100Y64770D03*
X127000Y64770D03*
X431800Y64770D03*
X469900Y64770D03*
X100950Y637540D03*
X55950Y637540D03*
D12*
X113450Y612540D03*
X43450Y612540D03*
D10*
X140750Y612140D03*
X166150Y612140D03*
D13*
X308610Y265430D03*
X373380Y266700D03*
X389890Y351790D03*
X330200Y328930D03*
X261620Y353060D03*
X389890Y420370D03*
X129540Y502920D03*
X283210Y397510D03*
X243840Y383540D03*
X320040Y443230D03*
D14*
X224790Y626110D03*
D13*
X284480Y637540D03*
X284480Y627380D03*
X462280Y627380D03*
X283210Y538480D03*
X347980Y439420D03*
X198120Y671830D03*
X227330Y671830D03*
X250190Y671830D03*
X279400Y671830D03*
X207010Y646430D03*
X270510Y646430D03*
X92710Y426720D03*
X92710Y411480D03*
X104140Y392430D03*
X104140Y368300D03*
X125730Y205740D03*
X125730Y196850D03*
X148590Y157480D03*
X81280Y156210D03*
X81280Y146050D03*
X313690Y193040D03*
X313690Y177800D03*
X391160Y193040D03*
X391160Y177800D03*
X360680Y196850D03*
X374650Y196850D03*
X374650Y207010D03*
X452120Y207010D03*
X438150Y196850D03*
X452120Y196850D03*
X138430Y147320D03*
X325120Y406400D03*
X360680Y406400D03*
X360680Y370840D03*
X325120Y370840D03*
X299720Y233680D03*
X195580Y229870D03*
X236220Y233680D03*
X254000Y229870D03*
X429260Y340360D03*
X356870Y483870D03*
D14*
X172720Y458470D03*
D13*
X349250Y157480D03*
X400050Y157480D03*
X426720Y157480D03*
X477520Y157480D03*
X283210Y548640D03*
X327660Y497840D03*
D15*
X320072Y505428D01*
X290830Y541591D02*
X283781Y548640D01*
X283210Y548640D01*
X290830Y541591D02*
X290830Y514350D01*
X299752Y505428D02*
X320072Y505428D01*
X299752Y505428D02*
X290830Y514350D01*
D13*
X311150Y438150D03*
D16*
X176530Y528320D03*
D13*
X149860Y212090D03*
D16*
X144780Y323850D03*
X113030Y528320D03*
X132080Y411480D03*
D17*
X132080Y426720D01*
X113030Y445770D02*
X113030Y528320D01*
X113030Y445770D02*
X132080Y426720D01*
D16*
X195580Y279400D03*
X449580Y241300D03*
X416560Y241300D03*
D18*
X416560Y240780D02*
X419564Y237776D01*
X416560Y240780D02*
X416560Y241300D01*
X419564Y237776D02*
X446056Y237776D01*
X449580Y241300D01*
D16*
X372110Y241300D03*
X339090Y241300D03*
D18*
X372110Y241300D01*
D13*
X243840Y256540D03*
D17*
X234950Y528320D02*
X176530Y528320D01*
D19*
X311150Y446508D02*
X318286Y453644D01*
X311150Y446508D02*
X311150Y438150D01*
D16*
X403860Y368300D03*
D13*
X368300Y452120D03*
D19*
X366776Y453644D01*
X318286Y453644D01*
D16*
X406400Y403860D03*
D20*
X403860Y401320D01*
X403860Y368300D01*
D16*
X132080Y426720D03*
D21*
X144780Y323850D02*
X144780Y279400D01*
X144780Y217170D01*
X149860Y212090D01*
X144780Y279400D02*
X195580Y279400D01*
D13*
X243840Y279400D03*
D14*
X166370Y411480D03*
D20*
X132080Y411480D01*
D15*
X243840Y279400D02*
X243840Y256540D01*
D13*
X283210Y382270D03*
X283210Y417830D03*
D20*
X273050Y421640D02*
X269240Y425450D01*
X273050Y421640D02*
X273050Y417830D01*
X273050Y392430D01*
X283210Y382270D01*
X283210Y417830D02*
X273050Y417830D01*
D13*
X224790Y425450D03*
D20*
X269240Y425450D01*
D13*
X435610Y487680D03*
X450850Y487680D03*
D15*
X435610Y487680D01*
D13*
X294640Y499110D03*
X340360Y487680D03*
D15*
X335543Y487680D01*
X333035Y485172D01*
X322413Y485172D02*
X317333Y490252D01*
X322413Y485172D02*
X333035Y485172D01*
X317333Y490252D02*
X309277Y490252D01*
X300419Y499110D02*
X294640Y499110D01*
X300419Y499110D02*
X309277Y490252D01*
D13*
X431800Y248920D03*
X408940Y266700D03*
X393700Y266700D03*
D15*
X429062Y251658D02*
X431800Y248920D01*
X429062Y251658D02*
X413822Y251658D01*
X408940Y256540D02*
X408940Y266700D01*
X408940Y256540D02*
X413822Y251658D01*
X408940Y266700D02*
X393700Y266700D01*
D13*
X312420Y497840D03*
D15*
X316929Y497840D01*
X324517Y490252D01*
X330931Y490252D01*
X335947Y495268D01*
X343503Y495268D01*
X347948Y490823D02*
X347948Y481362D01*
X347948Y490823D02*
X343503Y495268D01*
X347948Y481362D02*
X353060Y476250D01*
D13*
X396240Y441960D03*
D15*
X378460Y476250D02*
X353060Y476250D01*
X378460Y476250D02*
X393700Y461010D01*
X393700Y444500D02*
X396240Y441960D01*
X393700Y444500D02*
X393700Y461010D01*
X278162Y561308D02*
X260350Y579120D01*
X278162Y561308D02*
X288457Y561308D01*
X300990Y548775D02*
X300990Y518994D01*
X300990Y548775D02*
X288457Y561308D01*
X300990Y518994D02*
X304396Y515588D01*
X328526Y515588D01*
D13*
X425450Y487680D03*
D15*
X347712Y505428D02*
X338686Y505428D01*
X347712Y505428D02*
X356602Y496538D01*
X338686Y505428D02*
X328526Y515588D01*
X356602Y496538D02*
X412346Y496538D01*
X421204Y487680D02*
X425450Y487680D01*
X421204Y487680D02*
X412346Y496538D01*
X262858Y556228D02*
X260350Y553720D01*
X262858Y556228D02*
X286353Y556228D01*
X295910Y546671D01*
X295910Y516890D02*
X302292Y510508D01*
X326422Y510508D02*
X336582Y500348D01*
X326422Y510508D02*
X302292Y510508D01*
X295910Y516890D02*
X295910Y546671D01*
D13*
X425450Y472440D03*
D15*
X354497Y491458D02*
X345607Y500348D01*
X336582Y500348D01*
X354497Y491458D02*
X410242Y491458D01*
X425450Y476250D02*
X425450Y472440D01*
X425450Y476250D02*
X410242Y491458D01*
D16*
X140970Y459740D03*
X152400Y424180D03*
D21*
X140970Y445770D02*
X140970Y459740D01*
X152400Y434340D02*
X152400Y424180D01*
X152400Y434340D02*
X140970Y445770D01*
D16*
X180340Y306070D03*
X163830Y361950D03*
D21*
X168910Y317500D02*
X180340Y306070D01*
X168910Y356870D02*
X163830Y361950D01*
X168910Y356870D02*
X168910Y317500D01*
D13*
X298450Y353060D03*
X233680Y383540D03*
D15*
X233680Y382969D02*
X240697Y375952D01*
X233680Y382969D02*
X233680Y383540D01*
X240697Y375952D02*
X257778Y375952D01*
X280670Y353060D01*
D13*
X231140Y454660D03*
X132080Y567690D03*
D15*
X280670Y353060D02*
X298450Y353060D01*
X231140Y454660D02*
X198120Y454660D01*
X139700Y513080D01*
X139700Y565150D01*
X137160Y567690D01*
X132080Y567690D01*
D13*
X280670Y256540D03*
D15*
X377357Y251492D02*
X386080Y260215D01*
X386080Y269240D01*
X386112Y269272D01*
X386112Y269843D01*
X390557Y274288D01*
X288258Y251492D02*
X283210Y256540D01*
X280670Y256540D01*
X288258Y251492D02*
X377357Y251492D01*
D13*
X469900Y274320D03*
D15*
X469868Y274288D02*
X390557Y274288D01*
X469868Y274288D02*
X469900Y274320D01*
D13*
X280670Y266700D03*
D15*
X375253Y256572D02*
X380968Y262287D01*
X380968Y269208D01*
X381000Y269240D01*
X381000Y271915D01*
X291369Y256572D02*
X281241Y266700D01*
X280670Y266700D01*
X291369Y256572D02*
X375253Y256572D01*
D13*
X469900Y284480D03*
D15*
X388453Y279368D02*
X381000Y271915D01*
X469329Y284480D02*
X469900Y284480D01*
X469329Y284480D02*
X464217Y279368D01*
X388453Y279368D01*
D16*
X224790Y612140D03*
X255270Y612140D03*
D18*
X224790Y612140D01*
D13*
X360680Y207010D03*
D15*
X373348Y219678D01*
D13*
X469900Y224790D03*
D15*
X452588Y219710D02*
X452556Y219678D01*
X469329Y224790D02*
X469900Y224790D01*
X469329Y224790D02*
X464249Y219710D01*
X452588Y219710D01*
X452556Y219678D02*
X373348Y219678D01*
D13*
X252730Y462280D03*
X148590Y567690D03*
D15*
X228029Y462280D02*
X252730Y462280D01*
X228029Y462280D02*
X225489Y459740D01*
X200224Y459740D02*
X144780Y515184D01*
X147320Y567690D02*
X148590Y567690D01*
X147320Y567690D02*
X144780Y565150D01*
X200224Y459740D02*
X225489Y459740D01*
X144780Y515184D02*
X144780Y565150D01*
D13*
X438150Y207010D03*
D15*
X445738Y214598D01*
X454660Y214598D01*
D13*
X429260Y309880D03*
X444500Y316230D03*
D15*
X438150Y309880D01*
X429260Y309880D01*
D13*
X469900Y214630D03*
D15*
X454692Y214630D02*
X454660Y214598D01*
X454692Y214630D02*
X469900Y214630D01*
D13*
X337820Y439420D03*
D15*
X337820Y431800D01*
X330200Y424180D01*
X299720Y424180D01*
D13*
X269240Y453390D03*
D15*
X270510Y453390D01*
X299720Y424180D01*
D13*
X389890Y341630D03*
D15*
X389319Y341630D01*
X382270Y348679D01*
X382270Y423481D01*
D13*
X269240Y483870D03*
D15*
X342034Y480092D02*
X350956Y471170D01*
X342034Y480092D02*
X320308Y480092D01*
X316530Y483870D02*
X269240Y483870D01*
X316530Y483870D02*
X320308Y480092D01*
X382270Y423481D02*
X388620Y429831D01*
X388620Y458906D02*
X376356Y471170D01*
X350956Y471170D01*
X388620Y458906D02*
X388620Y429831D01*
D13*
X389890Y331470D03*
D15*
X389319Y331470D01*
X382270Y338519D01*
X382270Y341495D01*
X377190Y346575D01*
X377190Y425585D01*
X383540Y431935D01*
X383540Y456802D02*
X374252Y466090D01*
X383540Y456802D02*
X383540Y431935D01*
D13*
X269240Y473710D03*
D15*
X339930Y475012D02*
X348852Y466090D01*
X318204Y475012D02*
X314426Y478790D01*
X318204Y475012D02*
X339930Y475012D01*
X274891Y478790D02*
X269811Y473710D01*
X269240Y473710D01*
X274891Y478790D02*
X314426Y478790D01*
X348852Y466090D02*
X374252Y466090D01*
D16*
X347980Y95250D03*
D20*
X354330Y88900D01*
X383540Y88900D01*
X393700Y78740D01*
X393700Y64770D01*
D16*
X478790Y95250D03*
D20*
X472440Y88900D01*
X441960Y88900D01*
X431800Y78740D01*
X431800Y64770D01*
D22*
X0Y0D02*
X596900Y0D01*
X596900Y685800D01*
X0Y685800D01*
X0Y0D01*
M02*
