G04 EAGLE Gerber RS-274X export*
G75*
%MOMM*%
%FSLAX34Y34*%
%LPD*%
%INSolderpaste Top*%
%IPPOS*%
%AMOC8*
5,1,8,0,0,1.08239X$1,22.5*%
G01*
%ADD10R,0.762000X0.889000*%
%ADD11R,0.889000X0.762000*%
%ADD12R,1.016000X1.778000*%
%ADD13R,1.016000X0.304800*%
%ADD14R,0.304800X1.016000*%
%ADD15R,5.080000X5.080000*%
%ADD16R,0.762000X1.270000*%
%ADD17R,1.524000X0.700000*%
%ADD18R,1.016000X1.270000*%
%ADD19R,1.651000X1.397000*%
%ADD20R,1.800000X1.900000*%
%ADD21R,1.900000X1.900000*%
%ADD22R,1.600000X1.400000*%
%ADD23R,0.400000X1.400000*%
%ADD24R,2.794000X3.556000*%
%ADD25R,0.635000X1.143000*%
%ADD26R,5.461000X3.302000*%
%ADD27R,0.300000X1.397000*%
%ADD28C,0.254000*%


D10*
X419100Y340360D03*
X403860Y340360D03*
X119380Y502920D03*
X104140Y502920D03*
X283210Y487680D03*
X298450Y487680D03*
X283210Y472440D03*
X298450Y472440D03*
X356870Y472440D03*
X341630Y472440D03*
X419100Y355600D03*
X403860Y355600D03*
X317500Y266700D03*
X332740Y266700D03*
X363220Y266700D03*
X347980Y266700D03*
X312420Y457200D03*
X327660Y457200D03*
X254000Y383540D03*
X269240Y383540D03*
X273050Y353060D03*
X288290Y353060D03*
D11*
X128905Y459740D03*
X92075Y459740D03*
X117475Y110490D03*
X80645Y110490D03*
D12*
X125730Y483870D03*
X95250Y483870D03*
D13*
X308610Y413620D03*
X308610Y408620D03*
X308610Y403620D03*
X308610Y398620D03*
X308610Y393620D03*
X308610Y388620D03*
X308610Y383620D03*
X308610Y378620D03*
X308610Y373620D03*
X308610Y368620D03*
X308610Y363620D03*
D14*
X317900Y354330D03*
X322900Y354330D03*
X327900Y354330D03*
X332900Y354330D03*
X337900Y354330D03*
X342900Y354330D03*
X347900Y354330D03*
X352900Y354330D03*
X357900Y354330D03*
X362900Y354330D03*
X367900Y354330D03*
D13*
X377190Y363620D03*
X377190Y368620D03*
X377190Y373620D03*
X377190Y378620D03*
X377190Y383620D03*
X377190Y388620D03*
X377190Y393620D03*
X377190Y398620D03*
X377190Y403620D03*
X377190Y408620D03*
X377190Y413620D03*
D14*
X367900Y422910D03*
X362900Y422910D03*
X357900Y422910D03*
X352900Y422910D03*
X347900Y422910D03*
X342900Y422910D03*
X337900Y422910D03*
X332900Y422910D03*
X327900Y422910D03*
X322900Y422910D03*
X317900Y422910D03*
D15*
X342900Y388620D03*
D16*
X210820Y153690D03*
X236220Y153690D03*
X236220Y219690D03*
X210820Y219690D03*
X274320Y153690D03*
X299720Y153690D03*
X299720Y219690D03*
X274320Y219690D03*
D17*
X445770Y527970D03*
X445770Y537970D03*
X445770Y547970D03*
X445770Y557970D03*
X445770Y567970D03*
X445770Y577970D03*
X445770Y587970D03*
X445770Y597970D03*
X445770Y607970D03*
X445770Y617970D03*
X445770Y627970D03*
X445770Y637970D03*
X300990Y637970D03*
X300990Y627970D03*
X300990Y617970D03*
X300990Y567970D03*
X300990Y557970D03*
X300990Y547970D03*
X300990Y537970D03*
X300990Y527970D03*
D10*
X273050Y337820D03*
X288290Y337820D03*
X254000Y414020D03*
X269240Y414020D03*
D18*
X232410Y110490D03*
X214630Y110490D03*
D10*
X195580Y256540D03*
X210820Y256540D03*
D18*
X295910Y110490D03*
X278130Y110490D03*
D10*
X254000Y256540D03*
X269240Y256540D03*
X254000Y398780D03*
X269240Y398780D03*
X415290Y487680D03*
X400050Y487680D03*
X269240Y441960D03*
X254000Y441960D03*
X386080Y487680D03*
X370840Y487680D03*
X415290Y472440D03*
X400050Y472440D03*
X386080Y472440D03*
X370840Y472440D03*
X327660Y487680D03*
X312420Y487680D03*
X327660Y472440D03*
X312420Y472440D03*
D19*
X319405Y286385D03*
X361315Y286385D03*
X361315Y313055D03*
X319405Y313055D03*
D20*
X278450Y671300D03*
D21*
X250450Y671300D03*
D20*
X198450Y671300D03*
D21*
X226450Y671300D03*
D22*
X270450Y647300D03*
X206450Y647300D03*
D23*
X238450Y644300D03*
X244950Y644300D03*
X251450Y644300D03*
X231950Y644300D03*
X225450Y644300D03*
D24*
X198120Y392430D03*
X198120Y458470D03*
D10*
X341630Y457200D03*
X356870Y457200D03*
D25*
X100990Y174625D03*
X110490Y174625D03*
X119990Y174625D03*
X119990Y198755D03*
X110490Y198755D03*
X100990Y198755D03*
D12*
X83820Y133350D03*
X114300Y133350D03*
X95250Y368300D03*
X125730Y368300D03*
X95250Y392430D03*
X125730Y392430D03*
D26*
X110490Y332740D03*
X110490Y231140D03*
D11*
X82550Y201930D03*
X82550Y186690D03*
D10*
X102870Y411480D03*
X118110Y411480D03*
D11*
X138430Y157480D03*
X138430Y172720D03*
X153670Y201930D03*
X153670Y186690D03*
X138430Y186690D03*
X138430Y201930D03*
D10*
X444500Y161290D03*
X459740Y161290D03*
X195580Y241300D03*
X210820Y241300D03*
X254000Y241300D03*
X269240Y241300D03*
X401320Y193040D03*
X416560Y193040D03*
X401320Y177800D03*
X416560Y177800D03*
X434340Y266700D03*
X419100Y266700D03*
X434340Y281940D03*
X419100Y281940D03*
X416560Y226060D03*
X401320Y226060D03*
D18*
X400050Y209550D03*
X417830Y209550D03*
D10*
X367030Y161290D03*
X382270Y161290D03*
X323850Y177800D03*
X339090Y177800D03*
X323850Y193040D03*
X339090Y193040D03*
D18*
X322580Y209550D03*
X340360Y209550D03*
D10*
X339090Y226060D03*
X323850Y226060D03*
D27*
X377030Y224155D03*
X372030Y224155D03*
X367030Y224155D03*
X362030Y224155D03*
X357030Y224155D03*
X357030Y179705D03*
X362030Y179705D03*
X367030Y179705D03*
X372030Y179705D03*
X377030Y179705D03*
X454500Y224155D03*
X449500Y224155D03*
X444500Y224155D03*
X439500Y224155D03*
X434500Y224155D03*
X434500Y179705D03*
X439500Y179705D03*
X444500Y179705D03*
X449500Y179705D03*
X454500Y179705D03*
D10*
X403860Y325120D03*
X419100Y325120D03*
X403860Y309880D03*
X419100Y309880D03*
D18*
X365760Y129540D03*
X383540Y129540D03*
X443230Y129540D03*
X461010Y129540D03*
X347980Y110490D03*
X365760Y110490D03*
X401320Y110490D03*
X383540Y110490D03*
X425450Y110490D03*
X443230Y110490D03*
X478790Y110490D03*
X461010Y110490D03*
D11*
X205105Y130810D03*
X241935Y130810D03*
X268605Y130810D03*
X305435Y130810D03*
D10*
X283210Y457200D03*
X298450Y457200D03*
X283210Y441960D03*
X298450Y441960D03*
X91440Y152400D03*
X106680Y152400D03*
X102870Y426720D03*
X118110Y426720D03*
X364490Y146050D03*
X349250Y146050D03*
X384810Y146050D03*
X400050Y146050D03*
X441960Y146050D03*
X426720Y146050D03*
X462280Y146050D03*
X477520Y146050D03*
D28*
X0Y0D02*
X596900Y0D01*
X596900Y685800D01*
X0Y685800D01*
X0Y0D01*
M02*
