M48
;GenerationSoftware,Autodesk,EAGLE,9.3.0*%
;CreationDate,2020-02-27T07:06:15Z*%
FMAT,2
ICI,OFF
METRIC,TZ,000.000
T6C0.400
T5C0.600
T4C0.700
T3C1.100
T2C1.500
T1C1.600
%
G90
M71
T1
X53385Y66294
X53385Y61214
X48305Y66294
X48305Y61214
X50845Y63754
T2
X4345Y61254
X11345Y61254
T3
X39370Y6477
X35560Y6477
X31750Y6477
X16615Y61214
X27940Y6477
X24130Y6477
X23495Y50292
X20320Y6477
X16510Y6477
X12700Y6477
X43180Y6477
X10095Y63754
X5595Y63754
X14075Y61214
X21844Y33020
X19304Y35560
X19304Y33020
X24384Y35560
X24384Y33020
X21844Y35560
X46990Y6477
X26035Y57912
X26035Y55372
X23495Y57912
X23495Y55372
X23495Y52832
X26035Y52832
X26035Y50292
T4
X40386Y36830
X17907Y52832
X40640Y40386
X15367Y27813
X11938Y45974
X19558Y27813
X44958Y24130
X41656Y24130
X37211Y24130
X33909Y24130
X47879Y9525
X13843Y35687
X34798Y9525
T5
X22479Y62611
X17272Y45847
X25400Y61341
X22479Y61341
X14605Y39878
X14986Y41148
X15748Y37084
T6
X32512Y40640
X36068Y40640
X36068Y37084
X32512Y37084
X29972Y23368
X19558Y22987
X23622Y23368
X25908Y22987
X42926Y34036
X36322Y48387
X28321Y54864
X32766Y49784
X30861Y43942
X16764Y21209
X24892Y25654
X24892Y27813
X37338Y45212
X28321Y38227
X25019Y67183
X14986Y47752
X10160Y47752
X23114Y42545
X29464Y49911
X34036Y48768
X43180Y24892
X40894Y26670
X39370Y26670
X31242Y49784
X40132Y44196
X43180Y48768
X43180Y47244
X30861Y26543
X37338Y26670
X29845Y35306
X23368Y38354
X23622Y44704
X13589Y52451
X28575Y25654
X46990Y27432
X28575Y26670
X46990Y28448
X38989Y35179
X33020Y32893
X36068Y20701
X46990Y22479
X25654Y45212
X15113Y52451
X43815Y20701
X42926Y30988
X44450Y31623
X46990Y21463
X38989Y34163
X26924Y48387
X38989Y33147
X26924Y47371
X26162Y35306
X38989Y42037
X13589Y44196
X28321Y39751
X24384Y38354
X32004Y43942
X28448Y63754
X28448Y62738
X46228Y62738
X28321Y53848
X34798Y43942
X19812Y67183
X22733Y67183
X27940Y67183
X20701Y64643
X27051Y64643
X11049Y37592
X9906Y35687
X28321Y41783
X11049Y33782
X11049Y31369
X14351Y20574
X14351Y19685
X16637Y15748
X11049Y15494
X11049Y14097
X31369Y19304
X31369Y17780
X39116Y19304
X39116Y17780
X36068Y19685
X37465Y19685
X37465Y20701
X45212Y20701
X43815Y19685
X45212Y19685
X15621Y14732
M30