M48
;GenerationSoftware,Autodesk,EAGLE,9.3.0*%
;CreationDate,2020-05-26T09:16:24Z*%
FMAT,2
ICI,OFF
METRIC,TZ,000.000
T6C0.400
T5C0.600
T4C0.700
T3C1.100
T2C1.500
T1C1.600
%
G90
M71
T1
X53385Y61214
X48305Y66294
X48305Y61214
X50845Y63754
X53385Y66294
T2
X4345Y61254
X11345Y61254
T3
X23495Y55372
X23495Y52832
X26035Y52832
X16615Y61214
X26035Y50292
X39370Y6477
X35560Y6477
X24384Y33020
X31750Y6477
X27940Y6477
X24130Y6477
X20320Y6477
X16510Y6477
X43180Y6477
X46990Y6477
X10095Y63754
X5595Y63754
X14075Y61214
X21844Y33020
X19304Y35560
X19304Y33020
X24384Y35560
X12700Y6477
X21844Y35560
X23495Y50292
X26035Y57912
X26035Y55372
X23495Y57912
T4
X19558Y27940
X17653Y52832
X40640Y40386
X14478Y32385
X11303Y52832
X13208Y41148
X44958Y24130
X41656Y24130
X37211Y24130
X33909Y24130
X40386Y36830
X14097Y45974
X15240Y42418
X22479Y61214
X47879Y9525
X34798Y9525
X25527Y61214
X16383Y36195
X18034Y30607
X13208Y42672
T5
X17272Y45847
X22479Y62611
X16637Y41148
T6
X36068Y37084
X32512Y37084
X29972Y23368
X19558Y22987
X23622Y23368
X25400Y22987
X42926Y34036
X35687Y48387
X34925Y15748
X40005Y15748
X42672Y15748
X47752Y15748
X28321Y54864
X32766Y49784
X31115Y43815
X14986Y21209
X24384Y25654
X36830Y45212
X24384Y27940
X28321Y38227
X27940Y67183
X22479Y42545
X43561Y48768
X45085Y48768
X29464Y49911
X34036Y48768
X43180Y24892
X40894Y26670
X39370Y26670
X31242Y49784
X39624Y44196
X42545Y48768
X42545Y47244
X30861Y26543
X37338Y26670
X38989Y35179
X33020Y32893
X29845Y35306
X23368Y38354
X23114Y45466
X13208Y56769
X28067Y25654
X46990Y27432
X28067Y26670
X46990Y28448
X26162Y35306
X38989Y42037
X36068Y20701
X46990Y22479
X25273Y46228
X14859Y56769
X43815Y20701
X42926Y30988
X44450Y31623
X46990Y21463
X33782Y43942
X26924Y45339
X38989Y34163
X26924Y48387
X12954Y50292
X26924Y47371
X28321Y39751
X24384Y38354
X32004Y44323
X28448Y63754
X28448Y62738
X46228Y62738
X28321Y53848
X34798Y43942
X19812Y67183
X22733Y67183
X25019Y67183
X20701Y64643
X27051Y64643
X9271Y42672
X9271Y41148
X10414Y39243
X10414Y36830
X28321Y41783
X12573Y20574
X12573Y19685
X14859Y15748
X8128Y15621
X8128Y14605
X31369Y19304
X31369Y17780
X39116Y19304
X39116Y17780
X36068Y19685
X37465Y19685
X37465Y20701
X45212Y20701
X43815Y19685
X45212Y19685
X13843Y14732
X32512Y40640
X36068Y40640
X38989Y33147
M30